<?xml version="1.0" standalone="no"?>
<!DOCTYPE svg PUBLIC "-//W3C//DTD SVG 1.1//EN" "http://www.w3.org/Graphics/SVG/1.1/DTD/svg11.dtd" >
<svg xmlns="http://www.w3.org/2000/svg" xmlns:xlink="http://www.w3.org/1999/xlink" version="1.1">
<metadata>
Created by FontForge 20170731 at Thu Jul 10 05:19:19 2014
 By Aleksey,,,
Copyright (c) 2009, 2013 Cadson Demak Co. Ltd., Thailand. All Rights Reserved.
</metadata>
<defs>
<font id="SukhumvitSet-Bold" horiz-adv-x="0" >
  <font-face 
    font-family="Sukhumvit Set Bold"
    font-weight="700"
    font-stretch="normal"
    units-per-em="1000"
    panose-1="2 0 5 6 0 0 0 2 0 4"
    ascent="800"
    descent="-200"
    x-height="488"
    cap-height="674"
    bbox="-657 -474 1331 1117"
    underline-thickness="50"
    underline-position="-225"
    unicode-range="U+000D-FE48"
  />
<missing-glyph horiz-adv-x="500" 
d="M63 0v750h375v-750h-375zM125 63h250v625h-250v-625z" />
    <glyph glyph-name="uni0E5A" unicode="&#xe2f;&#xe2f;" horiz-adv-x="811" 
d="M361 0v383q-20 -36 -60 -60t-91 -24q-43 0 -76.5 15t-56.5 42t-35 63.5t-12 79.5v61h128v-61q0 -52 20 -75t52 -23q25 0 49 8.5t43 25t30 39.5t11 53v33h128v-169q24 1 47 11.5t41 28.5t28.5 42.5t10.5 53.5v33h128v-560h-130v383q-17 -32 -50 -58.5t-75 -33.5v-291h-130
z" />
    <glyph glyph-name="uni0E4F.liga" unicode="&#xe4f;&#x22;" horiz-adv-x="546" 
d="M273 26q-44 0 -83 17t-68 46t-45.5 68t-16.5 83t16.5 83t45.5 68t68 45.5t83 16.5t83 -16.5t68 -45.5t45.5 -68t16.5 -83t-16.5 -83t-45.5 -68t-68 -46t-83 -17zM273 71q35 0 66 13t54 36t36 54t13 66t-13 65.5t-36 53.5t-54 36.5t-66 13.5t-65.5 -13.5t-53.5 -36.5
t-36.5 -53.5t-13.5 -65.5t13.5 -66t36.5 -54t53.5 -36t65.5 -13zM273 117q-26 0 -48.5 9.5t-39.5 26t-26.5 39t-9.5 47.5q0 26 10 49t26.5 39.5t39 26t47.5 9.5q26 0 48.5 -9.5t39.5 -26.5t26.5 -39.5t9.5 -47.5q0 -26 -10 -48.5t-26.5 -39t-39 -26t-47.5 -9.5zM273 190
q20 0 34 14.5t14 35.5q0 20 -14.5 34t-34.5 14t-34.5 -14.5t-14.5 -34.5t14.5 -34.5t35.5 -14.5zM166 496l-15 192h92l-15 -192h-62zM318 496l-15 192h92l-15 -192h-62z" />
    <glyph glyph-name="uni0E24.liga" unicode="&#xe24;&#xe32;" horiz-adv-x="974" 
d="M196 118q0 -16 15 -16h58v-102h-88q-58 0 -86.5 29.5t-28.5 80.5v124q0 32 15 57t38 39l-81 66q10 34 34.5 65.5t59.5 56t80 39.5t97 15q58 0 104 -16.5t78 -45.5q32 26 77 44t105 18q55 0 99 -16.5t74.5 -46t46.5 -71t16 -90.5v-548h-130v548q0 60 -32 90t-80 30
q-39 0 -70 -12.5t-52 -29.5q13 -35 13 -78v-548h-130v548q0 60 -33 90t-89 30q-21 0 -41.5 -5.5t-38 -15t-31 -22t-20.5 -25.5l84 -71q-31 -11 -47 -33.5t-16 -60.5v-117z" />
    <glyph glyph-name="uni0E26.liga" unicode="&#xe26;&#xe32;" horiz-adv-x="984" 
d="M216 110q0 -51 -28.5 -80.5t-86.5 -29.5h-76v102h46q15 0 15 16v116q0 32 13 55t36 37l-91 70q10 34 34 65.5t59.5 56t80.5 39.5t98 15q59 0 105 -17t78 -46q32 27 77.5 45t106.5 18q55 0 99 -16.5t74.5 -46t46.5 -71t16 -90.5v-548h-130v548q0 60 -32 90t-80 30
q-40 0 -72 -13t-52 -31q12 -36 12 -76v-548h-130v548q0 60 -32.5 90t-89.5 30q-44 0 -80.5 -21t-51.5 -47l94 -75q-31 -11 -45 -31.5t-14 -58.5v-125z" />
    <glyph glyph-name="ff" unicode="ff" horiz-adv-x="647" 
d="M201 488h144v6q0 31 7.5 63t24.5 57q-16 5 -29 7t-30 2q-58 0 -87.5 -32t-29.5 -92v-11zM570 488v-94h-103v-394h-122v394h-144v-394h-122v394h-66v94h66v12q0 55 18.5 96t52 68.5t79.5 41.5t101 14q72 0 136 -23q45 23 114 23q24 0 48.5 -5t41.5 -13q0 -3 -31 -95
q-15 7 -32.5 10t-28.5 3q-57 0 -84 -33.5t-27 -87.5v-11h103z" />
    <glyph glyph-name="fi" unicode="fi" horiz-adv-x="560" 
d="M496 0h-130v392h-158v-392h-129v392h-66v96h66v22q0 48 16.5 87t47.5 66.5t75 42t99 14.5q89 0 135 -31l-27 -97q-43 25 -107 25q-110 0 -110 -110v-19h288v-488z" />
    <glyph glyph-name="fl" unicode="fl" horiz-adv-x="560" 
d="M496 0h-130v611q-20 11 -61 11q-97 0 -97 -113v-21h95v-96h-95v-392h-129v392h-66v96h66v21q0 99 71 158q65 53 174 53q101 0 172 -38v-682z" />
    <glyph glyph-name="ffi" unicode="ffi" horiz-adv-x="821" 
d="M577 620q-57 0 -84 -33.5t-27 -87.5v-11h291v-488h-122v394h-169v-394h-122v394h-143v-394h-122v394h-66v94h66v12q1 112 67 166t184 54q73 0 136 -23q51 22 112 23q38 0 76.5 -8t64.5 -26l-32 -95q-25 14 -54 21.5t-56 7.5zM201 488h143v6q0 31 7.5 63t24.5 57
q-16 5 -29 7t-30 2q-57 0 -86.5 -32t-29.5 -92v-11z" />
    <glyph glyph-name="ffl" unicode="ffl" horiz-adv-x="821" 
d="M79 488v12q0 55 17.5 96t50.5 68.5t79.5 41.5t103.5 14q39 0 72 -5.5t65 -17.5q51 22 111 23q66 0 108 -11t71 -27v-682h-122v610q-24 10 -59 10q-57 0 -83.5 -33.5t-26.5 -87.5v-11h103v-94h-103v-394h-122v394h-143v-394h-122v394h-66v94h66zM201 488h143v6
q0 31 7.5 63t24.5 57q-16 5 -29 7t-30 2q-57 0 -86.5 -32t-29.5 -92v-11z" />
    <glyph glyph-name=".notdef" horiz-adv-x="500" 
d="M63 0v750h375v-750h-375zM125 63h250v625h-250v-625z" />
    <glyph glyph-name=".null" 
 />
    <glyph glyph-name=".null" 
 />
    <glyph glyph-name="nonmarkingreturn" unicode="&#xd;" horiz-adv-x="195" 
 />
    <glyph glyph-name="space" unicode=" " horiz-adv-x="232" 
 />
    <glyph glyph-name="exclam" unicode="!" horiz-adv-x="253" 
d="M195 674l-19 -463h-99l-19 463h137zM205 69q0 -35 -22 -57.5t-58 -22.5q-34 0 -55.5 23t-21.5 57q0 36 22 59t56 23q36 0 57.5 -23t21.5 -59z" />
    <glyph glyph-name="quotedbl" unicode="&#x22;" horiz-adv-x="374" 
d="M334 692l-21 -260h-76l-21 260h118zM158 692l-21 -260h-76l-21 260h118z" />
    <glyph glyph-name="numbersign" unicode="#" horiz-adv-x="525" 
d="M489 389h-92l-16 -123h82v-81h-96l-25 -185h-79l26 185h-94l-25 -185h-79l25 185h-81v81h95l17 123h-85v80h97l25 181h78l-26 -181h95l25 181h78l-25 -181h80v-80zM319 389h-94l-17 -123h94z" />
    <glyph glyph-name="dollar" unicode="$" horiz-adv-x="532" 
d="M472 196q0 -67 -43.5 -116t-124.5 -63v-104h-85v98q-96 3 -161 42l28 100q73 -43 155 -43q46 0 74 20t28 54q0 59 -107 98q-42 16 -73 33.5t-51 36.5q-47 44 -47 110t42.5 111.5t117.5 59.5v98h85v-92q77 -2 137 -33l-27 -96q-69 34 -135 34q-46 0 -71 -22
q-20 -18 -20 -45q0 -29 28 -50q13 -10 35.5 -21.5t55.5 -24.5q84 -32 121.5 -75.5t37.5 -109.5z" />
    <glyph glyph-name="percent" unicode="%" horiz-adv-x="837" 
d="M809 198q0 -84 -41 -142q-46 -64 -128 -64q-78 0 -124 60q-41 56 -41 136q0 84 42 141q47 62 129 62q81 0 124 -58q39 -53 39 -135zM641 661l-374 -673h-73l375 673h72zM363 467q0 -84 -42 -142q-46 -64 -128 -64q-78 0 -124 60q-41 56 -41 136q0 85 42 141q46 63 129 63
q80 0 124 -59q40 -52 40 -135zM713 192q0 127 -70 127q-39 0 -57 -48q-13 -33 -13 -82q0 -47 13 -79q19 -46 58 -46q69 0 69 128zM266 461q0 128 -70 128q-39 0 -57 -49q-13 -33 -13 -82q0 -47 13 -79q19 -46 58 -46q69 0 69 128z" />
    <glyph glyph-name="ampersand" unicode="&#x26;" horiz-adv-x="644" 
d="M639 0h-150q-11 11 -23.5 24.5t-26.5 29.5q-77 -65 -186 -65q-106 0 -168 59q-55 52 -55 131q0 125 128 194v4q-53 62 -53 134q0 69 48 119q54 55 142 55q74 0 122 -42t48 -111q0 -105 -137 -176v-3q23 -28 54.5 -64.5t73.5 -83.5q20 32 35 75.5t23 99.5h116
q-29 -165 -106 -253zM355 528q0 31 -17.5 52.5t-47.5 21.5q-31 0 -49 -23.5t-18 -55.5q0 -50 47 -105q85 54 85 110zM378 127q-25 26 -65 71t-97 110q-63 -44 -63 -108q0 -51 34 -83.5t86 -32.5q65 0 105 43z" />
    <glyph glyph-name="quotesingle" unicode="'" horiz-adv-x="198" 
d="M158 692l-21 -260h-76l-21 260h118z" />
    <glyph glyph-name="parenleft" unicode="(" horiz-adv-x="301" 
d="M179 -118q-120 169 -119 404q0 237 119 406h93q-109 -166 -109 -406q0 -232 109 -404h-93z" />
    <glyph glyph-name="parenright" unicode=")" horiz-adv-x="301" 
d="M241 288q0 -236 -119 -406h-93q109 169 109 406q0 235 -109 404h93q120 -166 119 -404z" />
    <glyph glyph-name="asterisk" unicode="*" horiz-adv-x="437" 
d="M408 450l-156 24l-1 -2l104 -122l-79 -46l-59 149l-2 -1l-59 -148l-76 46l102 123v3l-153 -26v90l151 -27l1 2l-101 124l79 45l58 -147h2l58 148l78 -45l-103 -128l156 28v-90z" />
    <glyph glyph-name="plus" unicode="+" horiz-adv-x="596" 
d="M556 226h-215v-226h-86v226h-215v82h215v224h86v-224h215v-82z" />
    <glyph glyph-name="comma" unicode="," horiz-adv-x="241" 
d="M210 157q-50 -162 -116 -270l-87 -8q23 66 40 132.5t28 135.5z" />
    <glyph glyph-name="hyphen" unicode="-" horiz-adv-x="313" 
d="M283 221h-253v89h253v-89z" />
    <glyph glyph-name="period" unicode="." horiz-adv-x="241" 
d="M208 71q0 -36 -22 -59t-58 -23q-34 0 -56 23.5t-22 58.5q0 36 22 59.5t58 23.5q35 0 56.5 -23.5t21.5 -59.5z" />
    <glyph glyph-name="slash" unicode="/" horiz-adv-x="331" 
d="M333 685l-236 -725h-88l235 725h89z" />
    <glyph glyph-name="zero" unicode="0" horiz-adv-x="532" 
d="M499 329q0 -139 -47 -228q-61 -112 -189 -112q-122 0 -182 112q-48 88 -48 222q0 135 50 226q61 112 187 112q123 0 183 -110q46 -86 46 -222zM369 326q0 235 -103 235q-62 0 -88 -95q-16 -58 -16 -143q0 -235 104 -235q103 0 103 238z" />
    <glyph glyph-name="one" unicode="1" horiz-adv-x="532" 
d="M358 0h-126v533h-2l-119 -59l-22 97l161 79h108v-650z" />
    <glyph glyph-name="two" unicode="2" horiz-adv-x="532" 
d="M481 0h-439v79l78 73q120 114 163 169q53 70 55 130q0 105 -112 105q-66 0 -136 -53l-37 93q83 65 199 65q103 0 161 -58q54 -54 54 -140q0 -79 -53 -159q-22 -32 -55 -68.5t-79 -76.5l-56 -50v-2h257v-107z" />
    <glyph glyph-name="three" unicode="3" horiz-adv-x="532" 
d="M472 186q0 -85 -66 -140q-71 -57 -187 -57q-112 0 -180 44l27 98q69 -39 146 -39q62 0 96 31q31 27 30 69q0 52 -44 81q-38 26 -98 26h-55v94h53q48 0 83 20q41 24 41 67q0 34 -24 55q-28 23 -76 23q-69 0 -130 -39l-28 93q71 49 187 49q95 0 151 -48q52 -43 52 -112
q0 -109 -118 -151v-2q61 -12 99 -53q41 -46 41 -109z" />
    <glyph glyph-name="four" unicode="4" horiz-adv-x="532" 
d="M511 163h-81v-163h-122v163h-288v84l257 403h153v-389h81v-98zM309 543q-9 -20 -23.5 -48t-34.5 -65l-109 -169h166v167q0 22 1 51t3 64h-3z" />
    <glyph glyph-name="five" unicode="5" horiz-adv-x="532" 
d="M475 215q0 -94 -71 -159q-73 -67 -192 -67q-104 0 -171 37l25 98q63 -33 141 -33q56 0 94 29q42 31 42 85q0 122 -181 122q-43 0 -86 -6l42 329h336v-107h-245l-18 -122q11 2 22 2.5t22 -0.5q104 0 169 -50q71 -56 71 -158z" />
    <glyph glyph-name="six" unicode="6" horiz-adv-x="532" 
d="M504 222q0 -97 -63 -163q-64 -70 -165 -70q-116 0 -182 81q-63 76 -63 200q0 184 113 291q87 84 231 96q19 2 34.5 2.5t27.5 -0.5v-101q-26 2 -61 -3q-93 -10 -150 -64q-49 -46 -63 -118h3q52 60 142 60q83 0 139 -56q57 -59 57 -155zM373 215q0 55 -28 89.5t-79 34.5
q-69 0 -99 -64q-8 -18 -8 -39q1 -65 30 -105q31 -46 86 -46q47 0 74 39q24 36 24 91z" />
    <glyph glyph-name="seven" unicode="7" horiz-adv-x="532" 
d="M487 568l-269 -568h-136l268 543h-299v107h436v-82z" />
    <glyph glyph-name="eight" unicode="8" horiz-adv-x="532" 
d="M500 183q0 -93 -74 -146q-66 -48 -163 -48q-92 0 -156 43q-74 50 -74 136q0 114 119 168v2q-97 49 -97 144q0 84 69 134q61 45 148 45q84 0 139 -40q65 -45 65 -124q0 -97 -98 -147v-2q122 -50 122 -165zM355 483q0 42 -23.5 65.5t-63.5 23.5q-39 0 -63.5 -23t-24.5 -62
q0 -69 100 -99q33 10 54 36t21 59zM369 173q0 87 -113 119q-90 -26 -90 -110q0 -45 29 -73.5t74 -28.5q43 0 71.5 25.5t28.5 67.5z" />
    <glyph glyph-name="nine" unicode="9" horiz-adv-x="532" 
d="M499 384q0 -170 -84 -272q-89 -107 -253 -119q-23 -2 -40.5 -2.5t-30.5 0.5v102q11 -1 27.5 -0.5t38.5 2.5q75 6 128 47q64 49 82 139h-3q-50 -54 -135 -54q-84 0 -140 56t-56 145q0 96 66 164q67 69 168 69q111 0 173 -80q59 -76 59 -197zM367 409q0 64 -23 107
q-28 49 -83 49q-23 0 -41 -10t-31 -27.5t-20 -41t-7 -50.5q0 -51 26.5 -83t74.5 -32q67 0 97 50q7 11 7 38z" />
    <glyph glyph-name="colon" unicode=":" horiz-adv-x="241" 
d="M208 404q0 -36 -22 -58.5t-58 -22.5q-34 0 -55.5 23t-21.5 58t22 58.5t57 23.5t56.5 -23.5t21.5 -58.5zM207 70q0 -36 -22 -58.5t-58 -22.5q-34 0 -55.5 23.5t-21.5 57.5q0 35 22 58.5t57 23.5t56.5 -23t21.5 -59z" />
    <glyph glyph-name="semicolon" unicode=";" horiz-adv-x="241" 
d="M214 404q0 -36 -22 -58.5t-58 -22.5q-34 0 -55.5 23t-21.5 58t22 58.5t57 23.5t56.5 -23.5t21.5 -58.5zM209 157q-52 -165 -115 -270l-87 -8q23 66 40 132.5t28 135.5z" />
    <glyph glyph-name="less" unicode="&#x3c;" horiz-adv-x="596" 
d="M536 0l-476 229v74l476 229v-94l-373 -171v-2l373 -172v-93z" />
    <glyph glyph-name="equal" unicode="=" horiz-adv-x="596" 
d="M556 329h-516v81h516v-81zM556 126h-516v82h516v-82z" />
    <glyph glyph-name="greater" unicode="&#x3e;" horiz-adv-x="596" 
d="M536 226l-476 -226v93l380 172v2l-380 172v93l476 -226v-80z" />
    <glyph glyph-name="question" unicode="?" horiz-adv-x="425" 
d="M386 533q0 -49 -27 -95q-8 -13 -22.5 -32t-35.5 -44q-54 -61 -52 -132l1 -21h-114l-2 25q-4 85 60 164q61 73 61 116q0 66 -80 68q-56 2 -97 -29l-30 93q62 40 156 40q89 0 138 -46q44 -42 44 -107zM269 70q0 -36 -22 -58.5t-58 -22.5q-34 0 -55.5 23t-21.5 58t21.5 58
t56.5 23q36 0 57.5 -23t21.5 -58z" />
    <glyph glyph-name="at" unicode="@" horiz-adv-x="749" 
d="M708 398q0 -110 -52 -175q-53 -65 -131 -65t-82 81h-2q-50 -81 -132 -81q-48 0 -78.5 34t-30.5 94q0 96 64 163q67 72 169 72q70 0 114 -23l-32 -185q-2 -14 -3.5 -25.5t-1.5 -21.5q0 -46 32 -48q38 -2 67 43q32 50 32 132q0 104 -60 169q-65 68 -176 68q-121 0 -203 -87
q-86 -92 -86 -234q0 -124 70 -194t183 -70q83 0 146 33l16 -52q-75 -37 -179 -37q-126 0 -214 83q-91 88 -91 230q0 158 101 268q105 115 267 115q128 0 211 -81q82 -81 82 -206zM455 446q-17 6 -36 6q-54 0 -93 -47q-38 -47 -38 -110q0 -66 54 -66q32 0 60 34t36 80z" />
    <glyph glyph-name="A" unicode="A" horiz-adv-x="629" 
d="M606 0h-139l-57 185h-204l-53 -185h-134l210 674h165zM390 283l-49 159l-33 129h-3q-5 -22 -12.5 -54t-18.5 -75l-47 -159h163z" />
    <glyph glyph-name="B" unicode="B" horiz-adv-x="575" 
d="M537 195q0 -83 -65 -139q-74 -63 -251 -63q-88 0 -152 9v663q73 14 181 14q126 0 192 -42q71 -45 71 -128q0 -105 -111 -145v-2q57 -15 95 -57q40 -44 40 -110zM383 495q0 89 -119 89q-43 0 -67 -6v-178h58q60 0 94 26t34 69zM401 200q0 53 -43 81q-40 26 -104 26h-57
v-213q18 -3 62 -3q61 0 99 24q43 28 43 85z" />
    <glyph glyph-name="C" unicode="C" horiz-adv-x="577" 
d="M522 552q-54 25 -126 25q-100 0 -161 -61q-64 -64 -64 -181q0 -111 59 -174t165 -63q74 0 128 23l21 -102q-60 -29 -169 -29q-158 0 -250 92q-90 93 -90 247q0 165 103 262q97 93 253 93q104 0 159 -29z" />
    <glyph glyph-name="D" unicode="D" horiz-adv-x="672" 
d="M637 353q0 -177 -105 -270q-101 -90 -300 -90q-94 0 -163 9v663q43 7 91 10.5t102 3.5q178 0 269 -73q106 -85 106 -253zM501 349q0 112 -58.5 170.5t-167.5 58.5q-46 0 -77 -6v-473q16 -3 62 -3q115 -1 178 63t63 190z" />
    <glyph glyph-name="E" unicode="E" horiz-adv-x="511" 
d="M474 0h-405v674h390v-107h-261v-165h247v-106h-247v-189h276v-107z" />
    <glyph glyph-name="F" unicode="F" horiz-adv-x="504" 
d="M457 567h-259v-179h241v-105h-241v-283h-129v674h388v-107z" />
    <glyph glyph-name="G" unicode="G" horiz-adv-x="656" 
d="M603 30q-102 -37 -214 -37q-168 0 -260 89q-95 91 -94 248q0 160 104 258q102 93 267 93q113 0 176 -31l-28 -105q-62 28 -149 28q-105 0 -168 -60q-66 -63 -66 -176q0 -56 16 -100t45 -75t70 -47t91 -16q57 0 84 11v163h-111v102h237v-345z" />
    <glyph glyph-name="H" unicode="H" horiz-adv-x="665" 
d="M596 0h-130v293h-268v-293h-129v674h129v-268h268v268h130v-674z" />
    <glyph glyph-name="I" unicode="I" horiz-adv-x="267" 
d="M198 0h-129v674h129v-674z" />
    <glyph glyph-name="J" unicode="J" horiz-adv-x="390" 
d="M327 237q0 -248 -224 -248q-61 0 -103 16l15 104q38 -11 74 -11q54 0 80 29q29 34 29 113v434h129v-437z" />
    <glyph glyph-name="K" unicode="K" horiz-adv-x="580" 
d="M585 0h-150l-180 303l-58 -70v-233h-128v674h128v-307h3q13 20 25 38.5t23 35.5l165 233h159l-225 -287z" />
    <glyph glyph-name="L" unicode="L" horiz-adv-x="489" 
d="M467 0h-398v674h129v-565h269v-109z" />
    <glyph glyph-name="M" unicode="M" horiz-adv-x="818" 
d="M766 0h-126l-13 269q-4 88 -6 157t-1 122h-3q-14 -58 -33.5 -121.5t-42.5 -134.5l-93 -283h-99l-84 279q-19 65 -35 129.5t-30 130.5h-2q-5 -164 -12 -282l-14 -266h-120l45 674h169l80 -259q17 -54 32 -113t29 -124h2q34 142 66 237l86 259h166z" />
    <glyph glyph-name="N" unicode="N" horiz-adv-x="668" 
d="M599 0h-134l-164 286q-36 64 -65 121.5t-52 111.5l-3 -1q4 -60 5.5 -132.5t1.5 -157.5v-228h-119v674h147l162 -279q62 -108 111 -226l2 1q-5 59 -8 129t-3 153v222h119v-674z" />
    <glyph glyph-name="O" unicode="O" horiz-adv-x="692" 
d="M657 344q0 -154 -80 -252q-85 -103 -237 -103q-143 0 -227 102q-78 94 -78 241q0 150 82 248q87 105 233 105q144 0 228 -101q79 -94 79 -240zM519 339q0 93 -39 161q-47 81 -134 81q-90 0 -136 -82q-40 -67 -40 -164q0 -94 40 -161q48 -81 136 -81t135 83q38 68 38 163z
" />
    <glyph glyph-name="P" unicode="P" horiz-adv-x="556" 
d="M523 474q0 -98 -58 -155q-74 -72 -211 -72q-32 0 -57 5v-252h-128v665q82 14 189 14q133 0 199 -54.5t66 -150.5zM394 469q0 54 -33.5 82.5t-96.5 28.5q-42 0 -67 -6v-221q22 -5 56 -5q66 0 103.5 32t37.5 89z" />
    <glyph glyph-name="Q" unicode="Q" horiz-adv-x="692" 
d="M625 -110q-61 17 -124.5 39t-132.5 50q-22 8 -44 10q-123 8 -202 92q-87 94 -87 250t87 255t230 99q141 0 225 -100q80 -95 80 -240q0 -115 -47 -200q-44 -77 -119 -109v-4q35 -10 77.5 -19.5t93.5 -20.5zM520 339q0 93 -38 161q-47 81 -134 81q-89 0 -137 -82
q-40 -67 -40 -164q0 -94 40 -161q48 -81 136 -81t135 83q38 68 38 163z" />
    <glyph glyph-name="R" unicode="R" horiz-adv-x="567" 
d="M414 0q-18 33 -45 159q-14 65 -40 90t-76 25h-56v-274h-128v665q40 7 86.5 10.5t100.5 3.5q142 0 207 -54q59 -48 59 -137q0 -61 -37 -107q-33 -42 -83 -60v-3q66 -26 92 -130l29 -115q16 -57 24 -73h-133zM393 477q0 104 -124 104q-47 0 -72 -5v-207h67q60 0 94.5 29.5
t34.5 78.5z" />
    <glyph glyph-name="S" unicode="S" horiz-adv-x="515" 
d="M477 194q0 -89 -64 -144q-69 -60 -193 -60q-110 0 -180 41l27 108q73 -42 161 -42q57 0 87 23.5t30 63.5q0 37 -26.5 61t-89.5 48q-179 66 -179 196q0 84 65 140q65 55 175 55q94 0 160 -33l-30 -104q-61 31 -133 31q-53 0 -81 -24q-25 -21 -25 -53q0 -35 30 -59
q27 -20 95 -48q171 -68 171 -200z" />
    <glyph glyph-name="T" unicode="T" horiz-adv-x="521" 
d="M511 565h-187v-565h-129v565h-185v109h501v-109z" />
    <glyph glyph-name="U" unicode="U" horiz-adv-x="658" 
d="M590 288q0 -150 -70.5 -224.5t-196.5 -74.5q-255 0 -255 299v386h129v-395q0 -185 130 -185q133 0 133 185v395h130v-386z" />
    <glyph glyph-name="V" unicode="V" horiz-adv-x="599" 
d="M596 674l-227 -674h-148l-214 674h142l87 -301q44 -156 63 -244h2q11 51 26.5 110.5t37.5 131.5l93 303h138z" />
    <glyph glyph-name="W" unicode="W" horiz-adv-x="860" 
d="M849 674l-176 -674h-138l-66 307q-25 116 -36 212h-2q-15 -98 -42 -213l-74 -306h-140l-160 674h138l60 -298q9 -48 19.5 -106t21.5 -129h2q7 45 18.5 103.5t28.5 133.5l68 296h135l62 -302q13 -60 22.5 -117t17.5 -111h2q8 57 19 115.5t24 118.5l64 296h132z" />
    <glyph glyph-name="X" unicode="X" horiz-adv-x="586" 
d="M568 0h-149l-68 131l-64 125h-2q-5 -13 -19.5 -43.5t-37.5 -81.5l-63 -131h-147l194 342l-187 332h148l68 -135q27 -53 53 -112h2q13 31 25 59t25 53l67 135h147l-191 -329z" />
    <glyph glyph-name="Y" unicode="Y" horiz-adv-x="570" 
d="M566 674l-219 -391v-283h-129v279l-209 395h148l75 -170q17 -39 31 -72t25 -61h2q11 29 24.5 62.5t30.5 71.5l76 169h145z" />
    <glyph glyph-name="Z" unicode="Z" horiz-adv-x="556" 
d="M527 0h-502v72l330 494h-301v108h468v-77l-325 -489h330v-108z" />
    <glyph glyph-name="bracketleft" unicode="[" horiz-adv-x="301" 
d="M267 -112h-195v798h195v-74h-100v-650h100v-74z" />
    <glyph glyph-name="backslash" unicode="\" horiz-adv-x="339" 
d="M330 -40h-89l-234 725h89z" />
    <glyph glyph-name="bracketright" unicode="]" horiz-adv-x="301" 
d="M229 -112h-195v74h100v650h-100v74h195v-798z" />
    <glyph glyph-name="asciicircum" unicode="^" horiz-adv-x="596" 
d="M547 181h-95l-153 367h-3l-153 -367h-94l208 469h82z" />
    <glyph glyph-name="underscore" unicode="_" horiz-adv-x="500" 
d="M500 -125h-500v50h500v-50z" />
    <glyph glyph-name="grave" unicode="`" horiz-adv-x="300" 
d="M221 546h-88l-121 148h124z" />
    <glyph glyph-name="a" unicode="a" horiz-adv-x="506" 
d="M335 0l-9 53h-3q-49 -64 -140 -64q-70 0 -113 45q-39 40 -39 101q0 91 74.5 138t208.5 47v8q0 79 -95 79q-71 0 -129 -35l-25 83q70 43 177 43q202 0 202 -206v-175q0 -38 1.5 -67t5.5 -50h-116zM318 237q-160 1 -160 -88q0 -68 67 -68q32 0 56.5 18.5t33.5 45.5
q3 10 3 27v65z" />
    <glyph glyph-name="b" unicode="b" horiz-adv-x="578" 
d="M543 252q0 -123 -68 -197q-62 -66 -149 -66q-100 0 -148 82h-2l-6 -71h-110q2 31 3 65.5t1 73.5v570h129v-285h2q48 74 150 74q87 0 143 -68q55 -67 55 -178zM412 246q0 67 -28 107q-32 44 -86 44q-23 0 -42 -9.5t-33 -25t-22 -36.5t-8 -44v-81q0 -23 8 -42.5t21.5 -34.5
t32.5 -23.5t42 -8.5q54 0 84.5 41t30.5 113z" />
    <glyph glyph-name="c" unicode="c" horiz-adv-x="441" 
d="M397 380q-39 17 -89 17q-66 0 -104 -43t-38 -110q0 -70 42 -112q39 -40 101 -40q49 0 91 18l17 -96q-51 -24 -134 -24q-114 0 -181 67q-68 68 -68 182q0 111 72 185q74 74 197 74q65 0 115 -21z" />
    <glyph glyph-name="d" unicode="d" horiz-adv-x="575" 
d="M400 0l-6 74h-2q-46 -85 -153 -85q-88 0 -145 69q-60 70 -60 181q0 120 64 191q62 68 150 68q95 0 131 -60h2v271h130v-570q0 -38 1 -73t3 -66h-115zM381 285q0 10 -0.5 17.5t-1.5 12.5q-8 37 -33 59q-29 24 -65 24q-55 0 -85.5 -43t-30.5 -112q0 -67 30 -108.5t84 -41.5
q48 0 77 36q25 32 25 81v75z" />
    <glyph glyph-name="e" unicode="e" horiz-adv-x="511" 
d="M479 262q0 -35 -4 -55h-317q3 -59 45 -90q40 -29 100 -29q72 0 131 22l19 -89q-72 -30 -169 -30q-59 0 -105 17t-78.5 49.5t-49.5 78t-17 102.5q0 107 60 181q66 80 177 80q106 0 162 -77q46 -64 46 -160zM358 297q0 43 -19 74q-25 40 -76 40q-49 0 -77 -39
q-23 -31 -28 -75h200z" />
    <glyph glyph-name="f" unicode="f" horiz-adv-x="321" 
d="M336 608q-24 9 -51 9q-77 0 -77 -104v-25h103v-96h-103v-392h-129v392h-66v96h66v20q0 108 59 164q49 48 128 48q43 0 78 -12z" />
    <glyph glyph-name="g" unicode="g" horiz-adv-x="566" 
d="M507 488q-2 -30 -3 -65.5t-1 -77.5v-275q0 -156 -72 -219q-67 -59 -188 -59q-103 0 -167 37l27 99q61 -37 139 -37q133 0 133 142v38h-2q-45 -68 -136 -68q-89 0 -146 67t-57 171q0 115 66 189q62 68 151 68q94 0 136 -73h2l5 63h113zM374 293q0 45 -26 75.5t-71 30.5
q-49 0 -80.5 -41t-31.5 -113q0 -63 30 -104t81 -41q71 0 92 69q6 18 6 43v81z" />
    <glyph glyph-name="h" unicode="h" horiz-adv-x="566" 
d="M504 0h-130v274q0 119 -87 119q-42 0 -68 -29.5t-26 -71.5v-292h-129v709h129v-285h2q51 74 142 74q71 0 116 -48q51 -56 51 -162v-288z" />
    <glyph glyph-name="i" unicode="i" horiz-adv-x="257" 
d="M204 633q0 -33 -21.5 -53t-55.5 -20q-32 0 -53 20.5t-21 52.5t21.5 52.5t54.5 20.5q32 0 53.5 -20.5t21.5 -52.5zM193 0h-129v488h129v-488z" />
    <glyph glyph-name="j" unicode="j" horiz-adv-x="271" 
d="M220 633q0 -33 -22 -53t-55 -20q-32 0 -53 20.5t-21 52.5t21.5 52.5t54.5 20.5q32 0 53.5 -20.5t21.5 -52.5zM209 52q0 -147 -64 -208q-60 -57 -173 -57l-13 102q63 4 90 33q31 32 31 165v401h129v-436z" />
    <glyph glyph-name="k" unicode="k" horiz-adv-x="510" 
d="M522 0h-158l-131 211l-40 -48v-163h-129v709h129v-434h2q10 17 19.5 31.5t17.5 26.5l111 155h154l-175 -200z" />
    <glyph glyph-name="l" unicode="l" horiz-adv-x="257" 
d="M193 0h-129v709h129v-709z" />
    <glyph glyph-name="m" unicode="m" horiz-adv-x="839" 
d="M776 0h-126v270q0 123 -81 123q-59 0 -80 -61q-6 -17 -6 -40v-292h-126v282q0 111 -79 111q-59 0 -82 -65q-6 -17 -6 -40v-288h-126v340q0 34 -1 71t-3 77h110l6 -70h3q51 80 147 80q98 0 133 -87h2q24 37 60 60q40 27 95 27q69 0 111 -48q49 -55 49 -161v-289z" />
    <glyph glyph-name="n" unicode="n" horiz-adv-x="566" 
d="M504 0h-130v276q0 117 -86 117q-21 0 -38.5 -8.5t-30 -23.5t-19.5 -34.5t-7 -40.5v-286h-129v340q0 34 -1 71t-3 77h113l6 -71h3q48 81 151 81q72 0 119 -47q52 -55 52 -160v-291z" />
    <glyph glyph-name="o" unicode="o" horiz-adv-x="557" 
d="M523 248q0 -114 -67 -187q-68 -72 -180 -72q-110 0 -176 70t-66 181q0 116 67 186q67 72 183 72q110 0 174 -70q65 -71 65 -180zM389 245q0 61 -24 105q-30 54 -86 54q-58 0 -88 -54q-25 -43 -25 -107q0 -63 25 -106q30 -54 88 -54q56 0 86 56q24 45 24 106z" />
    <glyph glyph-name="p" unicode="p" horiz-adv-x="578" 
d="M543 250q0 -124 -68 -197q-60 -64 -149 -64q-92 0 -131 62h-2v-249h-129v524q0 38 -1 78.5t-3 83.5h113l6 -73h2q56 83 162 83q85 0 142 -68q58 -67 58 -180zM412 244q0 67 -29.5 109.5t-83.5 42.5q-44 0 -76 -35q-30 -35 -30 -81v-77q0 -48 27 -79q29 -35 76 -35
q54 0 85 42.5t31 112.5z" />
    <glyph glyph-name="q" unicode="q" horiz-adv-x="574" 
d="M515 488q-2 -48 -3 -83.5t-1 -60.5v-542h-129v262h-3q-47 -75 -145 -75q-83 0 -140 67q-60 70 -60 180q0 124 69 198q60 64 145 64q95 0 137 -72l2 -1l4 63h124zM382 287q0 22 -7.5 42t-20.5 35t-32 24t-41 9q-54 0 -84.5 -43t-30.5 -112q0 -67 29.5 -108.5t83.5 -41.5
q34 0 60.5 20.5t36.5 55.5q6 18 6 36v83z" />
    <glyph glyph-name="r" unicode="r" horiz-adv-x="357" 
d="M341 373q-16 4 -37 4q-55 0 -83 -35.5t-28 -90.5v-251h-129l1 331q0 45 -1 84t-3 73h112l5 -91h3q16 46 55 76q34 25 76 25q8 0 15.5 -0.5t13.5 -1.5v-123z" />
    <glyph glyph-name="s" unicode="s" horiz-adv-x="414" 
d="M381 144q0 -71 -51 -111q-53 -43 -148 -43q-89 0 -148 34l25 93q58 -35 123 -35q74 0 74 51q0 24 -16.5 38.5t-59.5 29.5q-134 48 -134 143q0 66 51 110q52 44 135 44q77 0 129 -28l-25 -91q-49 28 -101 28q-65 0 -65 -49q0 -21 18 -34.5t64 -30.5q127 -46 129 -149z" />
    <glyph glyph-name="t" unicode="t" horiz-adv-x="351" 
d="M325 392h-114v-208q0 -88 62 -88q14 0 25 1.5t21 3.5l2 -99q-35 -12 -91 -12q-69 0 -107.5 40.5t-38.5 137.5v224h-67v96h67v90l127 36v-126h114v-96z" />
    <glyph glyph-name="u" unicode="u" horiz-adv-x="563" 
d="M390 0l-6 71h-3q-49 -82 -152 -82q-75 0 -118 48q-49 53 -49 164v287h129v-266q0 -127 85 -127q62 0 87 61q6 16 6 37v295h130v-340q0 -37 1 -73.5t3 -74.5h-113z" />
    <glyph glyph-name="v" unicode="v" horiz-adv-x="505" 
d="M496 488l-182 -488h-127l-177 488h140l74 -242q8 -29 16 -59.5t15 -62.5h3q6 30 13.5 60.5t17.5 61.5l71 242h136z" />
    <glyph glyph-name="w" unicode="w" horiz-adv-x="741" 
d="M729 488l-150 -488h-120l-54 191q-10 35 -18.5 74t-16.5 81h-2q-7 -42 -15.5 -80.5t-19.5 -73.5l-58 -192h-120l-142 488h132l47 -216q18 -81 30 -158h2q5 29 14.5 68.5t23.5 88.5l60 217h104l56 -211q12 -44 21.5 -84.5t16.5 -78.5h2q5 40 13 80.5t18 82.5l49 211h127z
" />
    <glyph glyph-name="x" unicode="x" horiz-adv-x="492" 
d="M485 0h-146l-55 95q-21 34 -42 78h-2q-8 -16 -18 -35.5t-23 -42.5l-53 -95h-141l164 248l-159 240h144l54 -90l42 -75h2q12 24 22.5 43.5t18.5 33.5l50 88h140l-159 -234z" />
    <glyph glyph-name="y" unicode="y" horiz-adv-x="497" 
d="M492 488l-117 -332q-85 -238 -167 -312q-61 -55 -131 -64l-30 109q33 8 71.5 34t62.5 71q8 16 8 22q0 7 -6 24l-176 448h143l82 -257q5 -16 11.5 -39t14.5 -54h3q4 16 10 39.5t14 54.5l70 256h137z" />
    <glyph glyph-name="z" unicode="z" horiz-adv-x="447" 
d="M427 0h-407v75l173 225q10 13 27.5 33.5t43.5 48.5v2h-226v104h383v-80l-168 -218q-17 -23 -35 -44t-37 -41v-2h246v-103z" />
    <glyph glyph-name="braceleft" unicode="{" horiz-adv-x="301" 
d="M271 -112h-29q-149 0 -149 137q0 26 6 79q6 52 6 80q0 68 -76 69v68q76 1 76 70q0 27 -6 80q-6 54 -6 81q0 134 149 134h29v-75h-17q-67 0 -67 -75q0 -11 1.5 -28t3.5 -39q3 -22 4.5 -38.5l2.5 -27.5q1 -95 -81 -114v-2q82 -19 81 -115l-2.5 -27.5t-4.5 -38.5
q-2 -22 -3.5 -39t-1.5 -28q0 -77 67 -77h17v-74z" />
    <glyph glyph-name="bar" unicode="|" horiz-adv-x="264" 
d="M179 -250h-93v1000h93v-1000z" />
    <glyph glyph-name="braceright" unicode="}" horiz-adv-x="301" 
d="M272 253q-76 -1 -76 -69q0 -28 6 -80q6 -53 6 -79q0 -137 -149 -137h-29v74h17q67 0 67 77q0 23 -6 67q-6 43 -6 66q-1 96 81 115v2q-83 19 -81 114q0 22 6 66q6 43 6 67q0 75 -67 75h-17v75h29q149 0 149 -134q0 -27 -6 -81q-6 -53 -6 -80q0 -69 76 -70v-68z" />
    <glyph glyph-name="asciitilde" unicode="~" horiz-adv-x="596" 
d="M550 367q7 -175 -126 -175q-53 0 -141 47q-79 43 -103 43q-46 0 -51 -83h-83q-1 86 37 132q35 41 95 41q52 0 140 -46q77 -41 105 -41q43 0 44 82h83z" />
    <glyph glyph-name="uni007F" horiz-adv-x="500" 
 />
    <glyph glyph-name="nonbreakingspace" unicode="&#xa0;" horiz-adv-x="232" 
 />
    <glyph glyph-name="exclamdown" unicode="&#xa1;" horiz-adv-x="253" 
d="M205 411q0 -35 -21.5 -57.5t-56.5 -22.5t-57 22.5t-22 57.5q0 36 22.5 58.5t57.5 22.5t56 -23t21 -58zM195 -192h-136l19 461h98z" />
    <glyph glyph-name="cent" unicode="&#xa2;" horiz-adv-x="532" 
d="M458 110q-20 -10 -45.5 -16.5t-56.5 -8.5v-97h-85v99q-90 13 -144 73q-56 65 -56 167q0 94 53 162q55 68 147 85v97h86v-93q53 -1 97 -21l-22 -96q-38 20 -93 20q-31 0 -56 -11t-43 -31t-27.5 -47.5t-9.5 -60.5q0 -70 40 -110q38 -38 96 -38q53 0 102 20z" />
    <glyph glyph-name="sterling" unicode="&#xa3;" horiz-adv-x="532" 
d="M487 0h-436v71q23 10 42 25.5t35 35.5q34 44 34 95q0 28 -3 51h-98v89h83q-9 51 -9 91q0 92 58 147q59 56 154 56q70 0 112 -24l-22 -98q-35 18 -85 18q-96 0 -96 -103q0 -40 10 -87h137v-89h-126q3 -53 -7 -86q-15 -49 -55 -84v-2h272v-106z" />
    <glyph glyph-name="currency" unicode="&#xa4;" horiz-adv-x="532" 
d="M470 533q-46 28 -94 28q-96 0 -128 -125h200l-15 -63h-195q-1 -13 -1.5 -26t-0.5 -27v-30h179l-15 -63h-157q25 -139 132 -139q44 0 87 28l18 -93q-55 -34 -120 -34q-102 0 -167 65q-61 61 -79 173h-82l14 63h61v27q0 14 0.5 28t1.5 28h-77l14 63h73q25 109 92 167
t161 58q76 0 123 -32z" />
    <glyph glyph-name="yen" unicode="&#xa5;" horiz-adv-x="532" 
d="M526 650l-171 -291h122v-63h-155v-67h155v-64h-155v-165h-122v165h-153v64h153v67h-153v63h122l-162 291h138l80 -176q8 -16 17.5 -42t22.5 -61h2q6 17 16.5 43t25.5 61l82 175h135z" />
    <glyph glyph-name="brokenbar" unicode="&#xa6;" horiz-adv-x="264" 
d="M179 325h-93v350h93v-350zM179 -175h-93v350h93v-350z" />
    <glyph glyph-name="section" unicode="&#xa7;" horiz-adv-x="538" 
d="M490 297q0 -73 -69 -122q42 -33 42 -90q0 -79 -70 -122q-58 -35 -139 -35q-110 0 -174 43l27 80q65 -41 143 -41q96 0 96 62q0 28 -24.5 46t-85.5 39q-94 31 -133 61q-55 40 -55 106q0 76 80 120q-39 31 -39 88q0 70 59 112q57 39 146 39q86 0 148 -31l-23 -80
q-56 29 -125 29q-93 0 -93 -57q0 -26 29 -44q21 -15 82 -34q88 -28 127 -60q51 -41 51 -109zM389 278q0 51 -76 79q-23 8 -54.5 20.5t-70.5 29.5q-39 -24 -39 -62q0 -49 93 -82q46 -17 114 -45q33 21 33 60z" />
    <glyph glyph-name="dieresis" unicode="&#xa8;" horiz-adv-x="300" 
d="M308 612q0 -27 -17.5 -44.5t-43.5 -17.5t-43 18t-17 44t17.5 43.5t43.5 17.5t43 -17.5t17 -43.5zM113 612q0 -27 -17.5 -44.5t-43.5 -17.5q-25 0 -43 18t-18 44t18 43.5t45 17.5q25 0 42 -17.5t17 -43.5z" />
    <glyph glyph-name="copyright" unicode="&#xa9;" horiz-adv-x="677" 
d="M644 340q0 -129 -88 -220q-89 -90 -216 -90q-130 0 -218 90q-89 92 -89 220t90 218t218 90q127 0 215 -91q88 -89 88 -217zM585 339q0 105 -71 181q-70 76 -175 76t-175 -76t-70 -182q0 -104 71 -181q70 -75 175 -75t175 76t70 181zM478 184q-46 -31 -123 -31
q-42 0 -76 13.5t-58 37.5t-37 57.5t-13 72.5q0 84 58 136q56 50 135 50q81 0 110 -27l-14 -50q-41 23 -96 23q-63 0 -96 -34.5t-33 -94.5q0 -57 34.5 -93.5t94.5 -36.5q63 0 100 25z" />
    <glyph glyph-name="ordfeminine" unicode="&#xaa;" horiz-adv-x="362" 
d="M243 266l-6 36h-2q-39 -41 -98 -41q-48 0 -76 27.5t-28 69.5q0 57 50 86t141 29h4v8q0 46 -64 46q-52 0 -89 -25l-18 57q53 32 123 32q139 0 139 -140v-107q0 -25 1.5 -44.5t3.5 -33.5h-81zM231 419h-6q-103 0 -103 -54q0 -19 13.5 -31t33.5 -12q38 0 55 32q7 10 7 23v42
z" />
    <glyph glyph-name="guillemotleft" unicode="&#xab;" horiz-adv-x="444" 
d="M422 64h-93l-120 188l120 188h93l-123 -188zM240 64h-93l-120 188l120 188h93l-123 -188z" />
    <glyph glyph-name="logicalnot" unicode="&#xac;" horiz-adv-x="596" 
d="M556 111h-85v222h-431v82h516v-304z" />
    <glyph glyph-name="uni00AD" unicode="&#xad;" horiz-adv-x="313" 
d="M283 221h-253v89h253v-89z" />
    <glyph glyph-name="registered" unicode="&#xae;" horiz-adv-x="510" 
d="M479 459q0 -93 -65 -160q-65 -66 -158 -66q-94 0 -160 66q-65 67 -65 160q0 94 66 159q66 66 160 66q92 0 157 -66q65 -67 65 -159zM431 459q0 75 -51 129q-50 54 -125 54q-74 0 -123 -55q-50 -55 -50 -128q0 -74 50 -130q49 -54 125 -54q74 0 124 54q50 55 50 130z
M306 328q-7 12 -15 65q-6 40 -50 40h-25v-105h-49v251q45 6 77 6q59 0 84 -19q22 -16 22 -54q0 -46 -48 -59v-2q34 -6 41 -61q4 -43 14 -62h-51zM299 509q0 39 -54 39h-17t-12 -1v-76h26q57 0 57 38z" />
    <glyph glyph-name="macron" unicode="&#xaf;" horiz-adv-x="300" 
d="M270 583h-239v69h239v-69z" />
    <glyph glyph-name="degree" unicode="&#xb0;" horiz-adv-x="339" 
d="M315 546q0 -61 -43 -101q-43 -41 -102 -41t-101 39q-42 40 -42 99q0 61 42 102q44 41 104 41q61 0 101 -40q41 -39 41 -99zM246 545q0 34 -20.5 56.5t-54.5 22.5q-32 0 -52 -24t-20 -57q0 -32 20.5 -55t52.5 -23q33 0 53.5 23.5t20.5 56.5z" />
    <glyph glyph-name="plusminus" unicode="&#xb1;" horiz-adv-x="596" 
d="M556 314h-215v-184h-86v184h-215v82h215v180h86v-180h215v-82zM556 0h-516v81h516v-81z" />
    <glyph glyph-name="twosuperior" unicode="&#xb2;" horiz-adv-x="363" 
d="M329 266h-292v49l61 57q34 32 56 53t32 33q30 39 30 68q0 56 -63 56q-43 0 -84 -29l-27 66q55 42 135 42q70 0 109 -36q36 -32 36 -82q0 -49 -36 -95q-20 -25 -84 -82l-26 -22v-2h153v-76z" />
    <glyph glyph-name="threesuperior" unicode="&#xb3;" horiz-adv-x="358" 
d="M328 379q0 -52 -46.5 -85t-125.5 -33t-125 27l21 68q43 -25 94 -25q35 0 55.5 15.5t20.5 37.5q0 28 -27 42.5t-65 14.5h-28v60h27q28 0 53 11q28 13 28 38q0 41 -55 41q-47 0 -87 -25l-20 64q49 31 129 31q63 0 99 -26t36 -71q0 -64 -79 -89v-2q42 -5 68.5 -31t26.5 -63z
" />
    <glyph glyph-name="acute" unicode="&#xb4;" horiz-adv-x="300" 
d="M295 694l-121 -148h-88l85 148h124z" />
    <glyph glyph-name="mu" unicode="&#xb5;" horiz-adv-x="563" 
d="M390 0l-6 73h-3q-44 -81 -129 -81q-53 0 -79 38h-3v-228h-108v686h129v-267q0 -125 86 -125q36 0 65 29q24 25 27 56v307h130v-340q0 -37 1 -73.5t3 -74.5h-113z" />
    <glyph glyph-name="paragraph" unicode="&#xb6;" horiz-adv-x="525" 
d="M449 -48h-84v644h-70v-644h-84v312h-6q-58 0 -110 46q-62 54 -63 142q-2 95 55 152q73 73 230 73q88 0 132 -9v-716z" />
    <glyph glyph-name="periodcentered" unicode="&#xb7;" horiz-adv-x="241" 
d="M199 272q0 -36 -22 -59t-58 -23q-34 0 -55.5 23.5t-21.5 58.5t22 58.5t57 23.5t56.5 -23t21.5 -59z" />
    <glyph glyph-name="cedilla" unicode="&#xb8;" horiz-adv-x="300" 
d="M241 -117q0 -85 -115 -85q-48 0 -76 19l18 51q27 -15 55 -15q37 0 37 27q0 33 -77 38l44 86h71l-28 -50q28 -4 49 -22q22 -21 22 -49z" />
    <glyph glyph-name="onesuperior" unicode="&#xb9;" horiz-adv-x="347" 
d="M247 266h-100v307h-2l-76 -35l-15 71l106 47h87v-390z" />
    <glyph glyph-name="ordmasculine" unicode="&#xba;" horiz-adv-x="371" 
d="M348 428q0 -75 -44.5 -121t-119.5 -46q-71 0 -117 45q-45 45 -45 117q0 75 46 121q47 47 120 47q36 0 65.5 -12t50.5 -33.5t32.5 -51.5t11.5 -66zM256 426q0 38 -16 66q-20 33 -55 33q-34 0 -54 -35q-15 -29 -15 -66q0 -35 17 -64q19 -33 53 -33q35 0 55 33q15 27 15 66z
" />
    <glyph glyph-name="guillemotright" unicode="&#xbb;" horiz-adv-x="444" 
d="M416 252l-121 -188h-92l122 188l-123 188h93zM236 252l-121 -188h-93l123 188l-123 188h93z" />
    <glyph glyph-name="onequarter" unicode="&#xbc;" horiz-adv-x="797" 
d="M761 94h-54v-94h-93v94h-194v55l176 245h111v-234h54v-66zM602 661l-370 -672h-74l371 672h73zM229 266h-100v307h-1l-77 -35l-14 71l105 47h87v-390zM615 318q-5 -11 -14 -26t-20 -35l-68 -96l1 -1h100v88q0 7 1 24.5t3 45.5h-3z" />
    <glyph glyph-name="onehalf" unicode="&#xbd;" horiz-adv-x="797" 
d="M755 0h-292v50l61 56q34 31 56 52.5t32 33.5q30 37 30 69q0 55 -63 55q-44 0 -84 -28l-27 65q55 42 136 42q67 0 108 -35q36 -32 36 -82t-36 -96q-23 -29 -84 -81l-26 -23v-2h153v-76zM579 661l-370 -672h-73l370 672h73zM216 266h-100v307h-1l-77 -35l-14 71l105 47h87
v-390z" />
    <glyph glyph-name="threequarters" unicode="&#xbe;" horiz-adv-x="797" 
d="M771 94h-54v-94h-93v94h-194v55l175 245h112v-234h54v-66zM634 661l-370 -672h-73l370 672h73zM324 379q0 -52 -46.5 -85t-124.5 -33q-80 0 -125 27l20 68q43 -25 95 -25q34 0 55 15.5t21 37.5q-1 28 -27.5 42.5t-65.5 14.5h-27v60h26q29 0 54 11q28 13 28 38
q0 41 -56 41q-44 0 -87 -25l-20 64q52 31 129 31q65 0 103 -29q33 -26 33 -68q0 -64 -79 -89v-2q42 -5 68 -31t26 -63zM625 318q-5 -11 -14 -26t-20 -35l-69 -96l2 -1h100v88q0 14 3 70h-2z" />
    <glyph glyph-name="questiondown" unicode="&#xbf;" horiz-adv-x="425" 
d="M319 411q0 -35 -22 -58t-57 -23q-34 0 -56 23t-22 58q0 36 22 58.5t57 22.5t56.5 -23t21.5 -58zM384 -164q-64 -40 -156 -40q-89 0 -138 46q-44 42 -44 107q0 48 27 95q8 13 22 32t36 44q52 58 52 128v4l-1 21h114l1 -25q0 -4 0.5 -7t0.5 -7q0 -77 -60 -150
q-61 -73 -61 -116q0 -68 84 -68q52 0 93 29z" />
    <glyph glyph-name="Agrave" unicode="&#xc0;" horiz-adv-x="629" 
d="M373 711h-101l-127 115h139zM606 0h-139l-57 185h-204l-53 -185h-134l210 674h165zM390 283l-49 159l-33 129h-3q-5 -22 -12.5 -54t-18.5 -75l-47 -159h163z" />
    <glyph glyph-name="Aacute" unicode="&#xc1;" horiz-adv-x="629" 
d="M484 833l-127 -123h-102l90 123h139zM606 0h-139l-57 185h-204l-53 -185h-134l210 674h165zM390 283l-49 159l-33 129h-3q-5 -22 -12.5 -54t-18.5 -75l-47 -159h163z" />
    <glyph glyph-name="Acircumflex" unicode="&#xc2;" horiz-adv-x="629" 
d="M466 710h-93l-54 69h-2l-53 -69h-92l101 123h91zM606 0h-139l-57 185h-204l-53 -185h-134l210 674h165zM390 283l-49 159l-33 129h-3q-5 -22 -12.5 -54t-18.5 -75l-47 -159h163z" />
    <glyph glyph-name="Atilde" unicode="&#xc3;" horiz-adv-x="629" 
d="M450 834v-8q0 -105 -74 -105q-30 0 -64 18q-36 20 -44 19q-20 0 -24 -43h-61v10q0 51 20 78t52 27q27 0 62 -20q31 -19 46 -19q23 0 27 43h60zM606 0h-139l-57 185h-204l-53 -185h-134l210 674h165zM390 283l-49 159l-33 129h-3q-5 -22 -12.5 -54t-18.5 -75l-47 -159h163
z" />
    <glyph glyph-name="Adieresis" unicode="&#xc4;" horiz-adv-x="629" 
d="M475 777q0 -26 -17.5 -43.5t-43.5 -17.5q-25 0 -42 18t-17 43q0 26 17 43.5t43 17.5t43 -17.5t17 -43.5zM280 777q0 -26 -17 -43.5t-43 -17.5q-25 0 -42.5 18t-17.5 43q0 26 17.5 43.5t43.5 17.5t42.5 -17.5t16.5 -43.5zM606 0h-139l-57 185h-204l-53 -185h-134l210 674
h165zM390 283l-49 159l-33 129h-3q-5 -22 -12.5 -54t-18.5 -75l-47 -159h163z" />
    <glyph glyph-name="Aring" unicode="&#xc5;" horiz-adv-x="629" 
d="M469 0l-57 185h-204l-53 -185h-133l208 670q-12 14 -19 32t-7 38q0 23 8.5 43t23.5 35t34.5 23.5t42.5 8.5t43 -8.5t35 -23.5t23.5 -35t8.5 -43q0 -20 -7 -38t-19 -32l211 -670h-139zM366 740q0 22 -15.5 37.5t-37.5 15.5q-21 0 -36.5 -15.5t-15.5 -37.5
q0 -21 15.5 -36.5t36.5 -15.5q22 0 37.5 15.5t15.5 36.5zM341 447q-3 10 -10.5 40t-21.5 84h-2q-8 -37 -15 -66.5t-14 -52.5l-51 -169h164z" />
    <glyph glyph-name="AE" unicode="&#xc6;" horiz-adv-x="824" 
d="M795 107v-107h-358l-25 202h-195l-83 -202h-133l288 674h474v-107h-273l19 -168h248v-106h-232l24 -186h246zM398 305l-20 174l-12 103h-3q-7 -18 -16 -44t-22 -60l-70 -173h143z" />
    <glyph glyph-name="Ccedilla" unicode="&#xc7;" horiz-adv-x="577" 
d="M522 552q-53 25 -126 25q-100 0 -161 -61q-64 -64 -64 -181q0 -112 59 -174.5t165 -62.5q73 0 128 23l23 -102q-56 -28 -170 -29l-21 -36q30 -4 50.5 -23.5t20.5 -48.5q0 -84 -114 -84q-46 0 -77 18l18 52q28 -15 55 -15q37 0 37 27q0 31 -77 39l40 76q-129 19 -201 108
q-72 88 -72 226q0 165 103 262q97 93 253 93q103 0 159 -29z" />
    <glyph glyph-name="Egrave" unicode="&#xc8;" horiz-adv-x="511" 
d="M339 711h-102l-127 122h139zM474 0h-405v674h390v-107h-261v-165h247v-106h-247v-189h276v-107z" />
    <glyph glyph-name="Eacute" unicode="&#xc9;" horiz-adv-x="511" 
d="M431 833l-126 -123h-102l90 123h138zM474 0h-405v674h390v-107h-261v-165h247v-106h-247v-189h276v-107z" />
    <glyph glyph-name="Ecircumflex" unicode="&#xca;" horiz-adv-x="511" 
d="M415 710h-94l-53 69h-2l-53 -69h-92l100 123h92zM474 0h-405v674h390v-107h-261v-165h247v-106h-247v-189h276v-107z" />
    <glyph glyph-name="Edieresis" unicode="&#xcb;" horiz-adv-x="511" 
d="M422 777q0 -26 -17.5 -43.5t-43.5 -17.5q-25 0 -42 18t-17 43q0 26 17.5 43.5t42.5 17.5q26 0 43 -17.5t17 -43.5zM227 777q0 -26 -17 -43.5t-43 -17.5q-25 0 -42.5 18t-17.5 43q0 26 18 43.5t43 17.5q26 0 42.5 -17.5t16.5 -43.5zM474 0h-405v674h390v-107h-261v-165
h247v-106h-247v-189h276v-107z" />
    <glyph glyph-name="Igrave" unicode="&#xcc;" horiz-adv-x="267" 
d="M198 711h-102l-126 122h138zM198 0h-129v674h129v-674z" />
    <glyph glyph-name="Iacute" unicode="&#xcd;" horiz-adv-x="267" 
d="M297 833l-126 -123h-102l90 123h138zM198 0h-129v674h129v-674z" />
    <glyph glyph-name="Icircumflex" unicode="&#xce;" horiz-adv-x="267" 
d="M281 710h-94l-53 69h-2l-53 -69h-92l100 123h92zM198 0h-129v674h129v-674z" />
    <glyph glyph-name="Idieresis" unicode="&#xcf;" horiz-adv-x="267" 
d="M291 777q0 -26 -17.5 -43.5t-43.5 -17.5q-25 0 -42 18t-17 43q0 26 17 43.5t43 17.5t43 -17.5t17 -43.5zM96 777q0 -26 -17 -43.5t-43 -17.5q-25 0 -42.5 18t-17.5 43q0 26 17.5 43.5t43.5 17.5t42.5 -17.5t16.5 -43.5zM198 0h-129v674h129v-674z" />
    <glyph glyph-name="Eth" unicode="&#xd0;" horiz-adv-x="679" 
d="M644 353q0 -178 -105 -272q-101 -90 -300 -90q-95 0 -164 9v293h-74v101h74v273q45 7 92.5 10.5t101.5 3.5q177 0 269 -74q106 -85 106 -254zM507 350q0 115 -58 173t-167 58q-48 0 -77 -7v-180h145v-101h-145v-196q16 -3 62 -3q115 0 177.5 63t62.5 193z" />
    <glyph glyph-name="Ntilde" unicode="&#xd1;" horiz-adv-x="668" 
d="M471 834q0 -57 -18 -85t-57 -28q-29 0 -63 18q-36 20 -44 19q-21 0 -25 -43h-60v11q0 51 19 77.5t53 26.5q27 0 62 -20q31 -19 45 -19q24 0 28 43h60zM599 0h-134l-164 286q-36 64 -65 121.5t-52 111.5l-3 -1q4 -60 5.5 -132.5t1.5 -157.5v-228h-119v674h147l162 -279
q62 -109 111 -226l2 1q-5 60 -8 129t-3 153v222h119v-674z" />
    <glyph glyph-name="Ograve" unicode="&#xd2;" horiz-adv-x="692" 
d="M408 711h-102l-126 122h138zM657 344q0 -154 -80 -252q-85 -103 -237 -103q-143 0 -227 102q-78 94 -78 241q0 151 82 248q87 105 233 105q144 0 228 -101q79 -94 79 -240zM519 339q0 93 -39 161q-47 81 -134 81q-90 0 -136 -82q-40 -67 -40 -164q0 -94 40 -161
q48 -81 136 -81t135 83q38 68 38 163z" />
    <glyph glyph-name="Oacute" unicode="&#xd3;" horiz-adv-x="692" 
d="M518 833l-127 -123h-102l90 123h139zM657 344q0 -154 -80 -252q-85 -103 -237 -103q-143 0 -227 102q-78 94 -78 241q0 150 82 248q87 105 233 105q144 0 228 -101q79 -94 79 -240zM519 339q0 93 -39 161q-47 81 -134 81q-90 0 -136 -82q-40 -67 -40 -164q0 -94 40 -161
q48 -81 136 -81t135 83q38 68 38 163z" />
    <glyph glyph-name="Ocircumflex" unicode="&#xd4;" horiz-adv-x="692" 
d="M493 710h-93l-53 69h-2l-54 -69h-92l101 123h92zM657 344q0 -154 -80 -252q-85 -103 -237 -103q-143 0 -227 102q-78 94 -78 241q0 150 82 248q87 105 233 105q144 0 228 -101q79 -94 79 -240zM519 339q0 93 -39 161q-47 81 -134 81q-90 0 -136 -82q-40 -67 -40 -164
q0 -94 40 -161q48 -81 136 -81t135 83q38 68 38 163z" />
    <glyph glyph-name="Otilde" unicode="&#xd5;" horiz-adv-x="692" 
d="M480 834q3 -113 -75 -113q-29 0 -63 18q-32 19 -44 19q-21 0 -24 -43h-61q-2 55 17.5 85t54.5 30q28 0 62 -20q32 -19 46 -19q23 0 27 43h60zM657 344q0 -154 -80 -252q-85 -103 -237 -103q-143 0 -227 102q-78 94 -78 241q0 150 82 248q87 105 233 105q144 0 228 -101
q79 -94 79 -240zM519 339q0 93 -39 161q-47 81 -134 81q-90 0 -136 -82q-40 -67 -40 -164q0 -94 40 -161q48 -81 136 -81t135 83q38 68 38 163z" />
    <glyph glyph-name="Odieresis" unicode="&#xd6;" horiz-adv-x="692" 
d="M503 777q0 -26 -17 -43.5t-44 -17.5q-25 0 -42 18t-17 43q0 26 17.5 43.5t43.5 17.5q25 0 42 -17.5t17 -43.5zM308 777q0 -26 -17 -43.5t-43 -17.5q-25 0 -42.5 18t-17.5 43q0 26 18 43.5t44 17.5q25 0 41.5 -17.5t16.5 -43.5zM657 344q0 -167 -88 -261q-87 -94 -228 -94
h-1q-139 0 -223 98q-82 94 -82 245q0 155 87 254q88 99 228 99q143 0 227 -99q80 -95 80 -242zM519 339q0 101 -43 168q-48 74 -130 74q-83 0 -131 -74q-45 -68 -45 -172q0 -103 46 -170q48 -72 129 -72h1q81 0 128 71q45 67 45 175z" />
    <glyph glyph-name="multiply" unicode="&#xd7;" horiz-adv-x="596" 
d="M556 467l-200 -204l200 -204l-58 -59l-200 204l-200 -204l-58 59l200 204l-200 204l57 59l201 -205l201 205z" />
    <glyph glyph-name="Oslash" unicode="&#xd8;" horiz-adv-x="692" 
d="M657 342q0 -165 -90 -261q-86 -92 -220 -92q-86 0 -150 40l-60 -87l-70 55l57 86q-89 98 -89 253q0 152 87 250q88 99 226 99q87 0 151 -40l55 80l74 -49l-57 -86q86 -95 86 -248zM439 550q-41 33 -92 33q-86 0 -135 -72q-47 -68 -47 -173q0 -72 32 -142l2 1zM527 339
q0 70 -29 134h-3l-238 -349q36 -33 89 -33q83 0 133 71q48 67 48 177z" />
    <glyph glyph-name="Ugrave" unicode="&#xd9;" horiz-adv-x="658" 
d="M398 711h-101l-127 122h138zM590 288q0 -150 -70.5 -224.5t-196.5 -74.5q-255 0 -255 299v386h129v-395q0 -185 130 -185q133 0 133 185v395h130v-386z" />
    <glyph glyph-name="Uacute" unicode="&#xda;" horiz-adv-x="658" 
d="M497 833l-127 -123h-101l89 123h139zM590 288q0 -150 -70.5 -224.5t-196.5 -74.5q-255 0 -255 299v386h129v-395q0 -185 130 -185q133 0 133 185v395h130v-386z" />
    <glyph glyph-name="Ucircumflex" unicode="&#xdb;" horiz-adv-x="658" 
d="M485 710h-93l-54 69h-2l-53 -69h-92l101 123h91zM590 288q0 -150 -70.5 -224.5t-196.5 -74.5q-255 0 -255 299v386h129v-395q0 -185 130 -185q133 0 133 185v395h130v-386z" />
    <glyph glyph-name="Udieresis" unicode="&#xdc;" horiz-adv-x="658" 
d="M491 777q0 -26 -17.5 -43.5t-43.5 -17.5q-25 0 -42.5 18t-17.5 43q0 26 17.5 43.5t43.5 17.5t43 -17.5t17 -43.5zM296 777q0 -26 -17 -43.5t-43 -17.5q-25 0 -42.5 18t-17.5 43q0 26 17.5 43.5t43.5 17.5t42.5 -17.5t16.5 -43.5zM590 288q0 -150 -70.5 -224.5
t-196.5 -74.5q-255 0 -255 299v386h129v-395q0 -185 130 -185q133 0 133 185v395h130v-386z" />
    <glyph glyph-name="Yacute" unicode="&#xdd;" horiz-adv-x="570" 
d="M464 833l-127 -123h-101l90 123h138zM566 674l-219 -391v-283h-129v279l-209 395h148l75 -170q17 -39 31 -72t25 -61h2q11 29 24.5 62.5t30.5 71.5l76 169h145z" />
    <glyph glyph-name="Thorn" unicode="&#xde;" horiz-adv-x="555" 
d="M522 360q0 -113 -75 -171q-68 -53 -182 -53q-19 0 -36 1.5t-33 3.5v-141h-127v674h127v-125q17 2 38.5 3.5t46.5 1.5q118 0 179.5 -53.5t61.5 -140.5zM394 349q0 106 -127 106q-47 0 -71 -6v-206q13 -2 29 -3.5t36 -1.5q66 0 99.5 30t33.5 81z" />
    <glyph glyph-name="germandbls" unicode="&#xdf;" horiz-adv-x="575" 
d="M539 157q0 -76 -51 -122t-141 -46q-65 0 -105 18l17 96q32 -16 74 -16q36 0 56.5 18t20.5 45q0 38 -43 81q-19 19 -31.5 33.5t-19.5 25.5q-25 37 -25 79q0 79 83 123q7 15 7 39q0 40 -23.5 64.5t-61.5 24.5q-103 0 -103 -172v-448h-129v438q0 154 74 223q64 59 167 59
q87 0 143 -49q58 -49 58 -130q0 -51 -24 -82q-62 -29 -62 -73q0 -33 39 -73q20 -20 33 -36t21 -29q26 -44 26 -91z" />
    <glyph glyph-name="agrave" unicode="&#xe0;" horiz-adv-x="506" 
d="M307 546h-89l-121 148h124zM335 0l-9 53h-3q-49 -64 -140 -64q-70 0 -113 45q-39 40 -39 101q0 91 74 138t209 47v8q0 79 -95 79q-70 0 -129 -35l-25 83q70 43 177 43q202 0 202 -206v-175q0 -38 1.5 -67t5.5 -50h-116zM318 237h-5q-155 0 -155 -88q0 -68 67 -68
q32 0 56.5 18.5t33.5 45.5q3 10 3 27v65z" />
    <glyph glyph-name="aacute" unicode="&#xe1;" horiz-adv-x="506" 
d="M400 694l-121 -148h-88l85 148h124zM335 0l-9 53h-3q-49 -64 -140 -64q-70 0 -113 45q-39 40 -39 101q0 91 74.5 138t208.5 47v8q0 79 -95 79q-71 0 -129 -35l-25 83q70 43 177 43q202 0 202 -206v-175q0 -38 1.5 -67t5.5 -50h-116zM318 237q-160 1 -160 -88
q0 -68 67 -68q32 0 56.5 18.5t33.5 45.5q3 10 3 27v65z" />
    <glyph glyph-name="acircumflex" unicode="&#xe2;" horiz-adv-x="506" 
d="M386 546h-85l-52 88h-2l-51 -88h-84l96 148h81zM335 0l-9 53h-3q-49 -64 -140 -64q-70 0 -113 45q-39 40 -39 101q0 91 74 138t209 47v8q0 79 -95 79q-70 0 -129 -35l-25 83q70 43 177 43q202 0 202 -206v-175q0 -38 1.5 -67t5.5 -50h-116zM318 237h-5q-155 0 -155 -88
q0 -68 67 -68q32 0 56.5 18.5t33.5 45.5q3 10 3 27v65z" />
    <glyph glyph-name="atilde" unicode="&#xe3;" horiz-adv-x="506" 
d="M379 677q0 -57 -17.5 -85t-56.5 -28q-28 0 -65 22q-15 9 -25.5 12.5t-15.5 3.5q-22 0 -25 -44h-59v10q0 49 19 77t53 28q25 0 64 -21q33 -18 44 -18q23 0 26 43h58zM335 0l-9 53h-3q-49 -64 -140 -64q-70 0 -113 45q-39 40 -39 101q0 91 74 138t209 47v8q0 79 -95 79
q-70 0 -129 -35l-25 83q70 43 177 43q202 0 202 -206v-175q0 -38 1.5 -67t5.5 -50h-116zM318 237h-5q-155 0 -155 -88q0 -68 67 -68q32 0 56.5 18.5t33.5 45.5q3 10 3 27v65z" />
    <glyph glyph-name="adieresis" unicode="&#xe4;" horiz-adv-x="506" 
d="M411 612q0 -27 -17.5 -44.5t-43.5 -17.5t-43 18t-17 44t17.5 43.5t43.5 17.5t43 -17.5t17 -43.5zM216 612q0 -27 -17.5 -44.5t-43.5 -17.5q-25 0 -43 18t-18 44t18 43.5t44 17.5t43 -17.5t17 -43.5zM335 0l-9 53h-3q-49 -64 -140 -64q-70 0 -113 45q-39 40 -39 101
q0 91 74.5 138t208.5 47v8q0 79 -95 79q-71 0 -129 -35l-25 83q70 43 177 43q202 0 202 -206v-175q0 -38 1.5 -67t5.5 -50h-116zM318 237q-160 1 -160 -88q0 -68 67 -68q32 0 56.5 18.5t33.5 45.5q3 10 3 27v65z" />
    <glyph glyph-name="aring" unicode="&#xe5;" horiz-adv-x="506" 
d="M351 629q0 -20 -7.5 -37.5t-21 -31t-31.5 -21t-38 -7.5t-38 7.5t-31.5 21t-21 31t-7.5 37.5q0 42 28 70t70 28t70 -28t28 -70zM335 0l-9 53h-3q-50 -63 -140 -63q-69 0 -113 44q-39 40 -39 101q0 91 73.5 138t209.5 47v8q0 79 -95 79q-70 0 -129 -35l-25 83q70 43 177 43
q202 0 202 -206v-175q0 -38 1.5 -67t5.5 -50h-116zM296 629q0 18 -12.5 31t-30.5 13t-30.5 -13t-12.5 -31q0 -17 12.5 -30t30.5 -13t30.5 13t12.5 30zM318 237h-5q-155 0 -155 -88q0 -68 67 -68q32 0 56.5 18.5t33.5 45.5q3 10 3 27v65z" />
    <glyph glyph-name="ae" unicode="&#xe6;" horiz-adv-x="781" 
d="M749 265q0 -17 -3 -51h-309q0 -60 37.5 -93.5t100.5 -33.5q68 0 131 26l19 -88q-68 -35 -169 -35q-61 0 -110.5 24.5t-72.5 69.5h-3q-57 -94 -178 -94q-75 0 -118 43t-43 105q0 88 76 133t209 45v16q0 26 -19 45q-27 31 -80 31q-70 0 -125 -37l-27 84q77 44 163 44
q116 0 157 -86h3q57 86 165 86q98 0 151 -77q45 -65 45 -157zM629 303v6q0 34 -18 63q-24 40 -73 40q-48 0 -77 -38q-23 -32 -25 -71h193zM319 235q-81 0 -121.5 -21t-40.5 -66q0 -31 20 -48t49 -17q40 0 66.5 26.5t26.5 65.5v60z" />
    <glyph glyph-name="ccedilla" unicode="&#xe7;" horiz-adv-x="441" 
d="M419 14q-50 -23 -121 -24l-21 -36q28 -4 49 -22q22 -21 22 -49q0 -85 -115 -85q-48 0 -76 19l18 51q27 -15 54 -15q38 0 38 27q0 33 -77 38l39 77q-90 15 -142.5 80t-52.5 165q0 112 71 183q73 75 198 75q65 0 115 -21l-21 -98q-38 18 -89 18q-33 0 -59.5 -11.5
t-44.5 -31.5t-28 -48.5t-10 -61.5q0 -69 42 -112q39 -40 101 -40q48 0 92 18z" />
    <glyph glyph-name="egrave" unicode="&#xe8;" horiz-adv-x="511" 
d="M332 546h-89l-120 148h123zM479 262q0 -17 -1 -31t-3 -24h-317q3 -59 45 -90q41 -29 100 -29q74 0 131 22l19 -89q-72 -30 -169 -30q-59 0 -105 17t-78.5 49.5t-49.5 78t-17 102.5q0 107 60 181q66 80 177 80q106 0 162 -77q46 -64 46 -160zM358 297q0 43 -19 74
q-25 40 -76 40q-49 0 -77 -39q-24 -33 -28 -75h200z" />
    <glyph glyph-name="eacute" unicode="&#xe9;" horiz-adv-x="511" 
d="M423 694l-121 -148h-89l86 148h124zM479 262q0 -35 -4 -55h-317q3 -59 45 -90q40 -29 100 -29q72 0 131 22l19 -89q-72 -30 -169 -30q-59 0 -105 17t-78.5 49.5t-49.5 78t-17 102.5q0 107 60 181q66 80 177 80q106 0 162 -77q46 -64 46 -160zM358 297q0 43 -19 74
q-25 40 -76 40q-49 0 -77 -39q-23 -31 -28 -75h200z" />
    <glyph glyph-name="ecircumflex" unicode="&#xea;" horiz-adv-x="511" 
d="M405 546h-85l-52 88h-2l-52 -88h-84l96 148h82zM479 262q0 -17 -1 -31t-3 -24h-317q3 -59 45 -90q41 -29 100 -29q74 0 131 22l19 -89q-72 -30 -169 -30q-59 0 -105 17t-78.5 49.5t-49.5 78t-17 102.5q0 107 60 181q66 80 177 80q106 0 162 -77q46 -64 46 -160zM358 297
q0 43 -19 74q-25 40 -76 40q-49 0 -77 -39q-24 -33 -28 -75h200z" />
    <glyph glyph-name="edieresis" unicode="&#xeb;" horiz-adv-x="511" 
d="M431 612q0 -27 -17.5 -44.5t-43.5 -17.5t-43 18t-17 44t17.5 43.5t43.5 17.5t43 -17.5t17 -43.5zM236 612q0 -27 -17.5 -44.5t-43.5 -17.5q-25 0 -43 18t-18 44t18 43.5t45 17.5q25 0 42 -17.5t17 -43.5zM479 262q0 -17 -1 -31t-3 -24h-317q3 -59 45 -90q41 -29 100 -29
q74 0 131 22l19 -89q-72 -30 -169 -30q-59 0 -105 17t-78.5 49.5t-49.5 78t-17 102.5q0 107 60 181q66 80 177 80q106 0 162 -77q46 -64 46 -160zM358 297q0 43 -19 74q-25 40 -76 40q-49 0 -77 -39q-24 -33 -28 -75h200z" />
    <glyph glyph-name="igrave" unicode="&#xec;" horiz-adv-x="257" 
d="M181 546h-89l-120 148h123zM193 0h-129v488h129v-488z" />
    <glyph glyph-name="iacute" unicode="&#xed;" horiz-adv-x="257" 
d="M283 694l-121 -148h-89l86 148h124zM193 0h-129v488h129v-488z" />
    <glyph glyph-name="icircumflex" unicode="&#xee;" horiz-adv-x="257" 
d="M267 546h-86l-51 88h-2l-52 -88h-84l96 148h82zM193 0h-129v488h129v-488z" />
    <glyph glyph-name="idieresis" unicode="&#xef;" horiz-adv-x="257" 
d="M287 612q0 -27 -17.5 -44.5t-43.5 -17.5t-43 18t-17 44t17.5 43.5t43.5 17.5t43 -17.5t17 -43.5zM92 612q0 -27 -17.5 -44.5t-43.5 -17.5q-25 0 -43 18t-18 44t18 43.5t45 17.5q25 0 42 -17.5t17 -43.5zM193 0h-129v488h129v-488z" />
    <glyph glyph-name="eth" unicode="&#xf0;" horiz-adv-x="553" 
d="M519 256q0 -132 -76 -204q-68 -63 -167 -63q-105 0 -173 68t-68 180q0 108 67 175q68 65 162 65q43 0 78 -26l2 3q-41 60 -95 97l-140 -62l-24 53l107 50q-19 13 -42.5 25.5t-52.5 26.5l57 74q38 -16 75 -35.5t72 -44.5l132 60l27 -53l-104 -47q79 -66 122 -151
q41 -84 41 -191zM385 242q0 154 -107 154q-56 0 -86 -53q-25 -43 -25 -105q0 -59 25 -102q30 -53 85 -53q56 0 85 54q23 44 23 105z" />
    <glyph glyph-name="ntilde" unicode="&#xf1;" horiz-adv-x="566" 
d="M418 677q0 -57 -17.5 -85t-56.5 -28q-29 0 -66 22q-28 16 -40 16q-22 0 -25 -44h-59v10q0 49 19 77t53 28q25 0 64 -21q33 -18 44 -18q23 0 26 43h58zM504 0h-130v276q0 117 -86 117q-21 0 -38.5 -8.5t-30 -23.5t-19.5 -34.5t-7 -40.5v-286h-129v340q0 34 -1 71t-3 77
h113l6 -71h3q48 81 151 81q72 0 119 -47q52 -55 52 -160v-291z" />
    <glyph glyph-name="ograve" unicode="&#xf2;" horiz-adv-x="557" 
d="M342 546h-89l-121 148h124zM523 248q0 -114 -67 -187q-68 -72 -180 -72q-110 0 -176 70t-66 181q0 116 67 186q67 72 183 72q110 0 174 -70q65 -71 65 -180zM389 245q0 61 -24 105q-30 54 -86 54q-57 0 -88 -54q-25 -43 -25 -107q0 -63 25 -106q30 -54 88 -54q56 0 86 56
q24 45 24 106z" />
    <glyph glyph-name="oacute" unicode="&#xf3;" horiz-adv-x="557" 
d="M428 694l-121 -148h-88l85 148h124zM523 248q0 -114 -67 -187q-68 -72 -180 -72q-110 0 -176 70t-66 181q0 116 67 186q67 72 183 72q110 0 174 -70q65 -71 65 -180zM389 245q0 61 -24 105q-30 54 -86 54q-58 0 -88 -54q-25 -43 -25 -107q0 -63 25 -106q30 -54 88 -54
q56 0 86 56q24 45 24 106z" />
    <glyph glyph-name="ocircumflex" unicode="&#xf4;" horiz-adv-x="557" 
d="M416 546h-85l-52 88h-2l-52 -88h-83l95 148h82zM523 248q0 -114 -67 -187q-68 -72 -180 -72q-110 0 -176 70t-66 181q0 116 67 186q67 72 183 72q110 0 174 -70q65 -71 65 -180zM389 245q0 61 -24 105q-30 54 -86 54q-58 0 -88 -54q-25 -43 -25 -107q0 -63 25 -106
q30 -54 88 -54q56 0 86 56q24 45 24 106z" />
    <glyph glyph-name="otilde" unicode="&#xf5;" horiz-adv-x="557" 
d="M411 677q2 -113 -73 -113q-28 0 -66 22q-28 16 -41 16q-22 0 -25 -44h-59q-1 54 18 84.5t54 30.5q26 0 65 -21q33 -18 43 -18q23 0 26 43h58zM523 248q0 -114 -67 -187q-68 -72 -180 -72q-110 0 -176 70t-66 181q0 116 67 186q67 72 183 72q110 0 174 -70q65 -71 65 -180
zM389 245q0 61 -24 105q-30 54 -86 54q-58 0 -88 -54q-25 -43 -25 -107q0 -63 25 -106q30 -54 88 -54q56 0 86 56q24 45 24 106z" />
    <glyph glyph-name="odieresis" unicode="&#xf6;" horiz-adv-x="557" 
d="M437 612q0 -27 -17.5 -44.5t-44.5 -17.5q-25 0 -42.5 18t-17.5 44t18 43.5t44 17.5t43 -17.5t17 -43.5zM241 612q0 -27 -17 -44.5t-43 -17.5t-43.5 18t-17.5 44t18 43.5t44 17.5t42.5 -17.5t16.5 -43.5zM523 248q0 -114 -67 -187q-68 -72 -180 -72q-110 0 -176 70
t-66 181q0 116 67 186q67 72 183 72q110 0 174 -70q65 -71 65 -180zM389 245q0 61 -24 105q-30 54 -86 54q-58 0 -88 -54q-25 -43 -25 -107q0 -63 25 -106q30 -54 88 -54q56 0 86 56q24 45 24 106z" />
    <glyph glyph-name="divide" unicode="&#xf7;" horiz-adv-x="596" 
d="M364 442q0 -30 -18.5 -48.5t-48.5 -18.5q-29 0 -46.5 19t-17.5 48q0 30 18 49t47 19q30 0 48 -19t18 -49zM555 226h-516v82h516v-82zM363 91q0 -30 -18.5 -48.5t-48.5 -18.5q-29 0 -46.5 19t-17.5 48q0 30 18 49t47 19q30 0 48 -19t18 -49z" />
    <glyph glyph-name="oslash" unicode="&#xf8;" horiz-adv-x="557" 
d="M523 246q0 -124 -77 -195q-68 -62 -167 -62q-67 0 -116 28l-46 -66l-46 36l43 64q-80 69 -80 191q0 117 69 186q69 70 176 70h1q68 0 117 -28l44 65l49 -34l-44 -66q77 -69 77 -189zM342 382q-25 22 -63 22q-61 0 -92 -52q-27 -45 -27 -109q0 -54 22 -91l3 -1zM399 242
q0 51 -21 89l-2 1l-157 -227q22 -22 60 -22q55 0 87.5 44.5t32.5 114.5z" />
    <glyph glyph-name="ugrave" unicode="&#xf9;" horiz-adv-x="563" 
d="M341 546h-89l-120 148h123zM390 0l-6 71h-3q-49 -82 -152 -82q-75 0 -118 48q-49 52 -49 164v287h129v-266q0 -127 85 -127q62 0 87 61q6 16 6 37v295h130v-340q0 -37 1 -73.5t3 -74.5h-113z" />
    <glyph glyph-name="uacute" unicode="&#xfa;" horiz-adv-x="563" 
d="M437 694l-121 -148h-89l86 148h124zM390 0l-6 71h-3q-49 -82 -152 -82q-75 0 -118 48q-49 53 -49 164v287h129v-266q0 -127 85 -127q62 0 87 61q6 16 6 37v295h130v-340q0 -37 1 -73.5t3 -74.5h-113z" />
    <glyph glyph-name="ucircumflex" unicode="&#xfb;" horiz-adv-x="563" 
d="M419 546h-85l-52 88h-2l-52 -88h-83l95 148h82zM390 0l-6 71h-3q-49 -82 -152 -82q-75 0 -118 48q-49 52 -49 164v287h129v-266q0 -127 85 -127q62 0 87 61q6 16 6 37v295h130v-340q0 -37 1 -73.5t3 -74.5h-113z" />
    <glyph glyph-name="udieresis" unicode="&#xfc;" horiz-adv-x="563" 
d="M443 612q0 -27 -17.5 -44.5t-44.5 -17.5q-25 0 -42.5 18t-17.5 44t17.5 43.5t44.5 17.5q26 0 43 -17.5t17 -43.5zM247 612q0 -27 -17 -44.5t-43 -17.5t-43.5 18t-17.5 44t18 43.5t44 17.5t42.5 -17.5t16.5 -43.5zM390 0l-6 71h-3q-49 -82 -152 -82q-75 0 -118 48
q-49 53 -49 164v287h129v-266q0 -127 85 -127q62 0 87 61q6 16 6 37v295h130v-340q0 -37 1 -73.5t3 -74.5h-113z" />
    <glyph glyph-name="yacute" unicode="&#xfd;" horiz-adv-x="497" 
d="M413 694l-121 -148h-88l85 148h124zM492 488l-117 -332q-85 -238 -167 -312q-61 -55 -131 -64l-30 109q33 8 71.5 34t62.5 71q8 16 8 22q0 7 -6 24l-176 448h143l82 -257q5 -16 11.5 -39t14.5 -54h3q4 16 10 39.5t14 54.5l70 256h137z" />
    <glyph glyph-name="thorn" unicode="&#xfe;" horiz-adv-x="578" 
d="M543 248q0 -126 -69 -196q-62 -63 -146 -63q-90 0 -133 63h-2v-250h-129v872h129v-252h2q49 76 152 76q82 0 136 -65q60 -71 60 -185zM412 246q0 66 -30 108t-81 42q-71 0 -98 -68q-10 -23 -10 -44v-88q0 -27 12 -46q27 -61 93 -61q52 0 83 42.5t31 114.5z" />
    <glyph glyph-name="ydieresis" unicode="&#xff;" horiz-adv-x="497" 
d="M417 612q0 -27 -17 -44.5t-44 -17.5q-25 0 -42.5 18t-17.5 44t17.5 43.5t43.5 17.5q27 0 43.5 -17.5t16.5 -43.5zM222 612q0 -27 -17 -44.5t-43 -17.5t-43.5 18t-17.5 44t18 43.5t44 17.5t42.5 -17.5t16.5 -43.5zM492 488l-117 -332q-86 -240 -167 -312q-61 -55 -131 -64
l-30 109q33 8 71.5 34t62.5 71q8 18 8 22q0 7 -6 24l-176 448h143l82 -257q5 -16 11.5 -39t14.5 -54h3q4 16 10 39.5t14 54.5l70 256h137z" />
    <glyph glyph-name="Amacron" unicode="&#x100;" horiz-adv-x="629" 
d="M438 805v-71h-252v71h252zM606 0h-139l-57 185h-204l-53 -185h-134l210 674h165zM390 283l-49 159l-33 129h-3q-5 -22 -12.5 -54t-18.5 -75l-47 -159h163z" />
    <glyph glyph-name="amacron" unicode="&#x101;" horiz-adv-x="506" 
d="M373 657v-74h-242v74h242zM335 0l-9 53h-3q-49 -64 -140 -64q-70 0 -113 45q-39 40 -39 101q0 91 74.5 138t208.5 47v8q0 79 -95 79q-71 0 -129 -35l-25 83q70 43 177 43q202 0 202 -206v-175q0 -38 1.5 -67t5.5 -50h-116zM318 237q-160 1 -160 -88q0 -68 67 -68
q32 0 56.5 18.5t33.5 45.5q3 10 3 27v65z" />
    <glyph glyph-name="Abreve" unicode="&#x102;" horiz-adv-x="629" 
d="M606 0h-139l-57 185h-204l-53 -185h-134l210 674h165zM390 283l-49 159l-33 129h-3q-5 -22 -12.5 -54t-18.5 -75l-47 -159h163zM248 828q3 -17 17 -32t47 -15t47.5 14t18.5 33h69q-2 -51 -34 -85t-101 -34q-70 0 -101 34t-33 85h70z" />
    <glyph glyph-name="abreve" unicode="&#x103;" horiz-adv-x="506" 
d="M335 0l-9 53h-3q-49 -64 -140 -64q-70 0 -113 45q-39 40 -39 101q0 91 74 138t209 47v8q0 79 -95 79q-70 0 -129 -35l-25 83q70 43 177 43q202 0 202 -206v-175q0 -38 1.5 -67t5.5 -50h-116zM318 237h-5q-155 0 -155 -88q0 -68 67 -68q32 0 56.5 18.5t33.5 45.5
q3 10 3 27v65zM378 684q0 -57 -32.5 -90.5t-93.5 -33.5q-62 0 -95 37q-29 35 -29 87h64q8 -62 60 -62q57 0 62 62h64z" />
    <glyph glyph-name="Aogonek" unicode="&#x104;" horiz-adv-x="629" 
d="M606 0l-65 -1q-9 -12 -22 -33.5t-13 -43.5q0 -24 15 -39t38 -15q26 0 44 8l19 -61q-19 -14 -45.5 -21.5t-48.5 -7.5q-49 0 -77.5 24t-28.5 75q0 26 10 52.5t21 44.5q4 6 7 11t6 9l-56 183h-204l-53 -185h-134l210 674h165zM390 283l-49 159l-33 129h-3q-5 -22 -12.5 -54
t-18.5 -75l-47 -159h163z" />
    <glyph glyph-name="aogonek" unicode="&#x105;" horiz-adv-x="506" 
d="M408 0q-9 -14 -18.5 -36t-9.5 -44q0 -25 13.5 -38t34.5 -13q26 0 45 10l19 -63q-23 -17 -48.5 -23.5t-49.5 -6.5q-42 0 -70 24t-28 72q0 19 4.5 37t10.5 33.5t12.5 28t11.5 21.5l-9 51h-3q-49 -64 -140 -64q-70 0 -113 45q-39 40 -39 101q0 91 74.5 138t208.5 47v8
q0 79 -95 79q-71 0 -129 -35l-25 83q70 43 177 43q202 0 202 -206v-175q0 -38 1.5 -67t5.5 -50h-43zM318 237q-160 1 -160 -88q0 -68 67 -68q32 0 56.5 18.5t33.5 45.5q3 10 3 27v65z" />
    <glyph glyph-name="Cacute" unicode="&#x106;" horiz-adv-x="577" 
d="M527 833l-127 -123h-102l90 123h139zM522 552q-54 25 -126 25q-100 0 -161 -61q-64 -64 -64 -181q0 -111 59 -174t165 -63q74 0 128 23l21 -102q-60 -29 -169 -29q-158 0 -250 92q-90 93 -90 247q0 165 103 262q97 93 253 93q104 0 159 -29z" />
    <glyph glyph-name="cacute" unicode="&#x107;" horiz-adv-x="441" 
d="M397 380q-39 17 -89 17q-66 0 -104 -43t-38 -110q0 -70 42 -112q39 -40 101 -40q49 0 91 18l17 -96q-51 -24 -134 -24q-114 0 -181 67q-68 68 -68 182q0 111 72 185q74 74 197 74q65 0 115 -21zM417 694l-121 -148h-88l85 148h124z" />
    <glyph glyph-name="Ccircumflex" unicode="&#x108;" horiz-adv-x="577" 
d="M522 552q-54 25 -126 25q-100 0 -161 -61q-64 -64 -64 -181q0 -111 59 -174t165 -63q74 0 128 23l21 -102q-60 -29 -169 -29q-158 0 -250 92q-90 93 -90 247q0 165 103 262q97 93 253 93q104 0 159 -29zM430 734h-86l-51 88h-2l-52 -88h-84l96 148h81z" />
    <glyph glyph-name="ccircumflex" unicode="&#x109;" horiz-adv-x="441" 
d="M397 380q-39 17 -89 17q-66 0 -104 -43t-38 -110q0 -70 42 -112q39 -40 101 -40q49 0 91 18l17 -96q-51 -24 -134 -24q-114 0 -181 67q-68 68 -68 182q0 111 72 185q74 74 197 74q65 0 115 -21zM364 548h-86l-51 88h-2l-52 -88h-84l96 148h81z" />
    <glyph glyph-name="Cdotaccent" unicode="&#x10a;" horiz-adv-x="577" 
d="M522 552q-54 25 -126 25q-100 0 -161 -61q-64 -64 -64 -181q0 -111 59 -174t165 -63q74 0 128 23l21 -102q-60 -29 -169 -29q-158 0 -250 92q-90 93 -90 247q0 165 103 262q97 93 253 93q104 0 159 -29zM353 796q0 -26 -17 -44t-43 -18t-43.5 18t-17.5 44t18 43.5
t44 17.5t42.5 -17.5t16.5 -43.5z" />
    <glyph glyph-name="cdotaccent" unicode="&#x10b;" horiz-adv-x="441" 
d="M397 380q-39 17 -89 17q-66 0 -104 -43t-38 -110q0 -70 42 -112q39 -40 101 -40q49 0 91 18l17 -96q-51 -24 -134 -24q-114 0 -181 67q-68 68 -68 182q0 111 72 185q74 74 197 74q65 0 115 -21zM287 610q0 -26 -17 -44t-43 -18t-43.5 18t-17.5 44t18 43.5t44 17.5
t42.5 -17.5t16.5 -43.5z" />
    <glyph glyph-name="Ccaron" unicode="&#x10c;" horiz-adv-x="577" 
d="M508 833l-100 -123h-94l-100 123h92l55 -69h2l54 69h91zM522 552q-54 25 -126 25q-100 0 -161 -61q-64 -64 -64 -181q0 -111 59 -174t165 -63q74 0 128 23l21 -102q-60 -29 -169 -29q-158 0 -250 92q-90 93 -90 247q0 165 103 262q97 93 253 93q104 0 159 -29z" />
    <glyph glyph-name="ccaron" unicode="&#x10d;" horiz-adv-x="441" 
d="M409 694l-97 -148h-88l-97 148h87l53 -89h2l53 89h87zM397 380q-39 17 -89 17q-66 0 -104 -43t-38 -110q0 -70 42 -112q39 -40 101 -40q49 0 91 18l17 -96q-51 -24 -134 -24q-114 0 -181 67q-68 68 -68 182q0 111 72 185q74 74 197 74q65 0 115 -21z" />
    <glyph glyph-name="Dcaron" unicode="&#x10e;" horiz-adv-x="672" 
d="M459 833l-100 -123h-94l-100 123h92l55 -69h2l54 69h91zM637 353q0 -177 -105 -270q-101 -90 -300 -90q-94 0 -163 9v663q43 7 91 10.5t102 3.5q178 0 269 -73q106 -85 106 -253zM501 349q0 112 -58.5 170.5t-167.5 58.5q-46 0 -77 -6v-473q16 -3 62 -3q115 -1 178 63
t63 190z" />
    <glyph glyph-name="dcaron" unicode="&#x10f;" horiz-adv-x="597" 
d="M561 541q11 17 20.5 42.5t9.5 54.5q0 20 -7 37.5t-16 30.5l83 15q13 -9 23 -29.5t10 -44.5q0 -32 -8.5 -56t-20 -41.5t-22.5 -28.5t-17 -16zM400 0l-6 74h-2q-46 -85 -153 -85q-88 0 -145 69q-60 70 -60 181q0 120 64 191q62 68 150 68q95 0 131 -60h2v271h130v-570
q0 -38 1 -73t3 -66h-115zM381 285q0 10 -0.5 17.5t-1.5 12.5q-8 37 -33 59q-29 24 -65 24q-55 0 -85.5 -43t-30.5 -112q0 -67 30 -108.5t84 -41.5q48 0 77 36q25 32 25 81v75z" />
    <glyph glyph-name="Dcroat" unicode="&#x110;" horiz-adv-x="674" 
d="M639 353q0 -177 -105 -270q-101 -90 -300 -90q-94 0 -163 9v290h-68v102h68v271q43 7 91 10.5t102 3.5q178 0 269 -73q106 -85 106 -253zM503 349q0 112 -58.5 170.5t-167.5 58.5q-46 0 -77 -6v-178h158v-102h-158v-193q16 -3 62 -3q115 -1 178 63t63 190z" />
    <glyph glyph-name="dcroat" unicode="&#x111;" horiz-adv-x="575" 
d="M400 0l-6 74h-2q-46 -85 -153 -85q-88 0 -145 69q-60 70 -60 181q0 120 64 191q62 68 150 68q95 0 131 -60h2v106h-172v73h172v92h130v-92h81v-73h-81v-405q0 -38 1 -73t3 -66h-115zM381 285q0 10 -0.5 17.5t-1.5 12.5q-8 37 -33 59q-29 24 -65 24q-55 0 -85.5 -43
t-30.5 -112q0 -67 30 -108.5t84 -41.5q48 0 77 36q25 32 25 81v75z" />
    <glyph glyph-name="Emacron" unicode="&#x112;" horiz-adv-x="511" 
d="M390 805v-71h-252v71h252zM474 0h-405v674h390v-107h-261v-165h247v-106h-247v-189h276v-107z" />
    <glyph glyph-name="emacron" unicode="&#x113;" horiz-adv-x="511" 
d="M390 657v-74h-242v74h242zM479 262q0 -35 -4 -55h-317q3 -59 45 -90q40 -29 100 -29q72 0 131 22l19 -89q-72 -30 -169 -30q-59 0 -105 17t-78.5 49.5t-49.5 78t-17 102.5q0 107 60 181q66 80 177 80q106 0 162 -77q46 -64 46 -160zM358 297q0 43 -19 74q-25 40 -76 40
q-49 0 -77 -39q-23 -31 -28 -75h200z" />
    <glyph glyph-name="Ebreve" unicode="&#x114;" horiz-adv-x="511" 
d="M474 0h-405v674h390v-107h-261v-165h247v-106h-247v-189h276v-107zM396 848q0 -57 -32.5 -90.5t-93.5 -33.5q-62 0 -95 37q-29 35 -29 87h64q8 -62 60 -62q57 0 62 62h64z" />
    <glyph glyph-name="ebreve" unicode="&#x115;" horiz-adv-x="511" 
d="M479 262q0 -35 -4 -55h-317q3 -59 45 -90q40 -29 100 -29q72 0 131 22l19 -89q-72 -30 -169 -30q-59 0 -105 17t-78.5 49.5t-49.5 78t-17 102.5q0 107 60 181q66 80 177 80q106 0 162 -77q46 -64 46 -160zM358 297q0 43 -19 74q-25 40 -76 40q-49 0 -77 -39
q-23 -31 -28 -75h200zM381 673q0 -57 -32.5 -90.5t-93.5 -33.5q-62 0 -95 37q-29 35 -29 87h64q8 -62 60 -62q57 0 62 62h64z" />
    <glyph glyph-name="Edotaccent" unicode="&#x116;" horiz-adv-x="511" 
d="M262 716q-26 0 -44 18.5t-18 43.5q0 26 18 44t46 18q26 0 43 -18t17 -44q0 -25 -17.5 -43.5t-43.5 -18.5h-1zM474 0h-405v674h390v-107h-261v-165h247v-106h-247v-189h276v-107z" />
    <glyph glyph-name="edotaccent" unicode="&#x117;" horiz-adv-x="511" 
d="M479 262q0 -35 -4 -55h-317q3 -59 45 -90q40 -29 100 -29q72 0 131 22l19 -89q-72 -30 -169 -30q-59 0 -105 17t-78.5 49.5t-49.5 78t-17 102.5q0 107 60 181q66 80 177 80q106 0 162 -77q46 -64 46 -160zM358 297q0 43 -19 74q-25 40 -76 40q-49 0 -77 -39
q-23 -31 -28 -75h200zM327 612q0 -26 -17 -44t-43 -18t-43.5 18t-17.5 44t18 43.5t44 17.5t42.5 -17.5t16.5 -43.5z" />
    <glyph glyph-name="Eogonek" unicode="&#x118;" horiz-adv-x="511" 
d="M474 0h-18q-14 -9 -27 -20.5t-23.5 -24.5t-17 -26.5t-6.5 -25.5q0 -17 11.5 -26t29.5 -9q21 0 42 8l19 -63q-41 -27 -98 -27q-48 0 -73.5 23t-25.5 65q0 21 7 40t17.5 35t23.5 29t25 22h-291v674h390v-107h-261v-165h247v-106h-247v-189h276v-107z" />
    <glyph glyph-name="eogonek" unicode="&#x119;" horiz-adv-x="511" 
d="M479 262q0 -35 -4 -55h-317q3 -59 45 -90q40 -29 100 -29q72 0 131 22l19 -89q-27 -11 -53 -18q-6 -3 -12.5 -7t-13.5 -9q-23 -17 -42.5 -39.5t-19.5 -43.5q0 -19 11 -27.5t25 -8.5q25 0 46 10l20 -62q-20 -14 -45 -22t-53 -8q-45 0 -71.5 22.5t-26.5 61.5q0 19 7 37
t18 33.5t24 28t24 21.5v2l-7 -1q-59 0 -105 17t-78.5 49.5t-49.5 78t-17 102.5q0 107 60 181q66 80 177 80q106 0 162 -77q46 -64 46 -160zM358 297q0 43 -19 74q-25 40 -76 40q-49 0 -77 -39q-23 -31 -28 -75h200z" />
    <glyph glyph-name="Ecaron" unicode="&#x11a;" horiz-adv-x="511" 
d="M411 833l-100 -123h-94l-100 123h92l55 -69h2l54 69h91zM474 0h-405v674h390v-107h-261v-165h247v-106h-247v-189h276v-107z" />
    <glyph glyph-name="ecaron" unicode="&#x11b;" horiz-adv-x="511" 
d="M479 262q0 -35 -4 -55h-317q3 -59 45 -90q40 -29 100 -29q72 0 131 22l19 -89q-72 -30 -169 -30q-59 0 -105 17t-78.5 49.5t-49.5 78t-17 102.5q0 107 60 181q66 80 177 80q106 0 162 -77q46 -64 46 -160zM358 297q0 43 -19 74q-25 40 -76 40q-49 0 -77 -39
q-23 -31 -28 -75h200zM402 694l-97 -148h-88l-97 148h87l53 -89h2l53 89h87z" />
    <glyph glyph-name="Gcircumflex" unicode="&#x11c;" horiz-adv-x="656" 
d="M603 30q-102 -37 -214 -37q-168 0 -260 89q-95 91 -94 248q0 160 104 258q102 93 267 93q113 0 176 -31l-28 -105q-62 28 -149 28q-105 0 -168 -60q-66 -63 -66 -176q0 -56 16 -100t45 -75t70 -47t91 -16q57 0 84 11v163h-111v102h237v-345zM456 731h-86l-51 88h-2
l-52 -88h-84l96 148h81z" />
    <glyph glyph-name="gcircumflex" unicode="&#x11d;" horiz-adv-x="566" 
d="M507 488q-2 -30 -3 -65.5t-1 -77.5v-275q0 -156 -72 -219q-67 -59 -188 -59q-103 0 -167 37l27 99q61 -37 139 -37q133 0 133 142v38h-2q-45 -68 -136 -68q-89 0 -146 67t-57 171q0 115 66 189q62 68 151 68q94 0 136 -73h2l5 63h113zM374 293q0 45 -26 75.5t-71 30.5
q-49 0 -80.5 -41t-31.5 -113q0 -63 30 -104t81 -41q71 0 92 69q6 18 6 43v81zM408 548h-86l-51 88h-2l-52 -88h-84l96 148h81z" />
    <glyph glyph-name="Gbreve" unicode="&#x11e;" horiz-adv-x="656" 
d="M603 30q-102 -37 -214 -37q-168 0 -260 89q-95 91 -94 248q0 160 104 258q102 93 267 93q113 0 176 -31l-28 -105q-62 28 -149 28q-105 0 -168 -60q-66 -63 -66 -176q0 -56 16 -100t45 -75t70 -47t91 -16q57 0 84 11v163h-111v102h237v-345zM527 830q0 -52 -34 -81.5
t-98 -29.5q-66 0 -100 34q-31 27 -31 77h67q10 -45 64 -45t68 45h64z" />
    <glyph glyph-name="gbreve" unicode="&#x11f;" horiz-adv-x="566" 
d="M507 488q-2 -30 -3 -65.5t-1 -77.5v-275q0 -156 -72 -219q-67 -59 -188 -59q-103 0 -167 37l27 99q61 -37 139 -37q133 0 133 142v38h-2q-45 -68 -136 -68q-89 0 -146 67t-57 171q0 115 66 189q62 68 151 68q94 0 136 -73h2l5 63h113zM374 293q0 45 -26 75.5t-71 30.5
q-49 0 -80.5 -41t-31.5 -113q0 -63 30 -104t81 -41q71 0 92 69q6 18 6 43v81zM408 684q0 -57 -32.5 -90.5t-93.5 -33.5q-62 0 -95 37q-29 34 -29 87h64q8 -62 60 -62q57 0 62 62h64z" />
    <glyph glyph-name="Gdotaccent" unicode="&#x120;" horiz-adv-x="656" 
d="M603 30q-102 -37 -214 -37q-168 0 -260 89q-95 91 -94 248q0 160 104 258q102 93 267 93q113 0 176 -31l-28 -105q-62 28 -149 28q-105 0 -168 -60q-66 -63 -66 -176q0 -56 16 -100t45 -75t70 -47t91 -16q57 0 84 11v163h-111v102h237v-345zM379 793q0 -26 -17 -44
t-43 -18t-43.5 18t-17.5 44t18 43.5t44 17.5t42.5 -17.5t16.5 -43.5z" />
    <glyph glyph-name="gdotaccent" unicode="&#x121;" horiz-adv-x="566" 
d="M507 488q-2 -30 -3 -65.5t-1 -77.5v-275q0 -156 -72 -219q-67 -59 -188 -59q-103 0 -167 37l27 99q61 -37 139 -37q133 0 133 142v38h-2q-45 -68 -136 -68q-89 0 -146 67t-57 171q0 115 66 189q62 68 151 68q94 0 136 -73h2l5 63h113zM374 293q0 45 -26 75.5t-71 30.5
q-49 0 -80.5 -41t-31.5 -113q0 -63 30 -104t81 -41q71 0 92 69q6 18 6 43v81zM331 610q0 -26 -17 -44t-43 -18t-43.5 18t-17.5 44t18 43.5t44 17.5t42.5 -17.5t16.5 -43.5z" />
    <glyph glyph-name="uni0122" unicode="&#x122;" horiz-adv-x="656" 
d="M267 -178q26 5 47.5 20t21.5 42q0 17 -10 33t-21 27l91 16q15 -11 27 -31t12 -46q0 -30 -12 -51.5t-32.5 -35.5t-47 -21.5t-56.5 -8.5zM603 30q-102 -37 -214 -37q-168 0 -260 89q-95 91 -94 248q0 160 104 258q102 93 267 93q113 0 176 -31l-28 -105q-62 28 -149 28
q-105 0 -168 -60q-66 -63 -66 -176q0 -56 16 -100t45 -75t70 -47t91 -16q57 0 84 11v163h-111v102h237v-345z" />
    <glyph glyph-name="uni0123" unicode="&#x123;" horiz-adv-x="566" 
d="M381 671q-30 -5 -52 -19.5t-22 -42.5q0 -17 10 -31.5t22 -25.5l-87 -14q-15 10 -27 29t-12 42q0 28 12 48.5t32.5 33.5t47.5 20t56 8zM507 488q-2 -30 -3 -65.5t-1 -77.5v-275q0 -156 -72 -219q-67 -59 -188 -59q-103 0 -167 37l27 99q61 -37 139 -37q133 0 133 142v38
h-2q-45 -68 -136 -68q-89 0 -146 67t-57 171q0 115 66 189q62 68 151 68q94 0 136 -73h2l5 63h113zM374 293q0 45 -26 75.5t-71 30.5q-49 0 -80.5 -41t-31.5 -113q0 -63 30 -104t81 -41q71 0 92 69q6 18 6 43v81z" />
    <glyph glyph-name="Hcircumflex" unicode="&#x124;" horiz-adv-x="665" 
d="M596 0h-130v293h-268v-293h-129v674h129v-268h268v268h130v-674zM470 724h-86l-51 88h-2l-52 -88h-84l96 148h81z" />
    <glyph glyph-name="hcircumflex" unicode="&#x125;" horiz-adv-x="566" 
d="M504 0h-130v274q0 119 -87 119q-42 0 -68 -29.5t-26 -71.5v-292h-129v709h129v-285h2q51 74 142 74q71 0 116 -48q51 -56 51 -162v-288zM422 759h-86l-51 88h-2l-52 -88h-84l96 148h81z" />
    <glyph glyph-name="Hbar" unicode="&#x126;" horiz-adv-x="665" 
d="M653 489h-57v-489h-130v293h-268v-293h-129v489h-54v96h54v89h129v-89h268v89h130v-89h57v-96zM466 406v83h-268v-83h268z" />
    <glyph glyph-name="hbar" unicode="&#x127;" horiz-adv-x="607" 
d="M323 549h-89v-125h2q51 74 142 74q71 0 116 -48q51 -56 51 -162v-288h-130v274q0 119 -87 119q-42 0 -68 -29.5t-26 -71.5v-292h-129v549h-90v96h90v64h129v-64h89v-96z" />
    <glyph glyph-name="Itilde" unicode="&#x128;" horiz-adv-x="267" 
d="M198 0h-129v674h129v-674zM267 834q0 -57 -18 -85t-57 -28q-29 0 -63 18q-36 20 -44 19q-21 0 -25 -43h-60v11q0 51 19 77.5t53 26.5q27 0 62 -20q31 -19 45 -19q24 0 28 43h60z" />
    <glyph glyph-name="itilde" unicode="&#x129;" horiz-adv-x="257" 
d="M193 0h-129v488h129v-488zM261 677q0 -57 -17.5 -85t-56.5 -28q-29 0 -66 22q-28 16 -40 16q-22 0 -25 -44h-59v10q0 49 19 77t53 28q25 0 64 -21q33 -18 44 -18q23 0 26 43h58z" />
    <glyph glyph-name="Imacron" unicode="&#x12a;" horiz-adv-x="267" 
d="M261 805v-71h-252v71h252zM198 0h-129v674h129v-674z" />
    <glyph glyph-name="imacron" unicode="&#x12b;" horiz-adv-x="257" 
d="M250 657v-74h-242v74h242zM193 0h-129v488h129v-488z" />
    <glyph glyph-name="Ibreve" unicode="&#x12c;" horiz-adv-x="267" 
d="M198 0h-129v674h129v-674zM258 848q0 -57 -32.5 -90.5t-93.5 -33.5q-62 0 -95 37q-29 35 -29 87h64q8 -62 60 -62q57 0 62 62h64z" />
    <glyph glyph-name="ibreve" unicode="&#x12d;" horiz-adv-x="257" 
d="M193 0h-129v488h129v-488zM253 662q0 -57 -32.5 -90.5t-93.5 -33.5q-62 0 -95 37q-29 35 -29 87h64q8 -62 60 -62q57 0 62 62h64z" />
    <glyph glyph-name="Iogonek" unicode="&#x12e;" horiz-adv-x="267" 
d="M198 0h-54q-9 -14 -19 -35.5t-10 -43.5q0 -26 15 -40.5t38 -14.5q29 0 43 8l19 -61q-19 -15 -45.5 -22t-48.5 -7q-48 0 -76.5 24t-28.5 75q0 18 4.5 35t10.5 32.5t12.5 28.5l10.5 21v674h129v-674z" />
    <glyph glyph-name="iogonek" unicode="&#x12f;" horiz-adv-x="257" 
d="M193 0h-54q-5 -8 -9.5 -16.5t-9.5 -18.5q-10 -21 -10 -44q0 -26 15 -40.5t38 -14.5q26 0 44 8l19 -61q-19 -15 -45.5 -22t-49.5 -7q-48 0 -76.5 24t-28.5 75q0 17 4.5 35t10.5 33.5t12.5 28.5t10.5 20v488h129v-488zM204 633q0 -33 -21.5 -53t-55.5 -20q-32 0 -53 20.5
t-21 52.5t21.5 52.5t54.5 20.5q32 0 53.5 -20.5t21.5 -52.5z" />
    <glyph glyph-name="Idotaccent" unicode="&#x130;" horiz-adv-x="267" 
d="M198 0h-129v674h129v-674zM194 772q0 -26 -17 -44t-43 -18t-43.5 18t-17.5 44t18 43.5t44 17.5t42.5 -17.5t16.5 -43.5z" />
    <glyph glyph-name="dotlessi" unicode="&#x131;" horiz-adv-x="257" 
d="M193 0h-129v488h129v-488z" />
    <glyph glyph-name="IJ" unicode="&#x132;" horiz-adv-x="657" 
d="M198 0h-129v674h129v-674zM594 237q0 -248 -224 -248q-61 0 -103 16l15 104q38 -11 74 -11q54 0 80 29q29 34 29 113v434h129v-437z" />
    <glyph glyph-name="ij" unicode="&#x133;" horiz-adv-x="528" 
d="M204 633q0 -33 -21.5 -53t-55.5 -20q-32 0 -53 20.5t-21 52.5t21.5 52.5t54.5 20.5q32 0 53.5 -20.5t21.5 -52.5zM193 0h-129v488h129v-488zM477 633q0 -33 -22 -53t-55 -20q-32 0 -53 20.5t-21 52.5t21.5 52.5t54.5 20.5q32 0 53.5 -20.5t21.5 -52.5zM466 52
q0 -147 -64 -208q-60 -57 -173 -57l-13 102q63 4 90 33q31 32 31 165v401h129v-436z" />
    <glyph glyph-name="Jcircumflex" unicode="&#x134;" horiz-adv-x="390" 
d="M327 237q0 -248 -224 -248q-61 0 -103 16l15 104q38 -11 74 -11q54 0 80 29q29 34 29 113v434h129v-437zM392 724h-86l-51 88h-2l-52 -88h-84l96 148h81z" />
    <glyph glyph-name="jcircumflex" unicode="&#x135;" horiz-adv-x="271" 
d="M209 52q0 -147 -64 -208q-60 -57 -173 -57l-13 102q63 4 90 33q31 32 31 165v401h129v-436zM281 538h-86l-51 88h-2l-52 -88h-84l96 148h81z" />
    <glyph glyph-name="uni0136" unicode="&#x136;" horiz-adv-x="580" 
d="M211 -177q26 5 47 20.5t21 42.5q0 17 -9.5 33t-20.5 27l91 16q15 -11 27 -31t12 -46q0 -30 -12 -52t-32.5 -36t-47 -21.5t-56.5 -8.5zM585 0h-150l-180 303l-58 -70v-233h-128v674h128v-307h3q13 20 25 38.5t23 35.5l165 233h159l-225 -287z" />
    <glyph glyph-name="uni0137" unicode="&#x137;" horiz-adv-x="510" 
d="M178 -178q26 5 47 20t21 42q0 17 -10 33t-21 27l92 16q15 -11 27 -31t12 -46q0 -29 -12 -51t-32.5 -36.5t-47.5 -22t-56 -8.5zM522 0h-158l-131 211l-40 -48v-163h-129v709h129v-434h2q10 17 19.5 31.5t17.5 26.5l111 155h154l-175 -200z" />
    <glyph glyph-name="kgreenlandic" unicode="&#x138;" horiz-adv-x="510" 
d="M522 0h-158l-131 211l-40 -48v-163h-129v489h129v-214h2q10 17 19.5 31.5t17.5 26.5l111 155h154l-175 -200z" />
    <glyph glyph-name="Lacute" unicode="&#x139;" horiz-adv-x="489" 
d="M312 833l-127 -123h-102l90 123h139zM467 0h-398v674h129v-565h269v-109z" />
    <glyph glyph-name="lacute" unicode="&#x13a;" horiz-adv-x="257" 
d="M288 860l-124 -120h-104l88 120h140zM193 0h-129v709h129v-709z" />
    <glyph glyph-name="uni013B" unicode="&#x13b;" horiz-adv-x="489" 
d="M168 -178q26 5 47.5 20t21.5 42q0 17 -10 33t-21 27l91 16q15 -11 27 -31t12 -46q0 -30 -12 -51.5t-32.5 -35.5t-47 -21.5t-56.5 -8.5zM467 0h-398v674h129v-565h269v-109z" />
    <glyph glyph-name="uni013C" unicode="&#x13c;" horiz-adv-x="257" 
d="M36 -178q26 5 47 20t21 42q0 17 -10 33t-21 27l92 16q15 -11 27 -31t12 -46q0 -29 -12 -51t-32.5 -36.5t-47.5 -22t-56 -8.5zM193 0h-129v709h129v-709z" />
    <glyph glyph-name="Lcaron" unicode="&#x13d;" horiz-adv-x="489" 
d="M261 548q26 5 47.5 20t21.5 42q0 17 -10 33t-21 27l91 16q15 -11 27 -31t12 -46q0 -30 -12 -51.5t-32.5 -35.5t-47 -21.5t-56.5 -8.5zM467 0h-398v674h129v-565h269v-109z" />
    <glyph glyph-name="lcaron" unicode="&#x13e;" horiz-adv-x="276" 
d="M232 541q11 20 21 44t10 53q0 20 -7 37.5t-17 30.5l84 15q12 -9 22.5 -30t10.5 -48q0 -30 -8 -53t-18.5 -40t-21 -28t-16.5 -17zM193 0h-129v709h129v-709z" />
    <glyph glyph-name="Ldot" unicode="&#x13f;" horiz-adv-x="489" 
d="M467 0h-398v674h129v-565h269v-109zM448 404q0 -36 -22 -58.5t-58 -22.5q-34 0 -55.5 23t-21.5 58t22 58.5t57 23.5t56.5 -23.5t21.5 -58.5z" />
    <glyph glyph-name="ldot" unicode="&#x140;" horiz-adv-x="475" 
d="M193 0h-129v709h129v-709zM448 404q0 -36 -22 -58.5t-58 -22.5q-34 0 -55.5 23t-21.5 58t22 58.5t57 23.5t56.5 -23.5t21.5 -58.5z" />
    <glyph glyph-name="Lslash" unicode="&#x141;" horiz-adv-x="495" 
d="M472 0h-398v246l-77 -54v93l77 54v335h130v-248l126 89v-94l-126 -88v-224h268v-109z" />
    <glyph glyph-name="lslash" unicode="&#x142;" horiz-adv-x="268" 
d="M269 405l-70 -58v-347h-130v251l-65 -54v96l65 54v362h130v-266l70 58v-96z" />
    <glyph glyph-name="Nacute" unicode="&#x143;" horiz-adv-x="668" 
d="M502 833l-127 -123h-102l90 123h139zM599 0h-134l-164 286q-36 64 -65 121.5t-52 111.5l-3 -1q4 -60 5.5 -132.5t1.5 -157.5v-228h-119v674h147l162 -279q62 -108 111 -226l2 1q-5 59 -8 129t-3 153v222h119v-674z" />
    <glyph glyph-name="nacute" unicode="&#x144;" horiz-adv-x="566" 
d="M504 0h-130v276q0 117 -86 117q-21 0 -38.5 -8.5t-30 -23.5t-19.5 -34.5t-7 -40.5v-286h-129v340q0 34 -1 71t-3 77h113l6 -71h3q48 81 151 81q72 0 119 -47q52 -55 52 -160v-291zM433 694l-121 -148h-88l85 148h124z" />
    <glyph glyph-name="uni0145" unicode="&#x145;" horiz-adv-x="668" 
d="M259 -177q26 5 47 20.5t21 42.5q0 17 -10 33t-21 27l92 16q15 -11 27 -31t12 -46q0 -30 -12 -52t-32.5 -36t-47.5 -21.5t-56 -8.5zM599 0h-134l-164 286q-36 64 -65 121.5t-52 111.5l-3 -1q4 -60 5.5 -132.5t1.5 -157.5v-228h-119v674h147l162 -279q62 -108 111 -226l2 1
q-5 59 -8 129t-3 153v222h119v-674z" />
    <glyph glyph-name="uni0146" unicode="&#x146;" horiz-adv-x="566" 
d="M200 -178q26 5 47 20.5t21 42.5q0 17 -9.5 33t-20.5 27l91 16q15 -11 27 -31t12 -46q0 -30 -12 -52t-32.5 -36t-47 -21.5t-56.5 -8.5zM504 0h-130v276q0 117 -86 117q-21 0 -38.5 -8.5t-30 -23.5t-19.5 -34.5t-7 -40.5v-286h-129v340q0 34 -1 71t-3 77h113l6 -71h3
q48 81 151 81q72 0 119 -47q52 -55 52 -160v-291z" />
    <glyph glyph-name="Ncaron" unicode="&#x147;" horiz-adv-x="668" 
d="M493 833l-100 -123h-94l-100 123h92l55 -69h2l54 69h91zM599 0h-134l-164 286q-36 64 -65 121.5t-52 111.5l-3 -1q4 -60 5.5 -132.5t1.5 -157.5v-228h-119v674h147l162 -279q62 -108 111 -226l2 1q-5 59 -8 129t-3 153v222h119v-674z" />
    <glyph glyph-name="ncaron" unicode="&#x148;" horiz-adv-x="566" 
d="M504 0h-130v276q0 117 -86 117q-21 0 -38.5 -8.5t-30 -23.5t-19.5 -34.5t-7 -40.5v-286h-129v340q0 34 -1 71t-3 77h113l6 -71h3q48 81 151 81q72 0 119 -47q52 -55 52 -160v-291zM425 694l-97 -148h-88l-97 148h87l53 -89h2l53 89h87z" />
    <glyph glyph-name="napostrophe" unicode="&#x149;" horiz-adv-x="701" 
d="M217 692q-47 -154 -111 -259l-79 -8q47 131 66 257zM622 0h-130v276q0 117 -86 117q-21 0 -38.5 -8.5t-30 -23.5t-19.5 -34.5t-7 -40.5v-286h-129v340q0 34 -1 71t-3 77h113l6 -71h3q48 81 151 81q72 0 119 -47q52 -55 52 -160v-291z" />
    <glyph glyph-name="Eng" unicode="&#x14a;" horiz-adv-x="668" 
d="M599 52v-15v-37h-3q-9 -106 -61 -156q-60 -57 -173 -57l-13 102q63 4 90 33q18 20 26 78l-164 286q-36 64 -65 121.5t-52 111.5l-3 -1q4 -60 5.5 -132.5t1.5 -157.5v-228h-119v674h147l162 -279q62 -108 111 -226l2 1q-5 59 -8 129t-3 153v222h119v-622z" />
    <glyph glyph-name="eng" unicode="&#x14b;" horiz-adv-x="566" 
d="M504 0h-3q-9 -106 -61 -156q-60 -57 -173 -57l-13 102q63 4 90 33q25 27 30 119v235q0 117 -86 117q-21 0 -38.5 -8.5t-30 -23.5t-19.5 -34.5t-7 -40.5v-286h-129v340q0 34 -1 71t-3 77h113l6 -71h3q48 81 151 81q72 0 119 -47q52 -55 52 -160v-291z" />
    <glyph glyph-name="Omacron" unicode="&#x14c;" horiz-adv-x="692" 
d="M470 805v-71h-252v71h252zM657 344q0 -154 -80 -252q-85 -103 -237 -103q-143 0 -227 102q-78 94 -78 241q0 150 82 248q87 105 233 105q144 0 228 -101q79 -94 79 -240zM519 339q0 93 -39 161q-47 81 -134 81q-90 0 -136 -82q-40 -67 -40 -164q0 -94 40 -161
q48 -81 136 -81t135 83q38 68 38 163z" />
    <glyph glyph-name="omacron" unicode="&#x14d;" horiz-adv-x="557" 
d="M399 657v-74h-242v74h242zM523 248q0 -114 -67 -187q-68 -72 -180 -72q-110 0 -176 70t-66 181q0 116 67 186q67 72 183 72q110 0 174 -70q65 -71 65 -180zM389 245q0 61 -24 105q-30 54 -86 54q-58 0 -88 -54q-25 -43 -25 -107q0 -63 25 -106q30 -54 88 -54q56 0 86 56
q24 45 24 106z" />
    <glyph glyph-name="Obreve" unicode="&#x14e;" horiz-adv-x="692" 
d="M657 344q0 -154 -80 -252q-85 -103 -237 -103q-143 0 -227 102q-78 94 -78 241q0 150 82 248q87 105 233 105q144 0 228 -101q79 -94 79 -240zM519 339q0 93 -39 161q-47 81 -134 81q-90 0 -136 -82q-40 -67 -40 -164q0 -94 40 -161q48 -81 136 -81t135 83q38 68 38 163z
M471 859q0 -57 -32.5 -90.5t-93.5 -33.5q-62 0 -95 37q-29 35 -29 87h64q8 -62 60 -62q57 0 62 62h64z" />
    <glyph glyph-name="obreve" unicode="&#x14f;" horiz-adv-x="557" 
d="M523 248q0 -114 -67 -187q-68 -72 -180 -72q-110 0 -176 70t-66 181q0 116 67 186q67 72 183 72q110 0 174 -70q65 -71 65 -180zM389 245q0 61 -24 105q-30 54 -86 54q-58 0 -88 -54q-25 -43 -25 -107q0 -63 25 -106q30 -54 88 -54q56 0 86 56q24 45 24 106zM403 672
q0 -57 -32.5 -90.5t-93.5 -33.5q-62 0 -95 37q-29 35 -29 87h64q8 -62 60 -62q57 0 62 62h64z" />
    <glyph glyph-name="Ohungarumlaut" unicode="&#x150;" horiz-adv-x="692" 
d="M420 834l-105 -115h-90l70 115h125zM590 834l-106 -115h-90l71 115h125zM657 344q0 -154 -80 -252q-85 -103 -237 -103q-143 0 -227 102q-78 94 -78 241q0 150 82 248q87 105 233 105q144 0 228 -101q79 -94 79 -240zM519 339q0 93 -39 161q-47 81 -134 81
q-90 0 -136 -82q-40 -67 -40 -164q0 -94 40 -161q48 -81 136 -81t135 83q38 68 38 163z" />
    <glyph glyph-name="ohungarumlaut" unicode="&#x151;" horiz-adv-x="557" 
d="M523 248q0 -114 -67 -187q-68 -72 -180 -72q-110 0 -176 70t-66 181q0 116 67 186q67 72 183 72q110 0 174 -70q65 -71 65 -180zM389 245q0 61 -24 105q-30 54 -86 54q-58 0 -88 -54q-25 -43 -25 -107q0 -63 25 -106q30 -54 88 -54q56 0 86 56q24 45 24 106zM479 694
l-102 -143h-73l69 143h106zM318 694l-102 -143h-73l69 143h106z" />
    <glyph glyph-name="OE" unicode="&#x152;" horiz-adv-x="903" 
d="M866 0h-362q-11 0 -29 -1.5t-41 -3.5q-23 -3 -41 -5t-30 -1q-159 0 -247 102q-81 93 -81 241q0 163 91 257q91 96 241 96q24 0 74 -6q25 -2 43 -3.5t31 -1.5h336v-107h-261v-166h246v-105h-246v-189h276v-107zM461 567q-37 14 -86 14q-90 0 -145 -64q-59 -68 -59 -180
q0 -56 14.5 -101t42.5 -76.5t67.5 -49t89.5 -17.5q47 0 76 12v462z" />
    <glyph glyph-name="oe" unicode="&#x153;" horiz-adv-x="852" 
d="M821 263q0 -14 -1 -27t-3 -27h-310q2 -57 41.5 -89t98.5 -32q69 0 131 25l19 -88q-65 -35 -167 -35q-125 0 -182 95h-2q-57 -95 -181 -95q-100 0 -164 67q-67 70 -67 186t69 187q66 69 170 69q124 0 172 -96h2q57 96 171 96q104 0 158 -77q45 -65 45 -159zM699 298
q0 41 -17 73q-24 40 -77 40q-47 0 -75 -39q-23 -32 -25 -74h194zM386 245q0 62 -23 106q-29 54 -85 54q-58 0 -88 -54q-23 -44 -23 -107q0 -62 25 -105q30 -55 85 -55q59 0 87 55q22 43 22 106z" />
    <glyph glyph-name="Racute" unicode="&#x154;" horiz-adv-x="567" 
d="M445 833l-127 -123h-102l90 123h139zM414 0q-18 33 -45 159q-14 65 -40 90t-76 25h-56v-274h-128v665q40 7 86.5 10.5t100.5 3.5q142 0 207 -54q59 -48 59 -137q0 -61 -37 -107q-33 -42 -83 -60v-3q66 -26 92 -130l29 -115q16 -57 24 -73h-133zM393 477q0 104 -124 104
q-47 0 -72 -5v-207h67q60 0 94.5 29.5t34.5 78.5z" />
    <glyph glyph-name="racute" unicode="&#x155;" horiz-adv-x="357" 
d="M341 373q-16 4 -37 4q-55 0 -83 -35.5t-28 -90.5v-251h-129l1 331q0 45 -1 84t-3 73h112l5 -91h3q16 46 55 76q34 25 76 25q8 0 15.5 -0.5t13.5 -1.5v-123zM337 694l-121 -148h-88l85 148h124z" />
    <glyph glyph-name="uni0156" unicode="&#x156;" horiz-adv-x="567" 
d="M208 -178q26 5 47 20t21 42q0 17 -10 33t-21 27l92 16q15 -11 27 -31t12 -46q0 -29 -12 -51t-32.5 -36.5t-47.5 -22t-56 -8.5zM414 0q-18 33 -45 159q-14 65 -40 90t-76 25h-56v-274h-128v665q40 7 86.5 10.5t100.5 3.5q142 0 207 -54q59 -48 59 -137q0 -61 -37 -107
q-33 -42 -83 -60v-3q66 -26 92 -130l29 -115q16 -57 24 -73h-133zM393 477q0 104 -124 104q-47 0 -72 -5v-207h67q60 0 94.5 29.5t34.5 78.5z" />
    <glyph glyph-name="uni0157" unicode="&#x157;" horiz-adv-x="357" 
d="M36 -178q26 5 47 20t21 42q0 17 -10 33t-21 27l92 16q15 -11 27 -31t12 -46q0 -29 -12 -51t-32.5 -36.5t-47.5 -22t-56 -8.5zM341 373q-16 4 -37 4q-55 0 -83 -35.5t-28 -90.5v-251h-129l1 331q0 45 -1 84t-3 73h112l5 -91h3q16 46 55 76q34 25 76 25q8 0 15.5 -0.5
t13.5 -1.5v-123z" />
    <glyph glyph-name="Rcaron" unicode="&#x158;" horiz-adv-x="567" 
d="M424 833l-100 -123h-94l-100 123h92l55 -69h2l54 69h91zM414 0q-18 33 -45 159q-14 65 -40 90t-76 25h-56v-274h-128v665q40 7 86.5 10.5t100.5 3.5q142 0 207 -54q59 -48 59 -137q0 -61 -37 -107q-33 -42 -83 -60v-3q66 -26 92 -130l29 -115q16 -57 24 -73h-133z
M393 477q0 104 -124 104q-47 0 -72 -5v-207h67q60 0 94.5 29.5t34.5 78.5z" />
    <glyph glyph-name="rcaron" unicode="&#x159;" horiz-adv-x="357" 
d="M341 373q-16 4 -37 4q-55 0 -83 -35.5t-28 -90.5v-251h-129l1 331q0 45 -1 84t-3 73h112l5 -91h3q16 46 55 76q34 25 76 25q8 0 15.5 -0.5t13.5 -1.5v-123zM325 694l-97 -148h-88l-97 148h87l53 -89h2l53 89h87z" />
    <glyph glyph-name="Sacute" unicode="&#x15a;" horiz-adv-x="515" 
d="M424 833l-127 -123h-102l90 123h139zM477 194q0 -89 -64 -144q-69 -60 -193 -60q-110 0 -180 41l27 108q73 -42 161 -42q57 0 87 23.5t30 63.5q0 37 -26.5 61t-89.5 48q-179 66 -179 196q0 84 65 140q65 55 175 55q94 0 160 -33l-30 -104q-61 31 -133 31q-53 0 -81 -24
q-25 -21 -25 -53q0 -35 30 -59q27 -20 95 -48q171 -68 171 -200z" />
    <glyph glyph-name="sacute" unicode="&#x15b;" horiz-adv-x="414" 
d="M381 144q0 -71 -51 -111q-53 -43 -148 -43q-89 0 -148 34l25 93q58 -35 123 -35q74 0 74 51q0 24 -16.5 38.5t-59.5 29.5q-134 48 -134 143q0 66 51 110q52 44 135 44q77 0 129 -28l-25 -91q-49 28 -101 28q-65 0 -65 -49q0 -21 18 -34.5t64 -30.5q127 -46 129 -149z
M361 694l-121 -148h-88l85 148h124z" />
    <glyph glyph-name="Scircumflex" unicode="&#x15c;" horiz-adv-x="515" 
d="M477 194q0 -89 -64 -144q-69 -60 -193 -60q-110 0 -180 41l27 108q73 -42 161 -42q57 0 87 23.5t30 63.5q0 37 -26.5 61t-89.5 48q-179 66 -179 196q0 84 65 140q65 55 175 55q94 0 160 -33l-30 -104q-61 31 -133 31q-53 0 -81 -24q-25 -21 -25 -53q0 -35 30 -59
q27 -20 95 -48q171 -68 171 -200zM396 734h-86l-51 88h-2l-52 -88h-84l96 148h81z" />
    <glyph glyph-name="scircumflex" unicode="&#x15d;" horiz-adv-x="414" 
d="M381 144q0 -71 -51 -111q-53 -43 -148 -43q-89 0 -148 34l25 93q58 -35 123 -35q74 0 74 51q0 24 -16.5 38.5t-59.5 29.5q-134 48 -134 143q0 66 51 110q52 44 135 44q77 0 129 -28l-25 -91q-49 28 -101 28q-65 0 -65 -49q0 -21 18 -34.5t64 -30.5q127 -46 129 -149z
M345 548h-86l-51 88h-2l-52 -88h-84l96 148h81z" />
    <glyph glyph-name="Scedilla" unicode="&#x15e;" horiz-adv-x="515" 
d="M477 194q0 -89 -64 -144q-51 -45 -129 -55l-22 -41q30 -5 49 -22q22 -21 22 -49q0 -85 -115 -85q-47 0 -76 19l18 51q27 -15 55 -15q37 0 37 27q0 33 -77 38l37 72q-105 1 -172 41l27 108q73 -42 161 -42q57 0 87 23.5t30 63.5q0 37 -26.5 61t-89.5 48q-179 66 -179 196
q0 84 65 140q65 55 175 55q94 0 160 -33l-30 -104q-61 31 -133 31q-53 0 -81 -24q-25 -21 -25 -53q0 -35 30 -59q27 -20 95 -48q171 -68 171 -200z" />
    <glyph glyph-name="scedilla" unicode="&#x15f;" horiz-adv-x="414" 
d="M381 144q0 -71 -51 -111q-34 -27 -88 -38l-23 -41q30 -5 49 -22q22 -21 22 -49q0 -85 -115 -85q-47 0 -76 19l18 51q27 -15 54 -15q38 0 38 27q0 33 -77 38l37 72q-80 3 -135 34l25 93q58 -35 123 -35q74 0 74 51q0 24 -16.5 38.5t-59.5 29.5q-134 48 -134 143
q0 66 51 110q52 44 135 44q77 0 129 -28l-25 -91q-49 28 -101 28q-65 0 -65 -49q0 -21 18 -34.5t64 -30.5q127 -46 129 -149z" />
    <glyph glyph-name="Scaron" unicode="&#x160;" horiz-adv-x="515" 
d="M417 833l-100 -123h-94l-100 123h91l55 -69h2l55 69h91zM477 194q0 -89 -64 -144q-69 -60 -193 -60q-110 0 -180 41l27 108q73 -42 161 -42q57 0 87 23.5t30 63.5q0 37 -26.5 61t-89.5 48q-179 66 -179 196q0 84 65 140q65 55 175 55q94 0 160 -33l-30 -104
q-61 31 -133 31q-53 0 -81 -24q-25 -21 -25 -53q0 -35 30 -59q27 -20 95 -48q171 -68 171 -200z" />
    <glyph glyph-name="scaron" unicode="&#x161;" horiz-adv-x="414" 
d="M351 694l-96 -148h-88l-97 148h86l54 -89h2l53 89h86zM381 144q0 -71 -51 -111q-53 -43 -148 -43q-89 0 -148 34l25 93q58 -35 123 -35q74 0 74 51q0 24 -16.5 38.5t-59.5 29.5q-134 48 -134 143q0 66 51 110q52 44 135 44q77 0 129 -28l-25 -91q-49 28 -101 28
q-65 0 -65 -49q0 -21 18 -34.5t64 -30.5q127 -46 129 -149z" />
    <glyph glyph-name="uni0162" unicode="&#x162;" horiz-adv-x="521" 
d="M511 565h-187v-565h-129v565h-185v109h501v-109zM346 -117q0 -85 -115 -85q-48 0 -76 19l18 51q27 -15 55 -15q37 0 37 27q0 33 -77 38l44 86h71l-28 -50q28 -4 49 -22q22 -21 22 -49z" />
    <glyph glyph-name="uni0163" unicode="&#x163;" horiz-adv-x="351" 
d="M325 392h-114v-208q0 -88 62 -88q14 0 25 1.5t21 3.5l2 -99q-35 -12 -91 -12q-69 0 -107.5 40.5t-38.5 137.5v224h-67v96h67v90l127 36v-126h114v-96zM309 -117q0 -85 -115 -85q-48 0 -76 19l18 51q27 -15 55 -15q37 0 37 27q0 33 -77 38l44 86h71l-28 -50q28 -4 49 -22
q22 -21 22 -49z" />
    <glyph glyph-name="Tcaron" unicode="&#x164;" horiz-adv-x="521" 
d="M408 833l-100 -123h-94l-100 123h92l55 -69h2l54 69h91zM511 565h-187v-565h-129v565h-185v109h501v-109z" />
    <glyph glyph-name="tcaron" unicode="&#x165;" horiz-adv-x="361" 
d="M277 587q14 9 24.5 28t10.5 42q0 16 -7 30.5t-16 25.5l85 15q12 -9 22.5 -27.5t10.5 -41.5q0 -27 -10 -48t-25 -36t-32 -24t-30 -12zM325 392h-114v-208q0 -88 62 -88q14 0 25 1.5t21 3.5l2 -99q-35 -12 -91 -12q-69 0 -107.5 40.5t-38.5 137.5v224h-67v96h67v90l127 36
v-126h114v-96z" />
    <glyph glyph-name="Tbar" unicode="&#x166;" horiz-adv-x="521" 
d="M453 329h-129v-329h-129v329h-130v96h130v140h-185v109h501v-109h-187v-140h129v-96z" />
    <glyph glyph-name="tbar" unicode="&#x167;" horiz-adv-x="351" 
d="M325 199h-114v-15q0 -88 62 -88q14 0 25 1.5t21 3.5l2 -99q-35 -12 -91 -12q-69 0 -107.5 40.5t-38.5 137.5v31h-67v96h67v97h-67v96h67v90l127 36v-126h114v-96h-114v-97h114v-96z" />
    <glyph glyph-name="Utilde" unicode="&#x168;" horiz-adv-x="658" 
d="M590 288q0 -150 -70.5 -224.5t-196.5 -74.5q-255 0 -255 299v386h129v-395q0 -185 130 -185q133 0 133 185v395h130v-386zM468 834q0 -57 -18 -85t-57 -28q-29 0 -63 18q-36 20 -44 19q-21 0 -25 -43h-60v11q0 51 19 77.5t53 26.5q27 0 62 -20q31 -19 45 -19q24 0 28 43
h60z" />
    <glyph glyph-name="utilde" unicode="&#x169;" horiz-adv-x="563" 
d="M390 0l-6 71h-3q-49 -82 -152 -82q-75 0 -118 48q-49 52 -49 164v287h129v-266q0 -127 85 -127q62 0 87 61q6 16 6 37v295h130v-340q0 -37 1 -73.5t3 -74.5h-113zM413 677q0 -57 -17.5 -85t-56.5 -28q-29 0 -66 22q-28 16 -40 16q-22 0 -25 -44h-59v10q0 49 19 77t53 28
q25 0 64 -21q33 -18 44 -18q23 0 26 43h58z" />
    <glyph glyph-name="Umacron" unicode="&#x16a;" horiz-adv-x="658" 
d="M455 805v-71h-252v71h252zM590 288q0 -150 -70.5 -224.5t-196.5 -74.5q-255 0 -255 299v386h129v-395q0 -185 130 -185q133 0 133 185v395h130v-386z" />
    <glyph glyph-name="umacron" unicode="&#x16b;" horiz-adv-x="563" 
d="M403 657v-74h-242v74h242zM390 0l-6 71h-3q-49 -82 -152 -82q-75 0 -118 48q-49 53 -49 164v287h129v-266q0 -127 85 -127q62 0 87 61q6 16 6 37v295h130v-340q0 -37 1 -73.5t3 -74.5h-113z" />
    <glyph glyph-name="Ubreve" unicode="&#x16c;" horiz-adv-x="658" 
d="M590 288q0 -150 -70.5 -224.5t-196.5 -74.5q-255 0 -255 299v386h129v-395q0 -185 130 -185q133 0 133 185v395h130v-386zM454 848q0 -57 -32.5 -90.5t-93.5 -33.5q-62 0 -95 37q-29 35 -29 87h64q8 -62 60 -62q57 0 62 62h64z" />
    <glyph glyph-name="ubreve" unicode="&#x16d;" horiz-adv-x="563" 
d="M390 0l-6 71h-3q-49 -82 -152 -82q-75 0 -118 48q-49 53 -49 164v287h129v-266q0 -127 85 -127q62 0 87 61q6 16 6 37v295h130v-340q0 -37 1 -73.5t3 -74.5h-113zM407 662q0 -57 -32.5 -90.5t-93.5 -33.5q-62 0 -95 37q-29 35 -29 87h64q8 -62 60 -62q57 0 62 62h64z" />
    <glyph glyph-name="Uring" unicode="&#x16e;" horiz-adv-x="658" 
d="M381 791q0 22 -15.5 37.5t-37.5 15.5t-37 -15.5t-15 -37.5t15 -37t37 -15t37.5 15t15.5 37zM219 791q0 23 8.5 43t23 35t34 23.5t42.5 8.5t43.5 -8.5t35.5 -23.5t23.5 -35t8.5 -43t-8.5 -43t-23.5 -34.5t-35 -23t-43 -8.5t-43 8.5t-34.5 23t-23 34.5t-8.5 43zM590 288
q0 -150 -70.5 -224.5t-196.5 -74.5q-255 0 -255 299v386h129v-395q0 -185 130 -185q133 0 133 185v395h130v-386z" />
    <glyph glyph-name="uring" unicode="&#x16f;" horiz-adv-x="563" 
d="M378 629q0 -20 -7.5 -37.5t-21 -31t-31.5 -21t-38 -7.5t-38 7.5t-31.5 21t-21 31t-7.5 37.5q0 42 28 70t70 28t70 -28t28 -70zM324 629q0 18 -13 31t-31 13t-31 -13t-13 -31t13 -30.5t31 -12.5t31 13t13 30zM390 0l-6 71h-3q-49 -82 -152 -82q-75 0 -118 48
q-49 53 -49 164v287h129v-266q0 -127 85 -127q62 0 87 61q6 16 6 37v295h130v-340q0 -37 1 -73.5t3 -74.5h-113z" />
    <glyph glyph-name="Uhungarumlaut" unicode="&#x170;" horiz-adv-x="658" 
d="M388 834l-105 -115h-90l70 115h125zM558 834l-106 -115h-90l71 115h125zM590 288q0 -150 -70.5 -224.5t-196.5 -74.5q-255 0 -255 299v386h129v-395q0 -185 130 -185q133 0 133 185v395h130v-386z" />
    <glyph glyph-name="uhungarumlaut" unicode="&#x171;" horiz-adv-x="563" 
d="M390 0l-6 71h-3q-49 -82 -152 -82q-75 0 -118 48q-49 53 -49 164v287h129v-266q0 -127 85 -127q62 0 87 61q6 16 6 37v295h130v-340q0 -37 1 -73.5t3 -74.5h-113zM490 694l-102 -143h-73l69 143h106zM329 694l-102 -143h-73l69 143h106z" />
    <glyph glyph-name="Uogonek" unicode="&#x172;" horiz-adv-x="658" 
d="M590 288q0 -149 -71 -225q-42 -44 -104 -62q-20 -18 -38.5 -43.5t-18.5 -49.5q0 -20 13 -30t30 -10q23 0 44 10l18 -62q-20 -14 -46.5 -21.5t-52.5 -7.5q-48 0 -73.5 23t-25.5 63q0 36 19.5 66t38.5 50q-255 0 -255 299v386h129v-395q0 -185 130 -185q133 0 133 185v395
h130v-386z" />
    <glyph glyph-name="uogonek" unicode="&#x173;" horiz-adv-x="563" 
d="M463 1q-8 -13 -18 -35q-10 -21 -10 -44q0 -25 15 -39.5t38 -14.5q14 0 25 2t19 5l19 -61q-19 -14 -45.5 -21t-49.5 -7q-48 0 -76.5 24.5t-28.5 73.5q0 17 4.5 35t10.5 33.5t12.5 28.5t11.5 20l-6 70h-3q-49 -82 -152 -82q-75 0 -118 48q-49 53 -49 164v287h129v-266
q0 -127 85 -127q62 0 87 61q6 16 6 37v295h130v-340q0 -37 1 -73.5t3 -74.5z" />
    <glyph glyph-name="Wcircumflex" unicode="&#x174;" horiz-adv-x="860" 
d="M849 674l-176 -674h-138l-66 307q-25 116 -36 212h-2q-15 -98 -42 -213l-74 -306h-140l-160 674h138l60 -298q9 -48 19.5 -106t21.5 -129h2q7 45 18.5 103.5t28.5 133.5l68 296h135l62 -302q13 -60 22.5 -117t17.5 -111h2q8 57 19 115.5t24 118.5l64 296h132zM570 724
h-86l-51 88h-2l-52 -88h-84l96 148h81z" />
    <glyph glyph-name="wcircumflex" unicode="&#x175;" horiz-adv-x="741" 
d="M729 488l-150 -488h-120l-54 191q-10 35 -18.5 74t-16.5 81h-2q-7 -42 -15.5 -80.5t-19.5 -73.5l-58 -192h-120l-142 488h132l47 -216q18 -81 30 -158h2q5 29 14.5 68.5t23.5 88.5l60 217h104l56 -211q12 -44 21.5 -84.5t16.5 -78.5h2q5 40 13 80.5t18 82.5l49 211h127z
M509 538h-86l-51 88h-2l-52 -88h-84l96 148h81z" />
    <glyph glyph-name="Ycircumflex" unicode="&#x176;" horiz-adv-x="570" 
d="M566 674l-219 -391v-283h-129v279l-209 395h148l75 -170q17 -39 31 -72t25 -61h2q11 29 24.5 62.5t30.5 71.5l76 169h145zM425 724h-86l-51 88h-2l-52 -88h-84l96 148h81z" />
    <glyph glyph-name="ycircumflex" unicode="&#x177;" horiz-adv-x="497" 
d="M492 488l-117 -332q-85 -238 -167 -312q-61 -55 -131 -64l-30 109q33 8 71.5 34t62.5 71q8 16 8 22q0 7 -6 24l-176 448h143l82 -257q5 -16 11.5 -39t14.5 -54h3q4 16 10 39.5t14 54.5l70 256h137zM387 538h-86l-51 88h-2l-52 -88h-84l96 148h81z" />
    <glyph glyph-name="Ydieresis" unicode="&#x178;" horiz-adv-x="570" 
d="M449 777q0 -26 -17.5 -43.5t-43.5 -17.5q-25 0 -42.5 18t-17.5 43q0 26 17.5 43.5t43.5 17.5t43 -17.5t17 -43.5zM254 777q0 -26 -17 -43.5t-43 -17.5q-25 0 -42.5 18t-17.5 43q0 26 17.5 43.5t43.5 17.5t42.5 -17.5t16.5 -43.5zM566 674l-219 -391v-283h-129v279
l-209 395h148l75 -170q17 -39 31 -72t25 -61h2q11 29 24.5 62.5t30.5 71.5l76 169h145z" />
    <glyph glyph-name="Zacute" unicode="&#x179;" horiz-adv-x="556" 
d="M447 833l-127 -123h-102l90 123h139zM527 0h-502v72l330 494h-301v108h468v-77l-325 -489h330v-108z" />
    <glyph glyph-name="zacute" unicode="&#x17a;" horiz-adv-x="447" 
d="M427 0h-407v75l173 225q10 13 27.5 33.5t43.5 48.5v2h-226v104h383v-80l-168 -218q-17 -23 -35 -44t-37 -41v-2h246v-103zM384 694l-121 -148h-88l85 148h124z" />
    <glyph glyph-name="Zdotaccent" unicode="&#x17b;" horiz-adv-x="556" 
d="M285 716q-26 0 -44 18.5t-18 43.5q0 26 18 44t46 18q26 0 43 -18t17 -44q0 -25 -17.5 -43.5t-43.5 -18.5h-1zM527 0h-502v72l330 494h-301v108h468v-77l-325 -489h330v-108z" />
    <glyph glyph-name="zdotaccent" unicode="&#x17c;" horiz-adv-x="447" 
d="M427 0h-407v75l173 225q10 13 27.5 33.5t43.5 48.5v2h-226v104h383v-80l-168 -218q-17 -23 -35 -44t-37 -41v-2h246v-103zM297 612q0 -26 -17 -44t-43 -18t-43.5 18t-17.5 44t18 43.5t44 17.5t42.5 -17.5t16.5 -43.5z" />
    <glyph glyph-name="Zcaron" unicode="&#x17d;" horiz-adv-x="556" 
d="M445 833l-100 -123h-94l-100 123h92l55 -69h2l54 69h91zM527 0h-502v72l330 494h-301v108h468v-77l-325 -489h330v-108z" />
    <glyph glyph-name="zcaron" unicode="&#x17e;" horiz-adv-x="447" 
d="M372 694l-96 -148h-88l-97 148h87l53 -89h2l53 89h86zM427 0h-407v75l173 225q10 13 27.5 33.5t43.5 48.5v2h-226v104h383v-80l-168 -218q-17 -23 -35 -44t-37 -41v-2h246v-103z" />
    <glyph glyph-name="longs" unicode="&#x17f;" horiz-adv-x="321" 
d="M336 608q-24 9 -51 9q-77 0 -77 -104v-513h-129v392h-66v96h66v20q0 108 59 164q49 48 128 48q43 0 78 -12z" />
    <glyph glyph-name="uni0191" unicode="&#x191;" horiz-adv-x="504" 
d="M457 567h-259v-179h241v-105h-241v-283h-3q-9 -106 -61 -156q-60 -57 -173 -57l-13 102q63 4 90 33q28 31 31 146v606h388v-107z" />
    <glyph glyph-name="florin" unicode="&#x192;" horiz-adv-x="532" 
d="M469 553q-23 9 -48 9q-74 0 -88 -107l-6 -47h107v-91h-117l-23 -188q-12 -105 -50 -155q-47 -62 -139 -62q-53 0 -85 17l19 91q21 -10 50 -10q39 0 57.5 32t27.5 113l18 162h-82v91h93l4 38q11 83 48 137q55 78 159 78q48 0 76 -16z" />
    <glyph glyph-name="Ohorn" unicode="&#x1a0;" horiz-adv-x="692" 
d="M519 339q0 93 -39 161q-47 81 -134 81q-90 0 -136 -82q-40 -67 -40 -164q0 -94 40 -161q48 -81 136 -81t135 83q38 68 38 163zM657 344q0 -154 -80 -252q-85 -103 -237 -103q-143 0 -227 102q-78 94 -78 241q0 151 82 248q87 105 233 105q35 0 61 -5.5t48 -13.5
q12 -4 25.5 -10t27.5 -11.5t26.5 -9.5t23.5 -4q40 0 40 41q0 20 -6 37.5t-14 32.5l94 17q9 -19 15.5 -42.5t6.5 -52.5q0 -45 -25.5 -74.5t-79.5 -27.5q28 -39 46 -93.5t18 -124.5z" />
    <glyph glyph-name="ohorn" unicode="&#x1a1;" horiz-adv-x="565" 
d="M284 498q20 0 42 -3.5t40 -9.5q19 -6 41 -16.5t42 -10.5q36 0 36 38q0 18 -5.5 34.5t-13.5 31.5l92 16q9 -18 15 -40t6 -47q0 -45 -25 -71t-71 -28q19 -29 29.5 -64t10.5 -80q0 -114 -67 -187q-68 -72 -180 -72q-110 0 -176 70t-66 181q0 116 67 186q67 72 183 72z
M389 245q0 61 -24 105q-30 54 -86 54q-57 0 -88 -54q-25 -43 -25 -107q0 -63 25 -106q30 -54 88 -54q56 0 86 56q24 45 24 106z" />
    <glyph glyph-name="uni01A7" unicode="&#x1a7;" horiz-adv-x="515" 
d="M40 194q0 132 171 200q68 28 95 48q30 24 30 59q0 32 -25 53q-29 24 -81 24q-72 0 -133 -31l-30 104q66 33 160 33q110 0 174 -55q66 -56 66 -140q0 -130 -179 -196q-63 -24 -89.5 -48t-26.5 -61q0 -40 30 -63.5t87 -23.5q87 0 161 42l27 -108q-70 -41 -180 -41
q-124 0 -193 60q-64 55 -64 144z" />
    <glyph glyph-name="uni01A8" unicode="&#x1a8;" horiz-adv-x="414" 
d="M34 144q2 103 129 149q46 17 64 30.5t18 34.5q0 49 -65 49q-52 0 -101 -28l-25 91q52 28 129 28q83 0 135 -44q51 -44 51 -110q0 -95 -134 -143q-43 -15 -59.5 -29.5t-16.5 -38.5q0 -51 74 -51q65 0 123 35l25 -93q-59 -34 -148 -34q-95 0 -148 43q-51 40 -51 111z" />
    <glyph glyph-name="Uhorn" unicode="&#x1af;" horiz-adv-x="698" 
d="M590 288q0 -150 -70.5 -224.5t-196.5 -74.5q-255 0 -255 299v386h129v-395q0 -185 130 -185q133 0 133 185v395h104q29 0 39.5 9.5t10.5 29.5q0 31 -19 63l92 16q9 -19 14.5 -41t5.5 -46q0 -51 -28.5 -73t-88.5 -29v-315z" />
    <glyph glyph-name="uhorn" unicode="&#x1b0;" horiz-adv-x="563" 
d="M499 148q0 -37 1 -73.5t3 -74.5h-113l-6 71h-3q-49 -82 -152 -82q-75 0 -118 48q-49 52 -49 164v287h129v-266q0 -127 85 -127q62 0 87 61q6 16 6 37v295h85q29 0 39.5 11.5t10.5 28.5q0 15 -5.5 31t-13.5 32l92 15q9 -18 15 -39.5t6 -44.5q0 -45 -28.5 -71t-70.5 -26
v-277z" />
    <glyph glyph-name="uni01B5" unicode="&#x1b5;" horiz-adv-x="556" 
d="M437 302h-111l-129 -194h330v-108h-502v72l153 230h-49v96h113l113 168h-301v108h468v-77l-132 -199h47v-96z" />
    <glyph glyph-name="uni01B6" unicode="&#x1b6;" horiz-adv-x="447" 
d="M377 190h-124q-17 -23 -35 -44t-37 -41v-2h246v-103h-407v75l88 115h-39v96h113l11 14q10 13 27.5 33.5t43.5 48.5v2h-226v104h383v-80l-94 -122h50v-96z" />
    <glyph glyph-name="uni01C0" unicode="&#x1c0;" horiz-adv-x="264" 
d="M179 0h-93v674h93v-674z" />
    <glyph glyph-name="uni01C1" unicode="&#x1c1;" horiz-adv-x="422" 
d="M179 0h-93v674h93v-674zM343 0h-93v674h93v-674z" />
    <glyph glyph-name="uni01C2" unicode="&#x1c2;" horiz-adv-x="384" 
d="M357 429h-117v-121h117v-82h-117v-226h-93v226h-116v82h116v121h-116v81h116v164h93v-164h117v-81z" />
    <glyph glyph-name="uni01C3" unicode="&#x1c3;" horiz-adv-x="253" 
d="M195 674l-19 -463h-99l-19 463h137zM205 69q0 -35 -22 -57.5t-58 -22.5q-34 0 -55.5 23t-21.5 57q0 36 22 59t56 23q36 0 57.5 -23t21.5 -59z" />
    <glyph glyph-name="uni01C4" unicode="&#x1c4;" horiz-adv-x="1228" 
d="M637 353q0 -177 -105 -270q-101 -90 -300 -90q-94 0 -163 9v663q43 7 91 10.5t102 3.5q178 0 269 -73q106 -85 106 -253zM501 349q0 112 -58.5 170.5t-167.5 58.5q-46 0 -77 -6v-473q16 -3 62 -3q115 -1 178 63t63 190zM1199 0h-502v72l330 494h-301v108h468v-77
l-325 -489h330v-108zM1089 872l-97 -148h-88l-97 148h87l53 -89h2l53 89h87z" />
    <glyph glyph-name="uni01C5" unicode="&#x1c5;" horiz-adv-x="1119" 
d="M637 353q0 -177 -105 -270q-101 -90 -300 -90q-94 0 -163 9v663q43 7 91 10.5t102 3.5q178 0 269 -73q106 -85 106 -253zM501 349q0 112 -58.5 170.5t-167.5 58.5q-46 0 -77 -6v-473q16 -3 62 -3q115 -1 178 63t63 190zM1099 0h-407v75l173 225q10 13 27.5 33.5
t43.5 48.5v2h-226v104h383v-80l-168 -218q-17 -23 -35 -44t-37 -41v-2h246v-103zM1036 686l-97 -148h-88l-97 148h87l53 -89h2l53 89h87z" />
    <glyph glyph-name="uni01C6" unicode="&#x1c6;" horiz-adv-x="1022" 
d="M400 0l-6 74h-2q-46 -85 -153 -85q-88 0 -145 69q-60 70 -60 181q0 120 64 191q62 68 150 68q95 0 131 -60h2v271h130v-570q0 -38 1 -73t3 -66h-115zM381 285q0 10 -0.5 17.5t-1.5 12.5q-8 37 -33 59q-29 24 -65 24q-55 0 -85.5 -43t-30.5 -112q0 -67 30 -108.5t84 -41.5
q48 0 77 36q25 32 25 81v75zM1002 0h-407v75l173 225q10 13 27.5 33.5t43.5 48.5v2h-226v104h383v-80l-168 -218q-17 -23 -35 -44t-37 -41v-2h246v-103zM939 686l-97 -148h-88l-97 148h87l53 -89h2l53 89h87z" />
    <glyph glyph-name="uni01C7" unicode="&#x1c7;" horiz-adv-x="879" 
d="M467 0h-398v674h129v-565h269v-109zM816 237q0 -248 -224 -248q-61 0 -103 16l15 104q38 -11 74 -11q54 0 80 29q29 34 29 113v434h129v-437z" />
    <glyph glyph-name="uni01C8" unicode="&#x1c8;" horiz-adv-x="760" 
d="M467 0h-398v674h129v-565h269v-109zM709 633q0 -33 -22 -53t-55 -20q-32 0 -53 20.5t-21 52.5t21.5 52.5t54.5 20.5q32 0 53.5 -20.5t21.5 -52.5zM698 52q0 -147 -64 -208q-60 -57 -173 -57l-13 102q63 4 90 33q31 32 31 165v401h129v-436z" />
    <glyph glyph-name="uni01C9" unicode="&#x1c9;" horiz-adv-x="528" 
d="M193 0h-129v709h129v-709zM477 633q0 -33 -22 -53t-55 -20q-32 0 -53 20.5t-21 52.5t21.5 52.5t54.5 20.5q32 0 53.5 -20.5t21.5 -52.5zM466 52q0 -147 -64 -208q-60 -57 -173 -57l-13 102q63 4 90 33q31 32 31 165v401h129v-436z" />
    <glyph glyph-name="uni01CA" unicode="&#x1ca;" horiz-adv-x="1058" 
d="M599 0h-134l-164 286q-36 64 -65 121.5t-52 111.5l-3 -1q4 -60 5.5 -132.5t1.5 -157.5v-228h-119v674h147l162 -279q62 -108 111 -226l2 1q-5 59 -8 129t-3 153v222h119v-674zM995 237q0 -248 -224 -248q-61 0 -103 16l15 104q38 -11 74 -11q54 0 80 29q29 34 29 113v434
h129v-437z" />
    <glyph glyph-name="uni01CB" unicode="&#x1cb;" horiz-adv-x="939" 
d="M599 0h-134l-164 286q-36 64 -65 121.5t-52 111.5l-3 -1q4 -60 5.5 -132.5t1.5 -157.5v-228h-119v674h147l162 -279q62 -108 111 -226l2 1q-5 59 -8 129t-3 153v222h119v-674zM888 633q0 -33 -22 -53t-55 -20q-32 0 -53 20.5t-21 52.5t21.5 52.5t54.5 20.5
q32 0 53.5 -20.5t21.5 -52.5zM877 52q0 -147 -64 -208q-60 -57 -173 -57l-13 102q63 4 90 33q31 32 31 165v401h129v-436z" />
    <glyph glyph-name="uni01CC" unicode="&#x1cc;" horiz-adv-x="837" 
d="M504 0h-130v276q0 117 -86 117q-21 0 -38.5 -8.5t-30 -23.5t-19.5 -34.5t-7 -40.5v-286h-129v340q0 34 -1 71t-3 77h113l6 -71h3q48 81 151 81q72 0 119 -47q52 -55 52 -160v-291zM786 633q0 -33 -22 -53t-55 -20q-32 0 -53 20.5t-21 52.5t21.5 52.5t54.5 20.5
q32 0 53.5 -20.5t21.5 -52.5zM775 52q0 -147 -64 -208q-60 -57 -173 -57l-13 102q63 4 90 33q31 32 31 165v401h129v-436z" />
    <glyph glyph-name="uni01CD" unicode="&#x1cd;" horiz-adv-x="629" 
d="M606 0h-139l-57 185h-204l-53 -185h-134l210 674h165zM390 283l-49 159l-33 129h-3q-5 -22 -12.5 -54t-18.5 -75l-47 -159h163zM453 872l-97 -148h-88l-97 148h87l53 -89h2l53 89h87z" />
    <glyph glyph-name="uni01CE" unicode="&#x1ce;" horiz-adv-x="506" 
d="M335 0l-9 53h-3q-49 -64 -140 -64q-70 0 -113 45q-39 40 -39 101q0 91 74.5 138t208.5 47v8q0 79 -95 79q-71 0 -129 -35l-25 83q70 43 177 43q202 0 202 -206v-175q0 -38 1.5 -67t5.5 -50h-116zM318 237q-160 1 -160 -88q0 -68 67 -68q32 0 56.5 18.5t33.5 45.5
q3 10 3 27v65zM382 696l-97 -148h-88l-97 148h87l53 -89h2l53 89h87z" />
    <glyph glyph-name="uni01CF" unicode="&#x1cf;" horiz-adv-x="267" 
d="M198 0h-129v674h129v-674zM274 872l-97 -148h-88l-97 148h87l53 -89h2l53 89h87z" />
    <glyph glyph-name="uni01D0" unicode="&#x1d0;" horiz-adv-x="257" 
d="M193 0h-129v488h129v-488zM269 686l-97 -148h-88l-97 148h87l53 -89h2l53 89h87z" />
    <glyph glyph-name="uni01D1" unicode="&#x1d1;" horiz-adv-x="692" 
d="M657 344q0 -154 -80 -252q-85 -103 -237 -103q-143 0 -227 102q-78 94 -78 241q0 150 82 248q87 105 233 105q144 0 228 -101q79 -94 79 -240zM519 339q0 93 -39 161q-47 81 -134 81q-90 0 -136 -82q-40 -67 -40 -164q0 -94 40 -161q48 -81 136 -81t135 83q38 68 38 163z
M487 883l-97 -148h-88l-97 148h87l53 -89h2l53 89h87z" />
    <glyph glyph-name="uni01D2" unicode="&#x1d2;" horiz-adv-x="557" 
d="M523 248q0 -114 -67 -187q-68 -72 -180 -72q-110 0 -176 70t-66 181q0 116 67 186q67 72 183 72q110 0 174 -70q65 -71 65 -180zM389 245q0 61 -24 105q-30 54 -86 54q-58 0 -88 -54q-25 -43 -25 -107q0 -63 25 -106q30 -54 88 -54q56 0 86 56q24 45 24 106zM419 696
l-97 -148h-88l-97 148h87l53 -89h2l53 89h87z" />
    <glyph glyph-name="uni01D3" unicode="&#x1d3;" horiz-adv-x="658" 
d="M590 288q0 -150 -70.5 -224.5t-196.5 -74.5q-255 0 -255 299v386h129v-395q0 -185 130 -185q133 0 133 185v395h130v-386zM470 872l-97 -148h-88l-97 148h87l53 -89h2l53 89h87z" />
    <glyph glyph-name="uni01D4" unicode="&#x1d4;" horiz-adv-x="563" 
d="M390 0l-6 71h-3q-49 -82 -152 -82q-75 0 -118 48q-49 53 -49 164v287h129v-266q0 -127 85 -127q62 0 87 61q6 16 6 37v295h130v-340q0 -37 1 -73.5t3 -74.5h-113zM423 686l-97 -148h-88l-97 148h87l53 -89h2l53 89h87z" />
    <glyph glyph-name="uni01D5" unicode="&#x1d5;" horiz-adv-x="658" 
d="M590 288q0 -150 -70.5 -224.5t-196.5 -74.5q-255 0 -255 299v386h129v-395q0 -185 130 -185q133 0 133 185v395h130v-386zM488 786q0 -27 -17.5 -44.5t-43.5 -17.5t-43 18t-17 44t17.5 43.5t43.5 17.5t43 -17.5t17 -43.5zM293 786q0 -27 -17.5 -44.5t-43.5 -17.5
q-25 0 -43 18t-18 44t18 43.5t45 17.5q25 0 42 -17.5t17 -43.5zM449 897h-239v69h239v-69z" />
    <glyph glyph-name="uni01D6" unicode="&#x1d6;" horiz-adv-x="563" 
d="M390 0l-6 71h-3q-49 -82 -152 -82q-75 0 -118 48q-49 53 -49 164v287h129v-266q0 -127 85 -127q62 0 87 61q6 16 6 37v295h130v-340q0 -37 1 -73.5t3 -74.5h-113zM441 600q0 -27 -17.5 -44.5t-43.5 -17.5t-43 18t-17 44t17.5 43.5t43.5 17.5t43 -17.5t17 -43.5zM246 600
q0 -27 -17.5 -44.5t-43.5 -17.5q-25 0 -43 18t-18 44t18 43.5t45 17.5q25 0 42 -17.5t17 -43.5zM402 711h-239v69h239v-69z" />
    <glyph glyph-name="uni01D7" unicode="&#x1d7;" horiz-adv-x="658" 
d="M590 288q0 -150 -70.5 -224.5t-196.5 -74.5q-255 0 -255 299v386h129v-395q0 -185 130 -185q133 0 133 185v395h130v-386zM488 786q0 -27 -17.5 -44.5t-43.5 -17.5t-43 18t-17 44t17.5 43.5t43.5 17.5t43 -17.5t17 -43.5zM293 786q0 -27 -17.5 -44.5t-43.5 -17.5
q-25 0 -43 18t-18 44t18 43.5t45 17.5q25 0 42 -17.5t17 -43.5zM488 1045l-121 -148h-88l85 148h124z" />
    <glyph glyph-name="uni01D8" unicode="&#x1d8;" horiz-adv-x="563" 
d="M390 0l-6 71h-3q-49 -82 -152 -82q-75 0 -118 48q-49 53 -49 164v287h129v-266q0 -127 85 -127q62 0 87 61q6 16 6 37v295h130v-340q0 -37 1 -73.5t3 -74.5h-113zM441 600q0 -27 -17.5 -44.5t-43.5 -17.5t-43 18t-17 44t17.5 43.5t43.5 17.5t43 -17.5t17 -43.5zM246 600
q0 -27 -17.5 -44.5t-43.5 -17.5q-25 0 -43 18t-18 44t18 43.5t45 17.5q25 0 42 -17.5t17 -43.5zM445 859l-121 -148h-88l85 148h124z" />
    <glyph glyph-name="uni01D9" unicode="&#x1d9;" horiz-adv-x="658" 
d="M590 288q0 -150 -70.5 -224.5t-196.5 -74.5q-255 0 -255 299v386h129v-395q0 -185 130 -185q133 0 133 185v395h130v-386zM488 786q0 -27 -17.5 -44.5t-43.5 -17.5t-43 18t-17 44t17.5 43.5t43.5 17.5t43 -17.5t17 -43.5zM293 786q0 -27 -17.5 -44.5t-43.5 -17.5
q-25 0 -43 18t-18 44t18 43.5t45 17.5q25 0 42 -17.5t17 -43.5zM470 1045l-97 -148h-88l-97 148h87l53 -89h2l53 89h87z" />
    <glyph glyph-name="uni01DA" unicode="&#x1da;" horiz-adv-x="563" 
d="M390 0l-6 71h-3q-49 -82 -152 -82q-75 0 -118 48q-49 53 -49 164v287h129v-266q0 -127 85 -127q62 0 87 61q6 16 6 37v295h130v-340q0 -37 1 -73.5t3 -74.5h-113zM441 600q0 -27 -17.5 -44.5t-43.5 -17.5t-43 18t-17 44t17.5 43.5t43.5 17.5t43 -17.5t17 -43.5zM246 600
q0 -27 -17.5 -44.5t-43.5 -17.5q-25 0 -43 18t-18 44t18 43.5t45 17.5q25 0 42 -17.5t17 -43.5zM423 859l-97 -148h-88l-97 148h87l53 -89h2l53 89h87z" />
    <glyph glyph-name="uni01DB" unicode="&#x1db;" horiz-adv-x="658" 
d="M590 288q0 -150 -70.5 -224.5t-196.5 -74.5q-255 0 -255 299v386h129v-395q0 -185 130 -185q133 0 133 185v395h130v-386zM488 786q0 -27 -17.5 -44.5t-43.5 -17.5t-43 18t-17 44t17.5 43.5t43.5 17.5t43 -17.5t17 -43.5zM293 786q0 -27 -17.5 -44.5t-43.5 -17.5
q-25 0 -43 18t-18 44t18 43.5t45 17.5q25 0 42 -17.5t17 -43.5zM395 897h-88l-121 148h124z" />
    <glyph glyph-name="uni01DC" unicode="&#x1dc;" horiz-adv-x="563" 
d="M390 0l-6 71h-3q-49 -82 -152 -82q-75 0 -118 48q-49 53 -49 164v287h129v-266q0 -127 85 -127q62 0 87 61q6 16 6 37v295h130v-340q0 -37 1 -73.5t3 -74.5h-113zM441 600q0 -27 -17.5 -44.5t-43.5 -17.5t-43 18t-17 44t17.5 43.5t43.5 17.5t43 -17.5t17 -43.5zM246 600
q0 -27 -17.5 -44.5t-43.5 -17.5q-25 0 -43 18t-18 44t18 43.5t45 17.5q25 0 42 -17.5t17 -43.5zM344 711h-88l-121 148h124z" />
    <glyph glyph-name="uni01DD" unicode="&#x1dd;" horiz-adv-x="511" 
d="M34 228q0 35 4 55h317q-3 58 -45 90q-40 29 -100 29q-72 0 -131 -22l-19 89q72 30 169 30q58 0 104.5 -17t79 -49.5t49.5 -78t17 -102.5q0 -108 -60 -181q-66 -80 -177 -80q-106 0 -162 77q-46 64 -46 160zM155 193q0 -43 19 -74q25 -40 76 -40q48 0 77 39q23 31 28 75
h-200z" />
    <glyph glyph-name="uni01DE" unicode="&#x1de;" horiz-adv-x="629" 
d="M606 0h-139l-57 185h-204l-53 -185h-134l210 674h165zM390 283l-49 159l-33 129h-3q-5 -22 -12.5 -54t-18.5 -75l-47 -159h163zM471 786q0 -27 -17.5 -44.5t-43.5 -17.5t-43 18t-17 44t17.5 43.5t43.5 17.5t43 -17.5t17 -43.5zM276 786q0 -27 -17.5 -44.5t-43.5 -17.5
q-25 0 -43 18t-18 44t18 43.5t45 17.5q25 0 42 -17.5t17 -43.5zM432 897h-239v69h239v-69z" />
    <glyph glyph-name="uni01DF" unicode="&#x1df;" horiz-adv-x="506" 
d="M335 0l-9 53h-3q-49 -64 -140 -64q-70 0 -113 45q-39 40 -39 101q0 91 74.5 138t208.5 47v8q0 79 -95 79q-71 0 -129 -35l-25 83q70 43 177 43q202 0 202 -206v-175q0 -38 1.5 -67t5.5 -50h-116zM318 237q-160 1 -160 -88q0 -68 67 -68q32 0 56.5 18.5t33.5 45.5
q3 10 3 27v65zM400 610q0 -27 -17.5 -44.5t-43.5 -17.5t-43 18t-17 44t17.5 43.5t43.5 17.5t43 -17.5t17 -43.5zM205 610q0 -27 -17.5 -44.5t-43.5 -17.5q-25 0 -43 18t-18 44t18 43.5t45 17.5q25 0 42 -17.5t17 -43.5zM361 721h-239v69h239v-69z" />
    <glyph glyph-name="uni01E0" unicode="&#x1e0;" horiz-adv-x="629" 
d="M606 0h-139l-57 185h-204l-53 -185h-134l210 674h165zM390 283l-49 159l-33 129h-3q-5 -22 -12.5 -54t-18.5 -75l-47 -159h163zM373 786q0 -26 -17 -44t-43 -18t-43.5 18t-17.5 44t18 43.5t44 17.5t42.5 -17.5t16.5 -43.5zM432 897h-239v69h239v-69z" />
    <glyph glyph-name="uni01E1" unicode="&#x1e1;" horiz-adv-x="506" 
d="M335 0l-9 53h-3q-49 -64 -140 -64q-70 0 -113 45q-39 40 -39 101q0 91 74.5 138t208.5 47v8q0 79 -95 79q-71 0 -129 -35l-25 83q70 43 177 43q202 0 202 -206v-175q0 -38 1.5 -67t5.5 -50h-116zM318 237q-160 1 -160 -88q0 -68 67 -68q32 0 56.5 18.5t33.5 45.5
q3 10 3 27v65zM302 610q0 -26 -17 -44t-43 -18t-43.5 18t-17.5 44t18 43.5t44 17.5t42.5 -17.5t16.5 -43.5zM361 721h-239v69h239v-69z" />
    <glyph glyph-name="uni01E2" unicode="&#x1e2;" horiz-adv-x="824" 
d="M795 107v-107h-358l-25 202h-195l-83 -202h-133l288 674h474v-107h-273l19 -168h248v-106h-232l24 -186h246zM398 305l-20 174l-12 103h-3q-7 -18 -16 -44t-22 -60l-70 -173h143zM518 724h-239v69h239v-69z" />
    <glyph glyph-name="uni01E3" unicode="&#x1e3;" horiz-adv-x="781" 
d="M749 265q0 -17 -3 -51h-309q0 -60 37.5 -93.5t100.5 -33.5q68 0 131 26l19 -88q-68 -35 -169 -35q-61 0 -110.5 24.5t-72.5 69.5h-3q-57 -94 -178 -94q-75 0 -118 43t-43 105q0 88 76 133t209 45v16q0 26 -19 45q-27 31 -80 31q-70 0 -125 -37l-27 84q77 44 163 44
q116 0 157 -86h3q57 86 165 86q98 0 151 -77q45 -65 45 -157zM629 303v6q0 34 -18 63q-24 40 -73 40q-48 0 -77 -38q-23 -32 -25 -71h193zM319 235q-81 0 -121.5 -21t-40.5 -66q0 -31 20 -48t49 -17q40 0 66.5 26.5t26.5 65.5v60zM510 549h-239v69h239v-69z" />
    <glyph glyph-name="uni01E4" unicode="&#x1e4;" horiz-adv-x="737" 
d="M714 137h-111v-107q-102 -37 -214 -37q-168 0 -260 89q-95 91 -94 248q0 160 104 258q102 93 267 93q113 0 176 -31l-28 -105q-62 28 -149 28q-105 0 -168 -60q-66 -63 -66 -176q0 -56 16 -100t45 -75t70 -47t91 -16q57 0 84 11v27h-111v96h111v40h-111v102h237v-142h111
v-96z" />
    <glyph glyph-name="uni01E5" unicode="&#x1e5;" horiz-adv-x="610" 
d="M588 -92h-115q-17 -35 -42 -57q-67 -59 -188 -59q-103 0 -167 37l27 99q61 -37 139 -37q45 0 76 17h-38v96h93q1 7 1.5 14t0.5 15v38h-2q-45 -68 -136 -68q-89 0 -146 67t-57 171q0 115 66 189q62 68 151 68q94 0 136 -73h2l5 63h113q-2 -30 -3 -65.5t-1 -77.5v-275
q0 -18 -1 -34.5t-3 -31.5h89v-96zM374 293q0 45 -26 75.5t-71 30.5q-49 0 -80.5 -41t-31.5 -113q0 -63 30 -104t81 -41q71 0 92 69q6 18 6 43v81z" />
    <glyph glyph-name="Gcaron" unicode="&#x1e6;" horiz-adv-x="656" 
d="M603 30q-102 -37 -214 -37q-168 0 -260 89q-95 91 -94 248q0 160 104 258q102 93 267 93q113 0 176 -31l-28 -105q-62 28 -149 28q-105 0 -168 -60q-66 -63 -66 -176q0 -56 16 -100t45 -75t70 -47t91 -16q57 0 84 11v163h-111v102h237v-345zM557 879l-97 -148h-88
l-97 148h87l53 -89h2l53 89h87z" />
    <glyph glyph-name="gcaron" unicode="&#x1e7;" horiz-adv-x="566" 
d="M507 488q-2 -30 -3 -65.5t-1 -77.5v-275q0 -156 -72 -219q-67 -59 -188 -59q-103 0 -167 37l27 99q61 -37 139 -37q133 0 133 142v38h-2q-45 -68 -136 -68q-89 0 -146 67t-57 171q0 115 66 189q62 68 151 68q94 0 136 -73h2l5 63h113zM374 293q0 45 -26 75.5t-71 30.5
q-49 0 -80.5 -41t-31.5 -113q0 -63 30 -104t81 -41q71 0 92 69q6 18 6 43v81zM393 696l-97 -148h-88l-97 148h87l53 -89h2l53 89h87z" />
    <glyph glyph-name="uni01E8" unicode="&#x1e8;" horiz-adv-x="580" 
d="M585 0h-150l-180 303l-58 -70v-233h-128v674h128v-307h3q13 20 25 38.5t23 35.5l165 233h159l-225 -287zM392 872l-97 -148h-88l-97 148h87l53 -89h2l53 89h87z" />
    <glyph glyph-name="uni01E9" unicode="&#x1e9;" horiz-adv-x="510" 
d="M522 0h-158l-131 211l-40 -48v-163h-129v709h129v-434h2q10 17 19.5 31.5t17.5 26.5l111 155h154l-175 -200zM354 907l-97 -148h-88l-97 148h87l53 -89h2l53 89h87z" />
    <glyph glyph-name="uni01EA" unicode="&#x1ea;" horiz-adv-x="692" 
d="M657 344q0 -154 -80 -252q-85 -103 -237 -103q-143 0 -227 102q-78 94 -78 241q0 150 82 248q87 105 233 105q144 0 228 -101q79 -94 79 -240zM519 339q0 93 -39 161q-47 81 -134 81q-90 0 -136 -82q-40 -67 -40 -164q0 -94 40 -161q48 -81 136 -81t135 83q38 68 38 163z
M389 -192q-36 -17 -80 -17q-42 0 -66.5 21t-24.5 59t35 76q30 31 63 45h67q-39 -20 -66 -50t-27 -55q0 -40 41 -40q27 0 48 10z" />
    <glyph glyph-name="uni01EB" unicode="&#x1eb;" horiz-adv-x="557" 
d="M523 248q0 -114 -67 -187q-68 -72 -180 -72q-110 0 -176 70t-66 181q0 116 67 186q67 72 183 72q110 0 174 -70q65 -71 65 -180zM389 245q0 61 -24 105q-30 54 -86 54q-58 0 -88 -54q-25 -43 -25 -107q0 -63 25 -106q30 -54 88 -54q56 0 86 56q24 45 24 106zM317 -192
q-36 -17 -80 -17q-42 0 -66.5 21t-24.5 59t35 76q30 31 63 45h67q-39 -20 -66 -50t-27 -55q0 -40 41 -40q27 0 48 10z" />
    <glyph glyph-name="uni01EC" unicode="&#x1ec;" horiz-adv-x="692" 
d="M657 344q0 -154 -80 -252q-85 -103 -237 -103q-143 0 -227 102q-78 94 -78 241q0 150 82 248q87 105 233 105q144 0 228 -101q79 -94 79 -240zM519 339q0 93 -39 161q-47 81 -134 81q-90 0 -136 -82q-40 -67 -40 -164q0 -94 40 -161q48 -81 136 -81t135 83q38 68 38 163z
M376 -192q-36 -17 -80 -17q-42 0 -66.5 21t-24.5 59t35 76q30 31 63 45h67q-39 -20 -66 -50t-27 -55q0 -40 41 -40q27 0 48 10zM466 735h-239v69h239v-69z" />
    <glyph glyph-name="uni01ED" unicode="&#x1ed;" horiz-adv-x="557" 
d="M523 248q0 -114 -67 -187q-68 -72 -180 -72q-110 0 -176 70t-66 181q0 116 67 186q67 72 183 72q110 0 174 -70q65 -71 65 -180zM389 245q0 61 -24 105q-30 54 -86 54q-58 0 -88 -54q-25 -43 -25 -107q0 -63 25 -106q30 -54 88 -54q56 0 86 56q24 45 24 106zM311 -192
q-36 -17 -80 -17q-42 0 -66.5 21t-24.5 59t35 76q30 31 63 45h67q-39 -20 -66 -50t-27 -55q0 -40 41 -40q27 0 48 10zM398 548h-239v69h239v-69z" />
    <glyph glyph-name="uni01F0" unicode="&#x1f0;" horiz-adv-x="271" 
d="M209 52q0 -147 -64 -208q-60 -57 -173 -57l-13 102q63 4 90 33q31 32 31 165v401h129v-436zM285 686l-97 -148h-88l-97 148h87l53 -89h2l53 89h87z" />
    <glyph glyph-name="uni01F1" unicode="&#x1f1;" horiz-adv-x="1228" 
d="M637 353q0 -177 -105 -270q-101 -90 -300 -90q-94 0 -163 9v663q43 7 91 10.5t102 3.5q178 0 269 -73q106 -85 106 -253zM501 349q0 112 -58.5 170.5t-167.5 58.5q-46 0 -77 -6v-473q16 -3 62 -3q115 -1 178 63t63 190zM1199 0h-502v72l330 494h-301v108h468v-77
l-325 -489h330v-108z" />
    <glyph glyph-name="uni01F2" unicode="&#x1f2;" horiz-adv-x="1119" 
d="M637 353q0 -177 -105 -270q-101 -90 -300 -90q-94 0 -163 9v663q43 7 91 10.5t102 3.5q178 0 269 -73q106 -85 106 -253zM501 349q0 112 -58.5 170.5t-167.5 58.5q-46 0 -77 -6v-473q16 -3 62 -3q115 -1 178 63t63 190zM1099 0h-407v75l173 225q10 13 27.5 33.5
t43.5 48.5v2h-226v104h383v-80l-168 -218q-17 -23 -35 -44t-37 -41v-2h246v-103z" />
    <glyph glyph-name="uni01F3" unicode="&#x1f3;" horiz-adv-x="1022" 
d="M400 0l-6 74h-2q-46 -85 -153 -85q-88 0 -145 69q-60 70 -60 181q0 120 64 191q62 68 150 68q95 0 131 -60h2v271h130v-570q0 -38 1 -73t3 -66h-115zM381 285q0 10 -0.5 17.5t-1.5 12.5q-8 37 -33 59q-29 24 -65 24q-55 0 -85.5 -43t-30.5 -112q0 -67 30 -108.5t84 -41.5
q48 0 77 36q25 32 25 81v75zM1002 0h-407v75l173 225q10 13 27.5 33.5t43.5 48.5v2h-226v104h383v-80l-168 -218q-17 -23 -35 -44t-37 -41v-2h246v-103z" />
    <glyph glyph-name="uni01F4" unicode="&#x1f4;" horiz-adv-x="656" 
d="M603 30q-102 -37 -214 -37q-168 0 -260 89q-95 91 -94 248q0 160 104 258q102 93 267 93q113 0 176 -31l-28 -105q-62 28 -149 28q-105 0 -168 -60q-66 -63 -66 -176q0 -56 16 -100t45 -75t70 -47t91 -16q57 0 84 11v163h-111v102h237v-345zM557 879l-121 -148h-88
l85 148h124z" />
    <glyph glyph-name="uni01F5" unicode="&#x1f5;" horiz-adv-x="566" 
d="M507 488q-2 -30 -3 -65.5t-1 -77.5v-275q0 -156 -72 -219q-67 -59 -188 -59q-103 0 -167 37l27 99q61 -37 139 -37q133 0 133 142v38h-2q-45 -68 -136 -68q-89 0 -146 67t-57 171q0 115 66 189q62 68 151 68q94 0 136 -73h2l5 63h113zM374 293q0 45 -26 75.5t-71 30.5
q-49 0 -80.5 -41t-31.5 -113q0 -63 30 -104t81 -41q71 0 92 69q6 18 6 43v81zM418 696l-121 -148h-88l85 148h124z" />
    <glyph glyph-name="uni01F8" unicode="&#x1f8;" horiz-adv-x="668" 
d="M599 0h-134l-164 286q-36 64 -65 121.5t-52 111.5l-3 -1q4 -60 5.5 -132.5t1.5 -157.5v-228h-119v674h147l162 -279q62 -108 111 -226l2 1q-5 59 -8 129t-3 153v222h119v-674zM406 724h-88l-121 148h124z" />
    <glyph glyph-name="uni01F9" unicode="&#x1f9;" horiz-adv-x="566" 
d="M504 0h-130v276q0 117 -86 117q-21 0 -38.5 -8.5t-30 -23.5t-19.5 -34.5t-7 -40.5v-286h-129v340q0 34 -1 71t-3 77h113l6 -71h3q48 81 151 81q72 0 119 -47q52 -55 52 -160v-291zM347 548h-88l-121 148h124z" />
    <glyph glyph-name="Aringacute" unicode="&#x1fa;" horiz-adv-x="629" 
d="M606 0h-139l-57 185h-204l-53 -185h-134l210 674h165zM390 283l-49 159l-33 129h-3q-5 -22 -12.5 -54t-18.5 -75l-47 -159h163zM410 821q0 -20 -7.5 -37.5t-21 -31t-31.5 -21t-38 -7.5t-37.5 7.5t-31 21t-21 31t-7.5 37.5t7.5 38t21 31.5t31 21t37.5 7.5q42 0 70 -28
t28 -70zM356 821q0 18 -13 31t-31 13q-17 0 -30 -13t-13 -31q0 -17 13 -30t30 -13q18 0 31 13t13 30zM460 1117l-121 -148h-88l85 148h124z" />
    <glyph glyph-name="aringacute" unicode="&#x1fb;" horiz-adv-x="506" 
d="M335 0l-9 53h-3q-49 -64 -140 -64q-70 0 -113 45q-39 40 -39 101q0 91 74.5 138t208.5 47v8q0 79 -95 79q-71 0 -129 -35l-25 83q70 43 177 43q202 0 202 -206v-175q0 -38 1.5 -67t5.5 -50h-116zM318 237q-160 1 -160 -88q0 -68 67 -68q32 0 56.5 18.5t33.5 45.5
q3 10 3 27v65zM339 645q0 -20 -7.5 -37.5t-21 -31t-31.5 -21t-38 -7.5t-37.5 7.5t-31 21t-21 31t-7.5 37.5t7.5 38t21 31.5t31 21t37.5 7.5q42 0 70 -28t28 -70zM285 645q0 18 -13 31t-31 13q-17 0 -30 -13t-13 -31q0 -17 13 -30t30 -13q18 0 31 13t13 30zM400 941
l-121 -148h-88l85 148h124z" />
    <glyph glyph-name="AEacute" unicode="&#x1fc;" horiz-adv-x="824" 
d="M795 107v-107h-358l-25 202h-195l-83 -202h-133l288 674h474v-107h-273l19 -168h248v-106h-232l24 -186h246zM398 305l-20 174l-12 103h-3q-7 -18 -16 -44t-22 -60l-70 -173h143zM540 872l-121 -148h-88l85 148h124z" />
    <glyph glyph-name="aeacute" unicode="&#x1fd;" horiz-adv-x="781" 
d="M749 265q0 -17 -3 -51h-309q0 -60 37.5 -93.5t100.5 -33.5q68 0 131 26l19 -88q-68 -35 -169 -35q-61 0 -110.5 24.5t-72.5 69.5h-3q-57 -94 -178 -94q-75 0 -118 43t-43 105q0 88 76 133t209 45v16q0 26 -19 45q-27 31 -80 31q-70 0 -125 -37l-27 84q77 44 163 44
q116 0 157 -86h3q57 86 165 86q98 0 151 -77q45 -65 45 -157zM629 303v6q0 34 -18 63q-24 40 -73 40q-48 0 -77 -38q-23 -32 -25 -71h193zM319 235q-81 0 -121.5 -21t-40.5 -66q0 -31 20 -48t49 -17q40 0 66.5 26.5t26.5 65.5v60zM546 697l-121 -148h-88l85 148h124z" />
    <glyph glyph-name="Oslashacute" unicode="&#x1fe;" horiz-adv-x="692" 
d="M657 342q0 -165 -90 -261q-86 -92 -220 -92q-86 0 -150 40l-60 -87l-70 55l57 86q-89 98 -89 253q0 152 87 250q88 99 226 99q87 0 151 -40l55 80l74 -49l-57 -86q86 -95 86 -248zM439 550q-41 33 -92 33q-86 0 -135 -72q-47 -68 -47 -173q0 -72 32 -142l2 1zM527 339
q0 70 -29 134h-3l-238 -349q36 -33 89 -33q83 0 133 71q48 67 48 177zM501 923l-121 -148h-88l85 148h124z" />
    <glyph glyph-name="oslashacute" unicode="&#x1ff;" horiz-adv-x="557" 
d="M523 246q0 -124 -77 -195q-68 -62 -167 -62q-67 0 -116 28l-46 -66l-46 36l43 64q-80 69 -80 191q0 117 69 186q69 70 176 70h1q68 0 117 -28l44 65l49 -34l-44 -66q77 -69 77 -189zM342 382q-25 22 -63 22q-61 0 -92 -52q-27 -45 -27 -109q0 -54 22 -91l3 -1zM399 242
q0 51 -21 89l-2 1l-157 -227q22 -22 60 -22q55 0 87.5 44.5t32.5 114.5zM445 733l-121 -148h-88l85 148h124z" />
    <glyph glyph-name="uni0200" unicode="&#x200;" horiz-adv-x="629" 
d="M606 0h-139l-57 185h-204l-53 -185h-134l210 674h165zM390 283l-49 159l-33 129h-3q-5 -22 -12.5 -54t-18.5 -75l-47 -159h163zM250 867l69 -143h-73l-102 143h106zM411 867l69 -143h-73l-102 143h106z" />
    <glyph glyph-name="uni0201" unicode="&#x201;" horiz-adv-x="506" 
d="M335 0l-9 53h-3q-49 -64 -140 -64q-70 0 -113 45q-39 40 -39 101q0 91 74.5 138t208.5 47v8q0 79 -95 79q-71 0 -129 -35l-25 83q70 43 177 43q202 0 202 -206v-175q0 -38 1.5 -67t5.5 -50h-116zM318 237q-160 1 -160 -88q0 -68 67 -68q32 0 56.5 18.5t33.5 45.5
q3 10 3 27v65zM179 691l69 -143h-73l-102 143h106zM340 691l69 -143h-73l-102 143h106z" />
    <glyph glyph-name="uni0202" unicode="&#x202;" horiz-adv-x="629" 
d="M606 0h-139l-57 185h-204l-53 -185h-134l210 674h165zM390 283l-49 159l-33 129h-3q-5 -22 -12.5 -54t-18.5 -75l-47 -159h163zM187 724q0 57 32.5 90.5t93.5 33.5q62 0 95 -37q29 -35 29 -87h-64q-8 62 -60 62q-57 0 -62 -62h-64z" />
    <glyph glyph-name="uni0203" unicode="&#x203;" horiz-adv-x="506" 
d="M335 0l-9 53h-3q-49 -64 -140 -64q-70 0 -113 45q-39 40 -39 101q0 91 74.5 138t208.5 47v8q0 79 -95 79q-71 0 -129 -35l-25 83q70 43 177 43q202 0 202 -206v-175q0 -38 1.5 -67t5.5 -50h-116zM318 237q-160 1 -160 -88q0 -68 67 -68q32 0 56.5 18.5t33.5 45.5
q3 10 3 27v65zM116 548q0 57 32.5 90.5t93.5 33.5q62 0 95 -37q29 -35 29 -87h-64q-8 62 -60 62q-57 0 -62 -62h-64z" />
    <glyph glyph-name="uni0204" unicode="&#x204;" horiz-adv-x="511" 
d="M474 0h-405v674h390v-107h-261v-165h247v-106h-247v-189h276v-107zM209 867l69 -143h-73l-102 143h106zM370 867l69 -143h-73l-102 143h106z" />
    <glyph glyph-name="uni0205" unicode="&#x205;" horiz-adv-x="511" 
d="M479 262q0 -35 -4 -55h-317q3 -59 45 -90q40 -29 100 -29q72 0 131 22l19 -89q-72 -30 -169 -30q-59 0 -105 17t-78.5 49.5t-49.5 78t-17 102.5q0 107 60 181q66 80 177 80q106 0 162 -77q46 -64 46 -160zM358 297q0 43 -19 74q-25 40 -76 40q-49 0 -77 -39
q-23 -31 -28 -75h200zM194 692l69 -143h-73l-102 143h106zM355 692l69 -143h-73l-102 143h106z" />
    <glyph glyph-name="uni0206" unicode="&#x206;" horiz-adv-x="511" 
d="M474 0h-405v674h390v-107h-261v-165h247v-106h-247v-189h276v-107zM146 724q0 57 32.5 90.5t93.5 33.5q62 0 95 -37q29 -35 29 -87h-64q-8 62 -60 62q-57 0 -62 -62h-64z" />
    <glyph glyph-name="uni0207" unicode="&#x207;" horiz-adv-x="511" 
d="M479 262q0 -35 -4 -55h-317q3 -59 45 -90q40 -29 100 -29q72 0 131 22l19 -89q-72 -30 -169 -30q-59 0 -105 17t-78.5 49.5t-49.5 78t-17 102.5q0 107 60 181q66 80 177 80q106 0 162 -77q46 -64 46 -160zM358 297q0 43 -19 74q-25 40 -76 40q-49 0 -77 -39
q-23 -31 -28 -75h200zM131 549q0 57 32.5 90.5t93.5 33.5q62 0 95 -37q29 -35 29 -87h-64q-8 62 -60 62q-57 0 -62 -62h-64z" />
    <glyph glyph-name="uni0208" unicode="&#x208;" horiz-adv-x="267" 
d="M198 0h-129v674h129v-674zM71 867l69 -143h-73l-102 143h106zM232 867l69 -143h-73l-102 143h106z" />
    <glyph glyph-name="uni0209" unicode="&#x209;" horiz-adv-x="257" 
d="M193 0h-129v488h129v-488zM66 681l69 -143h-73l-102 143h106zM227 681l69 -143h-73l-102 143h106z" />
    <glyph glyph-name="uni020A" unicode="&#x20a;" horiz-adv-x="267" 
d="M198 0h-129v674h129v-674zM8 724q0 57 32.5 90.5t93.5 33.5q62 0 95 -37q29 -35 29 -87h-64q-8 62 -60 62q-57 0 -62 -62h-64z" />
    <glyph glyph-name="uni020B" unicode="&#x20b;" horiz-adv-x="257" 
d="M193 0h-129v488h129v-488zM3 538q0 57 32.5 90.5t93.5 33.5q62 0 95 -37q29 -35 29 -87h-64q-8 62 -60 62q-57 0 -62 -62h-64z" />
    <glyph glyph-name="uni020C" unicode="&#x20c;" horiz-adv-x="692" 
d="M657 344q0 -154 -80 -252q-85 -103 -237 -103q-143 0 -227 102q-78 94 -78 241q0 150 82 248q87 105 233 105q144 0 228 -101q79 -94 79 -240zM519 339q0 93 -39 161q-47 81 -134 81q-90 0 -136 -82q-40 -67 -40 -164q0 -94 40 -161q48 -81 136 -81t135 83q38 68 38 163z
M284 878l69 -143h-73l-102 143h106zM445 878l69 -143h-73l-102 143h106z" />
    <glyph glyph-name="uni020D" unicode="&#x20d;" horiz-adv-x="557" 
d="M523 248q0 -114 -67 -187q-68 -72 -180 -72q-110 0 -176 70t-66 181q0 116 67 186q67 72 183 72q110 0 174 -70q65 -71 65 -180zM389 245q0 61 -24 105q-30 54 -86 54q-58 0 -88 -54q-25 -43 -25 -107q0 -63 25 -106q30 -54 88 -54q56 0 86 56q24 45 24 106zM216 691
l69 -143h-73l-102 143h106zM377 691l69 -143h-73l-102 143h106z" />
    <glyph glyph-name="uni020E" unicode="&#x20e;" horiz-adv-x="692" 
d="M657 344q0 -154 -80 -252q-85 -103 -237 -103q-143 0 -227 102q-78 94 -78 241q0 150 82 248q87 105 233 105q144 0 228 -101q79 -94 79 -240zM519 339q0 93 -39 161q-47 81 -134 81q-90 0 -136 -82q-40 -67 -40 -164q0 -94 40 -161q48 -81 136 -81t135 83q38 68 38 163z
M221 735q0 57 32.5 90.5t93.5 33.5q62 0 95 -37q29 -35 29 -87h-64q-8 62 -60 62q-57 0 -62 -62h-64z" />
    <glyph glyph-name="uni020F" unicode="&#x20f;" horiz-adv-x="557" 
d="M523 248q0 -114 -67 -187q-68 -72 -180 -72q-110 0 -176 70t-66 181q0 116 67 186q67 72 183 72q110 0 174 -70q65 -71 65 -180zM389 245q0 61 -24 105q-30 54 -86 54q-58 0 -88 -54q-25 -43 -25 -107q0 -63 25 -106q30 -54 88 -54q56 0 86 56q24 45 24 106zM153 548
q0 57 32.5 90.5t93.5 33.5q62 0 95 -37q29 -35 29 -87h-64q-8 62 -60 62q-57 0 -62 -62h-64z" />
    <glyph glyph-name="uni0210" unicode="&#x210;" horiz-adv-x="567" 
d="M414 0q-18 33 -45 159q-14 65 -40 90t-76 25h-56v-274h-128v665q40 7 86.5 10.5t100.5 3.5q142 0 207 -54q59 -48 59 -137q0 -61 -37 -107q-33 -42 -83 -60v-3q66 -26 92 -130l29 -115q16 -57 24 -73h-133zM393 477q0 104 -124 104q-47 0 -72 -5v-207h67q60 0 94.5 29.5
t34.5 78.5zM246 872l69 -143h-73l-102 143h106zM407 872l69 -143h-73l-102 143h106z" />
    <glyph glyph-name="uni0211" unicode="&#x211;" horiz-adv-x="357" 
d="M341 373q-16 4 -37 4q-55 0 -83 -35.5t-28 -90.5v-251h-129l1 331q0 45 -1 84t-3 73h112l5 -91h3q16 46 55 76q34 25 76 25q8 0 15.5 -0.5t13.5 -1.5v-123zM139 691l69 -143h-73l-102 143h106zM300 691l69 -143h-73l-102 143h106z" />
    <glyph glyph-name="uni0212" unicode="&#x212;" horiz-adv-x="567" 
d="M414 0q-18 33 -45 159q-14 65 -40 90t-76 25h-56v-274h-128v665q40 7 86.5 10.5t100.5 3.5q142 0 207 -54q59 -48 59 -137q0 -61 -37 -107q-33 -42 -83 -60v-3q66 -26 92 -130l29 -115q16 -57 24 -73h-133zM393 477q0 104 -124 104q-47 0 -72 -5v-207h67q60 0 94.5 29.5
t34.5 78.5zM183 729q0 57 32.5 90.5t93.5 33.5q62 0 95 -37q29 -35 29 -87h-64q-8 62 -60 62q-57 0 -62 -62h-64z" />
    <glyph glyph-name="uni0213" unicode="&#x213;" horiz-adv-x="357" 
d="M341 373q-16 4 -37 4q-55 0 -83 -35.5t-28 -90.5v-251h-129l1 331q0 45 -1 84t-3 73h112l5 -91h3q16 46 55 76q34 25 76 25q8 0 15.5 -0.5t13.5 -1.5v-123zM76 548q0 57 32.5 90.5t93.5 33.5q62 0 95 -37q29 -35 29 -87h-64q-8 62 -60 62q-57 0 -62 -62h-64z" />
    <glyph glyph-name="uni0214" unicode="&#x214;" horiz-adv-x="658" 
d="M590 288q0 -150 -70.5 -224.5t-196.5 -74.5q-255 0 -255 299v386h129v-395q0 -185 130 -185q133 0 133 185v395h130v-386zM267 867l69 -143h-73l-102 143h106zM428 867l69 -143h-73l-102 143h106z" />
    <glyph glyph-name="uni0215" unicode="&#x215;" horiz-adv-x="563" 
d="M390 0l-6 71h-3q-49 -82 -152 -82q-75 0 -118 48q-49 53 -49 164v287h129v-266q0 -127 85 -127q62 0 87 61q6 16 6 37v295h130v-340q0 -37 1 -73.5t3 -74.5h-113zM220 681l69 -143h-73l-102 143h106zM381 681l69 -143h-73l-102 143h106z" />
    <glyph glyph-name="uni0216" unicode="&#x216;" horiz-adv-x="658" 
d="M590 288q0 -150 -70.5 -224.5t-196.5 -74.5q-255 0 -255 299v386h129v-395q0 -185 130 -185q133 0 133 185v395h130v-386zM204 724q0 57 32.5 90.5t93.5 33.5q62 0 95 -37q29 -35 29 -87h-64q-8 62 -60 62q-57 0 -62 -62h-64z" />
    <glyph glyph-name="uni0217" unicode="&#x217;" horiz-adv-x="563" 
d="M390 0l-6 71h-3q-49 -82 -152 -82q-75 0 -118 48q-49 53 -49 164v287h129v-266q0 -127 85 -127q62 0 87 61q6 16 6 37v295h130v-340q0 -37 1 -73.5t3 -74.5h-113zM157 538q0 57 32.5 90.5t93.5 33.5q62 0 95 -37q29 -35 29 -87h-64q-8 62 -60 62q-57 0 -62 -62h-64z" />
    <glyph glyph-name="uni0218" unicode="&#x218;" horiz-adv-x="515" 
d="M477 194q0 -89 -64 -144q-69 -60 -193 -60q-110 0 -180 41l27 108q73 -42 161 -42q57 0 87 23.5t30 63.5q0 37 -26.5 61t-89.5 48q-179 66 -179 196q0 84 65 140q65 55 175 55q94 0 160 -33l-30 -104q-61 31 -133 31q-53 0 -81 -24q-25 -21 -25 -53q0 -35 30 -59
q27 -20 95 -48q171 -68 171 -200zM313 -54q-46 -145 -104 -243l-79 -7q21 60 36.5 119.5t25.5 121.5z" />
    <glyph glyph-name="uni0219" unicode="&#x219;" horiz-adv-x="414" 
d="M381 144q0 -71 -51 -111q-53 -43 -148 -43q-89 0 -148 34l25 93q58 -35 123 -35q74 0 74 51q0 24 -16.5 38.5t-59.5 29.5q-134 48 -134 143q0 66 51 110q52 44 135 44q77 0 129 -28l-25 -91q-49 28 -101 28q-65 0 -65 -49q0 -21 18 -34.5t64 -30.5q127 -46 129 -149z
M263 -54q-46 -145 -104 -243l-79 -7q21 60 36.5 119.5t25.5 121.5z" />
    <glyph glyph-name="uni021A" unicode="&#x21a;" horiz-adv-x="521" 
d="M511 565h-187v-565h-129v565h-185v109h501v-109zM334 -38q-50 -162 -116 -270l-87 -8q23 66 40 132.5t28 135.5z" />
    <glyph glyph-name="uni021B" unicode="&#x21b;" horiz-adv-x="351" 
d="M325 392h-114v-208q0 -88 62 -88q14 0 25 1.5t21 3.5l2 -99q-35 -12 -91 -12q-69 0 -107.5 40.5t-38.5 137.5v224h-67v96h67v90l127 36v-126h114v-96zM284 -38q-50 -162 -116 -270l-87 -8q23 66 40 132.5t28 135.5z" />
    <glyph glyph-name="uni021E" unicode="&#x21e;" horiz-adv-x="665" 
d="M596 0h-130v293h-268v-293h-129v674h129v-268h268v268h130v-674zM473 872l-97 -148h-88l-97 148h87l53 -89h2l53 89h87z" />
    <glyph glyph-name="uni021F" unicode="&#x21f;" horiz-adv-x="566" 
d="M504 0h-130v274q0 119 -87 119q-42 0 -68 -29.5t-26 -71.5v-292h-129v709h129v-285h2q51 74 142 74q71 0 116 -48q51 -56 51 -162v-288zM381 907l-97 -148h-88l-97 148h87l53 -89h2l53 89h87z" />
    <glyph glyph-name="uni0226" unicode="&#x226;" horiz-adv-x="629" 
d="M606 0h-139l-57 185h-204l-53 -185h-134l210 674h165zM390 283l-49 159l-33 129h-3q-5 -22 -12.5 -54t-18.5 -75l-47 -159h163zM373 786q0 -26 -17 -44t-43 -18t-43.5 18t-17.5 44t18 43.5t44 17.5t42.5 -17.5t16.5 -43.5z" />
    <glyph glyph-name="uni0227" unicode="&#x227;" horiz-adv-x="506" 
d="M335 0l-9 53h-3q-49 -64 -140 -64q-70 0 -113 45q-39 40 -39 101q0 91 74.5 138t208.5 47v8q0 79 -95 79q-71 0 -129 -35l-25 83q70 43 177 43q202 0 202 -206v-175q0 -38 1.5 -67t5.5 -50h-116zM318 237q-160 1 -160 -88q0 -68 67 -68q32 0 56.5 18.5t33.5 45.5
q3 10 3 27v65zM302 610q0 -26 -17 -44t-43 -18t-43.5 18t-17.5 44t18 43.5t44 17.5t42.5 -17.5t16.5 -43.5z" />
    <glyph glyph-name="uni0228" unicode="&#x228;" horiz-adv-x="511" 
d="M474 0h-405v674h390v-107h-261v-165h247v-106h-247v-189h276v-107zM367 -121q0 -85 -115 -85q-48 0 -76 19l18 51q27 -15 55 -15q37 0 37 27q0 33 -77 38l44 86h71l-28 -50q28 -4 49 -22q22 -21 22 -49z" />
    <glyph glyph-name="uni0229" unicode="&#x229;" horiz-adv-x="511" 
d="M479 262q0 -35 -4 -55h-317q3 -59 45 -90q40 -29 100 -29q72 0 131 22l19 -89q-72 -30 -169 -30q-59 0 -105 17t-78.5 49.5t-49.5 78t-17 102.5q0 107 60 181q66 80 177 80q106 0 162 -77q46 -64 46 -160zM358 297q0 43 -19 74q-25 40 -76 40q-49 0 -77 -39
q-23 -31 -28 -75h200zM352 -130q0 -85 -115 -85q-48 0 -76 19l18 51q27 -15 55 -15q37 0 37 27q0 33 -77 38l44 86h71l-28 -50q28 -4 49 -22q22 -21 22 -49z" />
    <glyph glyph-name="uni022A" unicode="&#x22a;" horiz-adv-x="692" 
d="M657 344q0 -154 -80 -252q-85 -103 -237 -103q-143 0 -227 102q-78 94 -78 241q0 150 82 248q87 105 233 105q144 0 228 -101q79 -94 79 -240zM519 339q0 93 -39 161q-47 81 -134 81q-90 0 -136 -82q-40 -67 -40 -164q0 -94 40 -161q48 -81 136 -81t135 83q38 68 38 163z
M505 797q0 -27 -17.5 -44.5t-43.5 -17.5t-43 18t-17 44t17.5 43.5t43.5 17.5t43 -17.5t17 -43.5zM310 797q0 -27 -17.5 -44.5t-43.5 -17.5q-25 0 -43 18t-18 44t18 43.5t45 17.5q25 0 42 -17.5t17 -43.5zM466 908h-239v69h239v-69z" />
    <glyph glyph-name="uni022B" unicode="&#x22b;" horiz-adv-x="557" 
d="M523 248q0 -114 -67 -187q-68 -72 -180 -72q-110 0 -176 70t-66 181q0 116 67 186q67 72 183 72q110 0 174 -70q65 -71 65 -180zM389 245q0 61 -24 105q-30 54 -86 54q-58 0 -88 -54q-25 -43 -25 -107q0 -63 25 -106q30 -54 88 -54q56 0 86 56q24 45 24 106zM437 610
q0 -27 -17.5 -44.5t-43.5 -17.5t-43 18t-17 44t17.5 43.5t43.5 17.5t43 -17.5t17 -43.5zM242 610q0 -27 -17.5 -44.5t-43.5 -17.5q-25 0 -43 18t-18 44t18 43.5t45 17.5q25 0 42 -17.5t17 -43.5zM398 721h-239v69h239v-69z" />
    <glyph glyph-name="uni022C" unicode="&#x22c;" horiz-adv-x="692" 
d="M657 344q0 -154 -80 -252q-85 -103 -237 -103q-143 0 -227 102q-78 94 -78 241q0 150 82 248q87 105 233 105q144 0 228 -101q79 -94 79 -240zM519 339q0 93 -39 161q-47 81 -134 81q-90 0 -136 -82q-40 -67 -40 -164q0 -94 40 -161q48 -81 136 -81t135 83q38 68 38 163z
M478 854v-4q0 -109 -73 -109q-29 0 -66 22q-28 16 -41 16q-22 0 -24 -44h-60v4q0 52 18.5 81.5t53.5 29.5q26 0 65 -21q33 -18 44 -18q23 0 26 43h57zM466 904h-239v69h239v-69z" />
    <glyph glyph-name="uni022D" unicode="&#x22d;" horiz-adv-x="557" 
d="M523 248q0 -114 -67 -187q-68 -72 -180 -72q-110 0 -176 70t-66 181q0 116 67 186q67 72 183 72q110 0 174 -70q65 -71 65 -180zM389 245q0 61 -24 105q-30 54 -86 54q-58 0 -88 -54q-25 -43 -25 -107q0 -63 25 -106q30 -54 88 -54q56 0 86 56q24 45 24 106zM410 667v-4
q0 -109 -73 -109q-29 0 -66 22q-28 16 -41 16q-22 0 -24 -44h-60v4q0 52 18.5 81.5t53.5 29.5q26 0 65 -21q33 -18 44 -18q23 0 26 43h57zM398 717h-239v69h239v-69z" />
    <glyph glyph-name="uni022E" unicode="&#x22e;" horiz-adv-x="692" 
d="M657 344q0 -154 -80 -252q-85 -103 -237 -103q-143 0 -227 102q-78 94 -78 241q0 150 82 248q87 105 233 105q144 0 228 -101q79 -94 79 -240zM519 339q0 93 -39 161q-47 81 -134 81q-90 0 -136 -82q-40 -67 -40 -164q0 -94 40 -161q48 -81 136 -81t135 83q38 68 38 163z
M407 797q0 -26 -17 -44t-43 -18t-43.5 18t-17.5 44t18 43.5t44 17.5t42.5 -17.5t16.5 -43.5z" />
    <glyph glyph-name="uni022F" unicode="&#x22f;" horiz-adv-x="557" 
d="M523 248q0 -114 -67 -187q-68 -72 -180 -72q-110 0 -176 70t-66 181q0 116 67 186q67 72 183 72q110 0 174 -70q65 -71 65 -180zM389 245q0 61 -24 105q-30 54 -86 54q-58 0 -88 -54q-25 -43 -25 -107q0 -63 25 -106q30 -54 88 -54q56 0 86 56q24 45 24 106zM339 610
q0 -26 -17 -44t-43 -18t-43.5 18t-17.5 44t18 43.5t44 17.5t42.5 -17.5t16.5 -43.5z" />
    <glyph glyph-name="uni0230" unicode="&#x230;" horiz-adv-x="692" 
d="M657 344q0 -154 -80 -252q-85 -103 -237 -103q-143 0 -227 102q-78 94 -78 241q0 150 82 248q87 105 233 105q144 0 228 -101q79 -94 79 -240zM519 339q0 93 -39 161q-47 81 -134 81q-90 0 -136 -82q-40 -67 -40 -164q0 -94 40 -161q48 -81 136 -81t135 83q38 68 38 163z
M407 797q0 -26 -17 -44t-43 -18t-43.5 18t-17.5 44t18 43.5t44 17.5t42.5 -17.5t16.5 -43.5zM466 908h-239v69h239v-69z" />
    <glyph glyph-name="uni0231" unicode="&#x231;" horiz-adv-x="557" 
d="M523 248q0 -114 -67 -187q-68 -72 -180 -72q-110 0 -176 70t-66 181q0 116 67 186q67 72 183 72q110 0 174 -70q65 -71 65 -180zM389 245q0 61 -24 105q-30 54 -86 54q-58 0 -88 -54q-25 -43 -25 -107q0 -63 25 -106q30 -54 88 -54q56 0 86 56q24 45 24 106zM339 610
q0 -26 -17 -44t-43 -18t-43.5 18t-17.5 44t18 43.5t44 17.5t42.5 -17.5t16.5 -43.5zM398 721h-239v69h239v-69z" />
    <glyph glyph-name="uni0232" unicode="&#x232;" horiz-adv-x="570" 
d="M566 674l-219 -391v-283h-129v279l-209 395h148l75 -170q17 -39 31 -72t25 -61h2q11 29 24.5 62.5t30.5 71.5l76 169h145zM407 724h-239v69h239v-69z" />
    <glyph glyph-name="uni0233" unicode="&#x233;" horiz-adv-x="497" 
d="M492 488l-117 -332q-85 -238 -167 -312q-61 -55 -131 -64l-30 109q33 8 71.5 34t62.5 71q8 16 8 22q0 7 -6 24l-176 448h143l82 -257q5 -16 11.5 -39t14.5 -54h3q4 16 10 39.5t14 54.5l70 256h137zM369 538h-239v69h239v-69z" />
    <glyph glyph-name="uni0237" unicode="&#x237;" horiz-adv-x="271" 
d="M209 52q0 -147 -64 -208q-60 -57 -173 -57l-13 102q63 4 90 33q31 32 31 165v401h129v-436z" />
    <glyph glyph-name="uni0238" unicode="&#x238;" horiz-adv-x="575" 
d="M871 252q0 -123 -68 -197q-62 -66 -149 -66q-95 0 -143 74v-63h-119v74q-46 -85 -153 -85q-88 0 -145 69q-60 70 -60 181q0 120 64 191q62 68 150 68q95 0 131 -60v271h142v-285q50 74 152 74q87 0 143 -68q55 -67 55 -178zM740 246q0 67 -28 107q-32 44 -86 44
q-23 0 -42 -9.5t-33 -25t-22 -36.5t-8 -44v-81q0 -23 8 -42.5t21.5 -34.5t32.5 -23.5t42 -8.5q54 0 84.5 41t30.5 113zM381 285q0 10 -0.5 17.5t-1.5 12.5q-8 37 -33 59q-29 24 -65 24q-55 0 -85.5 -43t-30.5 -112q0 -67 30 -108.5t84 -41.5q48 0 77 36q25 32 25 81v75z" />
    <glyph glyph-name="uni0239" unicode="&#x239;" horiz-adv-x="575" 
d="M34 235q0 123 68 197q61 66 149 66q95 0 143 -74v63h119v-74q46 85 153 85q88 0 145 -69q60 -71 60 -181q0 -120 -64 -191q-62 -68 -150 -68q-95 0 -131 60v-271h-142v285q-50 -74 -152 -74q-88 0 -143 67t-55 179zM165 241q0 -67 28 -107q32 -44 86 -44q23 0 42 9.5
t33 25t22 36.5t8 44v81q0 22 -8 42t-21.5 35t-33 23.5t-41.5 8.5q-54 0 -84.5 -41t-30.5 -113zM524 202q0 -10 0.5 -17.5t1.5 -12.5q8 -37 33 -59q28 -24 65 -24q55 0 85.5 43t30.5 112q0 67 -30 108.5t-84 41.5q-49 0 -77 -36q-25 -32 -25 -81v-75z" />
    <glyph glyph-name="uni02B9" unicode="&#x2b9;" horiz-adv-x="239" 
d="M217 692l-111 -259l-79 -8l66 257z" />
    <glyph glyph-name="uni02BA" unicode="&#x2ba;" horiz-adv-x="414" 
d="M393 692l-110 -259l-79 -8l66 257zM216 692l-111 -259l-79 -8l66 257z" />
    <glyph glyph-name="uni02BB" unicode="&#x2bb;" horiz-adv-x="239" 
d="M218 692q-47 -131 -66 -257l-124 -10q47 154 111 259z" />
    <glyph glyph-name="afii57929" unicode="&#x2bc;" horiz-adv-x="239" 
d="M217 692q-47 -154 -111 -259l-79 -8q47 131 66 257z" />
    <glyph glyph-name="circumflex" unicode="&#x2c6;" horiz-adv-x="300" 
d="M288 546h-86l-51 88h-2l-52 -88h-84l96 148h81z" />
    <glyph glyph-name="caron" unicode="&#x2c7;" horiz-adv-x="300" 
d="M291 694l-97 -148h-88l-97 148h87l53 -89h2l53 89h87z" />
    <glyph glyph-name="uni02C9" unicode="&#x2c9;" horiz-adv-x="300" 
d="M270 583h-239v69h239v-69z" />
    <glyph glyph-name="breve" unicode="&#x2d8;" horiz-adv-x="300" 
d="M275 684q0 -57 -32.5 -90.5t-93.5 -33.5q-62 0 -95 37q-29 35 -29 87h64q8 -62 60 -62q57 0 62 62h64z" />
    <glyph glyph-name="dotaccent" unicode="&#x2d9;" horiz-adv-x="300" 
d="M189 612q0 -26 -17 -44t-43 -18t-43.5 18t-17.5 44t18 43.5t44 17.5t42.5 -17.5t16.5 -43.5z" />
    <glyph glyph-name="ring" unicode="&#x2da;" horiz-adv-x="400" 
d="M297 629q0 -20 -7.5 -37.5t-21 -31t-31.5 -21t-38 -7.5t-37.5 7.5t-31 21t-21 31t-7.5 37.5t7.5 38t21 31.5t31 21t37.5 7.5q42 0 70 -28t28 -70zM243 629q0 18 -13 31t-31 13q-17 0 -30 -13t-13 -31q0 -17 13 -30t30 -13q18 0 31 13t13 30z" />
    <glyph glyph-name="ogonek" unicode="&#x2db;" horiz-adv-x="300" 
d="M231 -184q-36 -17 -80 -17q-42 0 -66.5 21t-24.5 59t35 76q30 31 63 45h67q-39 -20 -66 -50t-27 -55q0 -40 41 -40q27 0 48 10z" />
    <glyph glyph-name="tilde" unicode="&#x2dc;" horiz-adv-x="300" 
d="M282 677v-4q0 -109 -73 -109q-29 0 -66 22q-28 16 -41 16q-22 0 -24 -44h-60v4q0 52 18.5 81.5t53.5 29.5q26 0 65 -21q33 -18 44 -18q23 0 26 43h57z" />
    <glyph glyph-name="hungarumlaut" unicode="&#x2dd;" horiz-adv-x="300" 
d="M352 694l-102 -143h-73l69 143h106zM191 694l-102 -143h-73l69 143h106z" />
    <glyph glyph-name="uni02EE" unicode="&#x2ee;" horiz-adv-x="414" 
d="M393 692q-23 -76 -50.5 -140.5t-59.5 -118.5l-79 -8q47 131 66 257zM216 692q-47 -154 -111 -259l-79 -8q47 131 66 257z" />
    <glyph glyph-name="gravecomb" unicode="&#x300;" 
d="M105 546h-88l-121 148h124z" />
    <glyph glyph-name="acutecomb" unicode="&#x301;" 
d="M105 694l-121 -148h-88l85 148h124z" />
    <glyph glyph-name="uni0302" unicode="&#x302;" 
d="M138 546h-86l-51 88h-2l-52 -88h-84l96 148h81z" />
    <glyph glyph-name="tildecomb" unicode="&#x303;" 
d="M132 677v-4q0 -109 -73 -109q-29 0 -66 22q-28 16 -41 16q-22 0 -24 -44h-60v4q0 52 18.5 81.5t53.5 29.5q26 0 65 -21q33 -18 44 -18q23 0 26 43h57z" />
    <glyph glyph-name="macroncmb" unicode="&#x304;" horiz-adv-x="300" 
d="M270 583h-239v69h239v-69z" />
    <glyph glyph-name="uni0306" unicode="&#x306;" 
d="M125 684q0 -57 -32.5 -90.5t-93.5 -33.5q-62 0 -95 37q-29 35 -29 87h64q8 -62 60 -62q57 0 62 62h64z" />
    <glyph glyph-name="uni0307" unicode="&#x307;" 
d="M61 612q0 -26 -17 -44t-43 -18t-43.5 18t-17.5 44t18 43.5t44 17.5t42.5 -17.5t16.5 -43.5z" />
    <glyph glyph-name="uni0308" unicode="&#x308;" 
d="M159 612q0 -27 -17.5 -44.5t-43.5 -17.5t-43 18t-17 44t17.5 43.5t43.5 17.5t43 -17.5t17 -43.5zM-36 612q0 -27 -17.5 -44.5t-43.5 -17.5q-25 0 -43 18t-18 44t18 43.5t45 17.5q25 0 42 -17.5t17 -43.5z" />
    <glyph glyph-name="hookabovecomb" unicode="&#x309;" 
d="M-38 543q4 17 13 29t18 22.5t16 20.5t7 24q0 15 -8.5 24.5t-22.5 9.5q-15 0 -26 -11.5t-19 -23.5l-43 27q15 32 42.5 53t69.5 21q40 0 67 -23t27 -59q0 -24 -9 -40t-21.5 -29.5t-26 -27.5t-21.5 -32z" />
    <glyph glyph-name="uni030A" unicode="&#x30a;" 
d="M98 629q0 -20 -7.5 -37.5t-21 -31t-31.5 -21t-38 -7.5t-37.5 7.5t-31 21t-21 31t-7.5 37.5t7.5 38t21 31.5t31 21t37.5 7.5q42 0 70 -28t28 -70zM44 629q0 18 -13 31t-31 13q-17 0 -30 -13t-13 -31q0 -17 13 -30t30 -13q18 0 31 13t13 30z" />
    <glyph glyph-name="uni030B" unicode="&#x30b;" 
d="M168 694l-102 -143h-73l69 143h106zM7 694l-102 -143h-73l69 143h106z" />
    <glyph glyph-name="uni030C" unicode="&#x30c;" 
d="M141 694l-97 -148h-88l-97 148h87l53 -89h2l53 89h87z" />
    <glyph glyph-name="uni030D" unicode="&#x30d;" 
d="M-34 507v187h69v-187h-69z" />
    <glyph glyph-name="uni030E" unicode="&#x30e;" 
d="M-109 507v187h69v-187h-69zM41 507v187h69v-187h-69z" />
    <glyph glyph-name="uni030F" unicode="&#x30f;" 
d="M-62 694l69 -143h-73l-102 143h106zM99 694l69 -143h-73l-102 143h106z" />
    <glyph glyph-name="uni0311" unicode="&#x311;" 
d="M-125 560q0 57 32.5 90.5t93.5 33.5q62 0 95 -37q29 -35 29 -87h-64q-8 62 -60 62q-57 0 -62 -62h-64z" />
    <glyph glyph-name="uni0312" unicode="&#x312;" 
d="M-91 483q23 74 49 134.5t55 108.5l79 7q-22 -60 -37 -120t-24 -121z" />
    <glyph glyph-name="uni0313" unicode="&#x313;" 
d="M92 733q-23 -74 -49 -134.5t-55 -108.5l-79 -7q22 60 37 120t24 121z" />
    <glyph glyph-name="uni0314" unicode="&#x314;" 
d="M31 724q9 -61 24 -121t37 -120l-79 7q-29 48 -55 108.5t-49 134.5z" />
    <glyph glyph-name="uni0316" unicode="&#x316;" 
d="M105 -206h-88l-121 148h124z" />
    <glyph glyph-name="uni0317" unicode="&#x317;" 
d="M105 -58l-121 -148h-88l85 148h124z" />
    <glyph glyph-name="uni031B" unicode="&#x31b;" 
d="M-86 674q15 0 29 2.5t25.5 7t18.5 12t7 17.5q0 31 -19 63l92 16q9 -19 14.5 -41t5.5 -46q0 -50 -29 -73q-27 -21 -118 -29z" />
    <glyph glyph-name="uni031C" unicode="&#x31c;" 
d="M49 -79q-18 0 -31 -13t-13 -31q0 -17 13 -30t31 -13v-54q-20 0 -38 7.5t-31.5 21t-21 31t-7.5 37.5q0 42 28 70t70 28v-54z" />
    <glyph glyph-name="dotbelowcomb" unicode="&#x323;" 
d="M61 -141q0 -26 -17 -44t-43 -18t-43.5 18t-17.5 44t18 43.5t44 17.5t42.5 -17.5t16.5 -43.5z" />
    <glyph glyph-name="uni0324" unicode="&#x324;" 
d="M159 -141q0 -27 -17.5 -44.5t-43.5 -17.5t-43 18t-17 44t17.5 43.5t43.5 17.5t43 -17.5t17 -43.5zM-36 -141q0 -27 -17.5 -44.5t-43.5 -17.5q-25 0 -43 18t-18 44t18 43.5t45 17.5q25 0 42 -17.5t17 -43.5z" />
    <glyph glyph-name="uni0325" unicode="&#x325;" 
d="M98 -124q0 -20 -7.5 -37.5t-21 -31t-31.5 -21t-38 -7.5t-37.5 7.5t-31 21t-21 31t-7.5 37.5t7.5 38t21 31.5t31 21t37.5 7.5q42 0 70 -28t28 -70zM44 -124q0 18 -13 31t-31 13q-17 0 -30 -13t-13 -31q0 -17 13 -30t30 -13q18 0 31 13t13 30z" />
    <glyph glyph-name="uni0326" unicode="&#x326;" 
d="M92 -19q-23 -74 -49 -134.5t-55 -108.5l-79 -7q22 60 37 120t24 121z" />
    <glyph glyph-name="uni0327" unicode="&#x327;" 
d="M96 -117q0 -85 -115 -85q-48 0 -76 19l18 51q27 -15 55 -15q37 0 37 27q0 33 -77 38l44 86h71l-28 -50q28 -4 49 -22q22 -21 22 -49z" />
    <glyph glyph-name="uni0328" unicode="&#x328;" 
d="M86 -184q-36 -17 -80 -17q-42 0 -66.5 21t-24.5 59t35 76q30 31 63 45h67q-39 -20 -66 -50t-27 -55q0 -40 41 -40q27 0 48 10z" />
    <glyph glyph-name="uni0329" unicode="&#x329;" 
d="M-34 -245v187h69v-187h-69z" />
    <glyph glyph-name="uni032C" unicode="&#x32c;" 
d="M141 -58l-97 -148h-88l-97 148h87l53 -89h2l53 89h87z" />
    <glyph glyph-name="uni032D" unicode="&#x32d;" 
d="M138 -206h-86l-51 88h-2l-52 -88h-84l96 148h81z" />
    <glyph glyph-name="uni032E" unicode="&#x32e;" 
d="M125 -68q0 -57 -32.5 -90.5t-93.5 -33.5q-62 0 -95 37q-29 35 -29 87h64q8 -62 60 -62q57 0 62 62h64z" />
    <glyph glyph-name="uni032F" unicode="&#x32f;" 
d="M-125 -192q0 57 32.5 90.5t93.5 33.5q62 0 95 -37q29 -35 29 -87h-64q-8 62 -60 62q-57 0 -62 -62h-64z" />
    <glyph glyph-name="uni0330" unicode="&#x330;" 
d="M132 -75v-4q0 -109 -73 -109q-29 0 -66 22q-28 16 -41 16q-22 0 -24 -44h-60v4q0 52 18.5 81.5t53.5 29.5q26 0 65 -21q33 -18 44 -18q23 0 26 43h57z" />
    <glyph glyph-name="uni0331" unicode="&#x331;" 
d="M120 -169h-239v69h239v-69z" />
    <glyph glyph-name="uni0339" unicode="&#x339;" 
d="M-49 -25q42 0 70 -28t28 -70q0 -20 -7.5 -37.5t-21 -31t-31.5 -21t-38 -7.5v54q18 0 31 13t13 30q0 18 -13 31t-31 13v54z" />
    <glyph glyph-name="uni033E" unicode="&#x33e;" 
d="M60 692q-43 -3 -43 -26q0 -11 18 -44q21 -39 21 -65q-1 -35 -30.5 -53.5t-81.5 -18.5h-4l1 60q44 2 44 24q0 13 -16 41q-22 37 -22 66q0 73 109 73h4v-57z" />
    <glyph glyph-name="uni0340" unicode="&#x340;" 
d="M105 546h-88l-121 148h124z" />
    <glyph glyph-name="uni0341" unicode="&#x341;" 
d="M105 694l-121 -148h-88l85 148h124z" />
    <glyph glyph-name="uni0342" unicode="&#x342;" 
d="M132 677v-4q0 -109 -73 -109q-29 0 -66 22q-28 16 -41 16q-22 0 -24 -44h-60v4q0 52 18.5 81.5t53.5 29.5q26 0 65 -21q33 -18 44 -18q23 0 26 43h57z" />
    <glyph glyph-name="uni0343" unicode="&#x343;" 
d="M83 699l-82 -149h-84l49 149h117z" />
    <glyph glyph-name="uni0344" unicode="&#x344;" 
d="M69 722l-53 -168h-67l21 168h99zM-138 567q-25 0 -41 17.5t-16 40.5q0 24 17 40t42 16q23 0 38.5 -15.5t15.5 -40.5q0 -23 -15.5 -40.5t-39.5 -17.5h-1zM137 567q-23 0 -39 17.5t-16 40.5q0 24 16.5 40t40.5 16t40 -15.5t16 -40.5q0 -23 -15.5 -40.5t-41.5 -17.5h-1z" />
    <glyph glyph-name="uni0345" unicode="&#x345;" 
d="M41 -61q0 -29 10.5 -41t36.5 -10l-7 -91q-9 -4 -25 -6t-31 -2q-26 0 -47 6t-35.5 22t-22.5 42.5t-8 67.5v110h129v-98z" />
    <glyph glyph-name="uni034F" unicode="&#x34f;" 
 />
    <glyph glyph-name="uni0351" unicode="&#x351;" 
d="M49 673q-18 0 -31 -13t-13 -31q0 -17 13 -30t31 -13v-54q-20 0 -38 7.5t-31.5 21t-21 31t-7.5 37.5q0 42 28 70t70 28v-54z" />
    <glyph glyph-name="uni0357" unicode="&#x357;" 
d="M-49 727q42 0 70 -28t28 -70q0 -20 -7.5 -37.5t-21 -31t-31.5 -21t-38 -7.5v54q18 0 31 13t13 30q0 18 -13 31t-31 13v54z" />
    <glyph glyph-name="uni0374" unicode="&#x374;" horiz-adv-x="239" 
d="M217 692l-111 -259l-79 -8l66 257z" />
    <glyph glyph-name="uni037E" unicode="&#x37e;" horiz-adv-x="241" 
d="M214 404q0 -36 -22 -58.5t-58 -22.5q-34 0 -55.5 23t-21.5 58t22 58.5t57 23.5t56.5 -23.5t21.5 -58.5zM209 157q-52 -165 -115 -270l-87 -8q23 66 40 132.5t28 135.5z" />
    <glyph glyph-name="tonos" unicode="&#x384;" horiz-adv-x="302" 
d="M250 699l-82 -149h-84l49 149h117z" />
    <glyph glyph-name="dieresistonos" unicode="&#x385;" horiz-adv-x="403" 
d="M269 722l-53 -168h-67l21 168h99zM62 567q-25 0 -41 17.5t-16 40.5q0 24 17 40t42 16q23 0 38.5 -15.5t15.5 -40.5q0 -23 -15.5 -40.5t-39.5 -17.5h-1zM337 567q-23 0 -39 17.5t-16 40.5q0 24 16.5 40t40.5 16t40 -15.5t16 -40.5q0 -23 -15.5 -40.5t-41.5 -17.5h-1z" />
    <glyph glyph-name="Alphatonos" unicode="&#x386;" horiz-adv-x="635" 
d="M612 0h-139l-57 185h-204l-53 -185h-134l210 674h165zM396 283l-49 159l-33 129h-3q-5 -22 -12.5 -54t-18.5 -75l-47 -159h163zM141 674l-36 -167h-75l5 167h106z" />
    <glyph glyph-name="anoteleia" unicode="&#x387;" horiz-adv-x="241" 
d="M199 272q0 -36 -22 -59t-58 -23q-34 0 -55.5 23.5t-21.5 58.5t22 58.5t57 23.5t56.5 -23t21.5 -59z" />
    <glyph glyph-name="Epsilontonos" unicode="&#x388;" horiz-adv-x="604" 
d="M567 0h-405v674h390v-107h-261v-165h247v-106h-247v-189h276v-107zM111 674l-37 -167h-74l4 167h107z" />
    <glyph glyph-name="Etatonos" unicode="&#x389;" horiz-adv-x="757" 
d="M688 0h-130v293h-268v-293h-129v674h129v-268h268v268h130v-674zM111 674l-37 -167h-74l4 167h107z" />
    <glyph glyph-name="Iotatonos" unicode="&#x38a;" horiz-adv-x="362" 
d="M293 0h-129v674h129v-674zM111 674l-37 -167h-74l4 167h107z" />
    <glyph glyph-name="Omicrontonos" unicode="&#x38c;" horiz-adv-x="752" 
d="M717 344q0 -154 -80 -252q-85 -103 -237 -103q-143 0 -227 102q-78 94 -78 241q0 150 82 248q87 105 233 105q144 0 228 -101q79 -94 79 -240zM579 339q0 93 -39 161q-47 81 -134 81q-90 0 -136 -82q-40 -67 -40 -164q0 -94 40 -161q48 -81 136 -81t135 83q38 68 38 163z
M111 674l-37 -167h-74l4 167h107z" />
    <glyph glyph-name="Upsilontonos" unicode="&#x38e;" horiz-adv-x="738" 
d="M111 674l-37 -167h-74l4 167h107zM167 680q19 -1 42.5 -7t47.5 -17t48 -27.5t44 -38.5q36 -42 59.5 -99t31.5 -129h4q11 72 39 128t62 95q38 42 84.5 66.5t83.5 28.5l20 -108q-32 -10 -65 -34t-62.5 -60t-53 -82.5t-36.5 -101.5q-17 -68 -17 -138v-156h-130v157
q0 38 -2.5 69t-8.5 64q-23 118 -77 193t-135 91z" />
    <glyph glyph-name="Omegatonos" unicode="&#x38f;" horiz-adv-x="775" 
d="M111 674l-37 -167h-74l4 167h107zM607 99h137v-99h-276v77q27 20 50.5 47t41 61.5t28 76t10.5 89.5q0 44 -12 85.5t-35 74t-56 52t-76 19.5q-44 0 -78 -19t-58 -51t-36.5 -74t-12.5 -88q0 -43 10.5 -84.5t28.5 -78t42 -65t51 -45.5v-77h-278v99h135v3q-23 18 -45 44
t-39.5 59.5t-28 73.5t-10.5 86q0 68 23.5 126.5t66.5 101.5t101.5 67.5t129.5 24.5q74 0 131.5 -25t97.5 -68t60.5 -99t20.5 -118q0 -50 -11.5 -92t-29.5 -76t-40 -60t-43 -45v-3z" />
    <glyph glyph-name="iotadieresistonos" unicode="&#x390;" horiz-adv-x="260" 
d="M204 710l-54 -167h-66l21 167h99zM190 139q0 -29 10.5 -41t36.5 -10l-7 -91q-9 -4 -25 -6t-31 -2q-26 0 -47 6t-35.5 22t-22.5 42.5t-8 67.5v360h129v-348zM327 613q0 -25 -16 -41t-40 -16t-39.5 16.5t-15.5 40.5t16 40t40 16t39.5 -16t15.5 -40zM52 613q0 -25 -16 -41
t-40 -16q-23 0 -39.5 16.5t-16.5 40.5t16.5 40t41.5 16q23 0 38.5 -16t15.5 -40z" />
    <glyph glyph-name="Alpha" unicode="&#x391;" horiz-adv-x="629" 
d="M606 0h-139l-57 185h-204l-53 -185h-134l210 674h165zM390 283l-49 159l-33 129h-3q-5 -22 -12.5 -54t-18.5 -75l-47 -159h163z" />
    <glyph glyph-name="Beta" unicode="&#x392;" horiz-adv-x="575" 
d="M537 195q0 -83 -65 -139q-74 -63 -251 -63q-88 0 -152 9v663q73 14 181 14q126 0 192 -42q71 -45 71 -128q0 -105 -111 -145v-2q57 -15 95 -57q40 -44 40 -110zM383 495q0 89 -119 89q-43 0 -67 -6v-178h58q60 0 94 26t34 69zM401 200q0 53 -43 81q-40 26 -104 26h-57
v-213q18 -3 62 -3q61 0 99 24q43 28 43 85z" />
    <glyph glyph-name="Gamma" unicode="&#x393;" horiz-adv-x="461" 
d="M452 674v-108h-254v-566h-129v674h383z" />
    <glyph glyph-name="uni0394" unicode="&#x394;" horiz-adv-x="626" 
d="M18 66l219 608h152l215 -607v-67h-586v66zM458 106l-107 314q-10 34 -22.5 74.5t-20.5 71.5h-4q-6 -24 -16 -62.5t-21 -73.5l-110 -324h301z" />
    <glyph glyph-name="Epsilon" unicode="&#x395;" horiz-adv-x="511" 
d="M474 0h-405v674h390v-107h-261v-165h247v-106h-247v-189h276v-107z" />
    <glyph glyph-name="Zeta" unicode="&#x396;" horiz-adv-x="556" 
d="M527 0h-502v72l330 494h-301v108h468v-77l-325 -489h330v-108z" />
    <glyph glyph-name="Eta" unicode="&#x397;" horiz-adv-x="665" 
d="M596 0h-130v293h-268v-293h-129v674h129v-268h268v268h130v-674z" />
    <glyph glyph-name="Theta" unicode="&#x398;" horiz-adv-x="692" 
d="M457 397v-105h-225v105h225zM657 344q0 -154 -80 -252q-85 -103 -237 -103q-143 0 -227 102q-78 94 -78 241q0 150 82 248q87 105 233 105q144 0 228 -101q79 -94 79 -240zM519 339q0 93 -39 161q-47 81 -134 81q-90 0 -136 -82q-40 -67 -40 -164q0 -94 40 -161
q48 -81 136 -81t135 83q38 68 38 163z" />
    <glyph glyph-name="Iota" unicode="&#x399;" horiz-adv-x="267" 
d="M198 0h-129v674h129v-674z" />
    <glyph glyph-name="Kappa" unicode="&#x39a;" horiz-adv-x="580" 
d="M585 0h-150l-180 303l-58 -70v-233h-128v674h128v-307h3q13 20 25 38.5t23 35.5l165 233h159l-225 -287z" />
    <glyph glyph-name="Lambda" unicode="&#x39b;" horiz-adv-x="624" 
d="M466 0l-124 426q-10 35 -18.5 70t-16.5 68h-3q-8 -34 -15 -69l-14 -70l-121 -425h-135l210 674h162l216 -674h-141z" />
    <glyph glyph-name="Mu" unicode="&#x39c;" horiz-adv-x="818" 
d="M766 0h-126l-13 269q-4 88 -6 157t-1 122h-3q-14 -58 -33.5 -121.5t-42.5 -134.5l-93 -283h-99l-84 279q-19 65 -35 129.5t-30 130.5h-2q-5 -164 -12 -282l-14 -266h-120l45 674h169l80 -259q17 -54 32 -113t29 -124h2q34 142 66 237l86 259h166z" />
    <glyph glyph-name="Nu" unicode="&#x39d;" horiz-adv-x="668" 
d="M599 0h-134l-164 286q-36 64 -65 121.5t-52 111.5l-3 -1q4 -60 5.5 -132.5t1.5 -157.5v-228h-119v674h147l162 -279q62 -108 111 -226l2 1q-5 59 -8 129t-3 153v222h119v-674z" />
    <glyph glyph-name="Xi" unicode="&#x39e;" horiz-adv-x="552" 
d="M505 674v-105h-451v105h451zM473 399v-105h-387v105h387zM517 106v-106h-476v106h476z" />
    <glyph glyph-name="Omicron" unicode="&#x39f;" horiz-adv-x="692" 
d="M657 344q0 -154 -80 -252q-85 -103 -237 -103q-143 0 -227 102q-78 94 -78 241q0 150 82 248q87 105 233 105q144 0 228 -101q79 -94 79 -240zM519 339q0 93 -39 161q-47 81 -134 81q-90 0 -136 -82q-40 -67 -40 -164q0 -94 40 -161q48 -81 136 -81t135 83q38 68 38 163z
" />
    <glyph glyph-name="Pi" unicode="&#x3a0;" horiz-adv-x="645" 
d="M576 0h-129v565h-249v-565h-129v674h507v-674z" />
    <glyph glyph-name="Rho" unicode="&#x3a1;" horiz-adv-x="556" 
d="M523 474q0 -98 -58 -155q-74 -72 -211 -72q-32 0 -57 5v-252h-128v665q82 14 189 14q133 0 199 -54.5t66 -150.5zM394 469q0 54 -33.5 82.5t-96.5 28.5q-42 0 -67 -6v-221q22 -5 56 -5q66 0 103.5 32t37.5 89z" />
    <glyph glyph-name="Sigma" unicode="&#x3a3;" horiz-adv-x="561" 
d="M194 106h335v-106h-500v74l209 260l-198 255v85h461v-106h-297v-3l172 -226l-182 -229v-4z" />
    <glyph glyph-name="Tau" unicode="&#x3a4;" horiz-adv-x="521" 
d="M511 565h-187v-565h-129v565h-185v109h501v-109z" />
    <glyph glyph-name="Upsilon" unicode="&#x3a5;" horiz-adv-x="600" 
d="M29 680q19 -1 42.5 -7t47.5 -17t48 -27.5t44 -38.5q36 -42 59.5 -99t31.5 -129h4q11 72 39 128t62 95q38 42 84.5 66.5t83.5 28.5l20 -108q-32 -10 -65 -34t-62.5 -60t-53 -82.5t-36.5 -101.5q-17 -68 -17 -138v-156h-130v157q0 38 -2.5 69t-8.5 64q-23 118 -77 193
t-135 91z" />
    <glyph glyph-name="Phi" unicode="&#x3a6;" horiz-adv-x="745" 
d="M432 -27h-120v54q-53 6 -102.5 27t-88.5 58.5t-62.5 92.5t-23.5 129q0 76 25.5 133t66 96t89.5 60.5t97 26.5v51h120v-51q52 -6 101.5 -27.5t88.5 -60t63 -94t24 -129.5q0 -73 -23.5 -128.5t-62 -94.5t-88.5 -61t-104 -28v-54zM312 559q-25 -3 -51 -18.5t-47.5 -43.5
t-35 -68.5t-13.5 -94.5q0 -48 13 -86t33.5 -65.5t47 -44t53.5 -20.5v441zM433 118q27 4 53 19t47 41.5t34 65.5t13 91q0 54 -13 94.5t-34 68t-47 43t-53 18.5v-441z" />
    <glyph glyph-name="Chi" unicode="&#x3a7;" horiz-adv-x="586" 
d="M568 0h-149l-68 131l-64 125h-2q-5 -13 -19.5 -43.5t-37.5 -81.5l-63 -131h-147l194 342l-187 332h148l68 -135q27 -53 53 -112h2q13 31 25 59t25 53l67 135h147l-191 -329z" />
    <glyph glyph-name="Psi" unicode="&#x3a8;" horiz-adv-x="709" 
d="M668 479q0 -72 -19.5 -124.5t-54 -87.5t-80.5 -53.5t-100 -21.5v-192h-118v192q-50 3 -95.5 18.5t-80.5 46t-56 78t-21 114.5v225h124v-205q0 -50 9.5 -83t27 -53.5t41 -30t51.5 -11.5v383h118v-384q26 2 49.5 12.5t41 34t28 62.5t10.5 97v178h125v-195z" />
    <glyph glyph-name="uni03A9" unicode="&#x3a9;" horiz-adv-x="718" 
d="M550 99h137v-99h-276v77q27 20 50.5 47t41 61.5t28 76t10.5 89.5q0 44 -12 85.5t-35 74t-56 52t-76 19.5q-44 0 -78 -19t-58 -51t-36.5 -74t-12.5 -88q0 -43 10.5 -84.5t28.5 -78t42 -65t51 -45.5v-77h-278v99h135v3q-23 18 -45 44t-39.5 59.5t-28 73.5t-10.5 86
q0 68 23.5 126.5t66.5 101.5t101.5 67.5t129.5 24.5q74 0 131.5 -25t97.5 -68t60.5 -99t20.5 -118q0 -50 -11.5 -92t-29.5 -76t-40 -60t-43 -45v-3z" />
    <glyph glyph-name="Iotadieresis" unicode="&#x3aa;" horiz-adv-x="267" 
d="M291 777q0 -26 -17.5 -43.5t-43.5 -17.5q-25 0 -42 18t-17 43q0 26 17 43.5t43 17.5t43 -17.5t17 -43.5zM96 777q0 -26 -17 -43.5t-43 -17.5q-25 0 -42.5 18t-17.5 43q0 26 17.5 43.5t43.5 17.5t42.5 -17.5t16.5 -43.5zM198 0h-129v674h129v-674z" />
    <glyph glyph-name="Upsilondieresis" unicode="&#x3ab;" horiz-adv-x="600" 
d="M29 680q19 -1 42.5 -7t47.5 -17t48 -27.5t44 -38.5q36 -42 59.5 -99t31.5 -129h4q11 72 39 128t62 95q38 42 84.5 66.5t83.5 28.5l20 -108q-32 -10 -65 -34t-62.5 -60t-53 -82.5t-36.5 -101.5q-17 -68 -17 -138v-156h-130v157q0 38 -2.5 69t-8.5 64q-23 118 -77 193
t-135 91zM462 760q0 -27 -17.5 -44.5t-43.5 -17.5t-43 18t-17 44t17.5 43.5t43.5 17.5t43 -17.5t17 -43.5zM267 760q0 -27 -17.5 -44.5t-43.5 -17.5q-25 0 -43 18t-18 44t18 43.5t45 17.5q25 0 42 -17.5t17 -43.5z" />
    <glyph glyph-name="alphatonos" unicode="&#x3ac;" horiz-adv-x="561" 
d="M397 695l-81 -149h-84l49 149h116zM508 487q-3 -25 -5.5 -63.5t-4.5 -83.5t-3 -92.5t-1 -89.5t12 -57.5t35 -14.5l-9 -90q-5 -3 -18 -5t-25 -2q-39 0 -64 22.5t-33 71.5h-2q-25 -45 -65.5 -69.5t-91.5 -24.5q-42 0 -78.5 17t-63 49t-42 77t-15.5 101q0 61 18.5 110
t49 83.5t69.5 53t80 18.5q45 0 80.5 -20.5t55.5 -62.5h4q2 22 4.5 39t6.5 33h106zM164 239q0 -30 7 -57t20.5 -47.5t32 -32t41.5 -11.5q18 0 34.5 8.5t30 22.5t23 33t13.5 39q2 14 3 26.5t1 28.5q0 13 -0.5 24t-2.5 21q-7 45 -33.5 75t-62.5 30q-24 0 -44 -12.5t-34 -34
t-21.5 -51t-7.5 -62.5z" />
    <glyph glyph-name="epsilontonos" unicode="&#x3ad;" horiz-adv-x="450" 
d="M363 695l-82 -149h-84l49 149h117zM144 262q-42 12 -64 39t-22 63q0 25 12 49t37 43t63 30.5t90 11.5q100 0 155 -37l-22 -82q-18 11 -50 20t-66 9q-42 0 -66 -15.5t-24 -40.5q0 -28 32 -40.5t86 -12.5h49v-86h-49q-57 0 -95 -13.5t-38 -47.5q0 -17 9 -29.5t23.5 -21
t33.5 -12.5t40 -4q18 0 36.5 3t36.5 7.5t33.5 10.5t26.5 12l19 -84q-34 -23 -84.5 -34t-98.5 -11q-39 0 -77 8t-68 25.5t-49 46t-19 70.5q0 45 31 77t79 42v4z" />
    <glyph glyph-name="etatonos" unicode="&#x3ae;" horiz-adv-x="567" 
d="M405 695l-82 -149h-83l48 149h117zM180 416q8 13 21.5 27.5t32.5 26.5t43.5 20t54.5 8q33 0 64 -11t55 -36t38.5 -64.5t14.5 -96.5v-313v-46.5t1 -48t3 -44.5t6 -36h-124q-5 9 -8 28.5t-4.5 43.5t-2 51t-0.5 51v298q0 51 -20.5 85t-67.5 34q-34 0 -57 -21t-32 -48
q-5 -14 -5 -39v-285h-129v340q0 45 -3 83t-12 64h113q7 -13 11 -32t4 -39h3z" />
    <glyph glyph-name="iotatonos" unicode="&#x3af;" horiz-adv-x="260" 
d="M246 696l-82 -149h-85l48 149h119zM190 139q0 -29 10.5 -41t36.5 -10l-7 -91q-9 -4 -25 -6t-31 -2q-26 0 -47 6t-35.5 22t-22.5 42.5t-8 67.5v360h129v-348z" />
    <glyph glyph-name="upsilondieresistonos" unicode="&#x3b0;" horiz-adv-x="536" 
d="M334 709l-54 -167h-66l21 167h99zM460 487q13 -25 24.5 -74.5t11.5 -112.5q0 -56 -11.5 -111.5t-38.5 -100t-72.5 -72t-113.5 -27.5q-42 0 -79.5 12.5t-65 38t-43.5 64t-16 90.5v131q0 57 -1.5 98t-9.5 64h127q6 -8 9.5 -29.5t3.5 -63.5v-189q0 -58 22 -84.5t55 -26.5
q29 0 49.5 15t33.5 41t19 62.5t6 78.5q0 33 -3 64t-7.5 57t-9.5 45.5t-9 29.5h119zM458 613q0 -25 -16 -41t-40 -16t-39.5 16.5t-15.5 40.5t16 40t40 16t39.5 -16t15.5 -40zM183 613q0 -25 -16 -41t-40 -16q-23 0 -39.5 16.5t-16.5 40.5t16.5 40t41.5 16q23 0 38.5 -16
t15.5 -40z" />
    <glyph glyph-name="alpha" unicode="&#x3b1;" horiz-adv-x="561" 
d="M508 487q-3 -25 -5.5 -63.5t-4.5 -83.5t-3 -92.5t-1 -89.5t12 -57.5t35 -14.5l-9 -90q-5 -3 -18 -5t-25 -2q-39 0 -64 22.5t-33 71.5h-2q-25 -45 -65.5 -69.5t-91.5 -24.5q-42 0 -78.5 17t-63 49t-42 77t-15.5 101q0 61 18.5 110t49 83.5t69.5 53t80 18.5
q45 0 80.5 -20.5t55.5 -62.5h4q2 22 4.5 39t6.5 33h106zM164 239q0 -30 7 -57t20.5 -47.5t32 -32t41.5 -11.5q18 0 34.5 8.5t30 22.5t23 33t13.5 39q2 14 3 26.5t1 28.5q0 13 -0.5 24t-2.5 21q-7 45 -33.5 75t-62.5 30q-24 0 -44 -12.5t-34 -34t-21.5 -51t-7.5 -62.5z" />
    <glyph glyph-name="beta" unicode="&#x3b2;" horiz-adv-x="567" 
d="M185 40v-61q0 -23 0.5 -47.5t1.5 -48t3.5 -45t6.5 -36.5h-118q-5 12 -8 30.5t-5 41t-3 48t-1 51.5v447q0 54 6 93t16.5 68t24 48.5t29.5 34.5q26 25 62.5 41t90.5 16q43 0 78 -14t59.5 -38t37.5 -57t13 -71q0 -48 -23 -90t-60 -61v-6q27 -6 51.5 -21.5t43.5 -39t30.5 -55
t11.5 -69.5q0 -49 -16.5 -88t-44.5 -66t-66 -41.5t-80 -14.5q-88 0 -139 51h-2zM186 147q17 -24 44.5 -42.5t64.5 -18.5q26 0 46 9.5t34 25t21 36.5t7 45q0 30 -9.5 52.5t-26 38t-38.5 24t-47 10.5q-6 1 -11 0.5t-11 -0.5v81q5 0 8 0.5t7 1.5q42 6 64.5 37.5t22.5 73.5
q0 45 -23 72t-58 27q-45 0 -70 -41t-25 -137v-295z" />
    <glyph glyph-name="gamma" unicode="&#x3b3;" horiz-adv-x="487" 
d="M171 -198q2 72 0.5 140.5t-17.5 140.5q-12 61 -32 120t-43.5 111.5t-47 97t-42.5 75.5h143q14 -22 31 -59.5t34.5 -84t33 -99.5t25.5 -106h3q14 28 29 65t27.5 77.5t20.5 83t8 83.5q0 15 -0.5 24t-0.5 16h123q1 -7 1.5 -16.5t0.5 -18.5q0 -47 -13 -99.5t-35.5 -108
t-53 -111.5t-66.5 -110q-5 -6 -5.5 -12t-0.5 -12q0 -18 0.5 -41.5t1 -50t1 -53.5t0.5 -52h-126z" />
    <glyph glyph-name="delta" unicode="&#x3b4;" horiz-adv-x="555" 
d="M446 591q-7 5 -20.5 11.5t-30 12t-35.5 9.5t-38 4q-32 0 -48 -9.5t-16 -23.5t15.5 -28.5t44.5 -38.5l81 -66q57 -45 89.5 -99.5t32.5 -123.5q0 -57 -19.5 -103t-52.5 -79t-78 -50.5t-96 -17.5q-50 0 -94 17t-76.5 48.5t-51.5 76t-19 100.5q0 46 14.5 84t38 67.5t54 52
t62.5 38.5v4l-20 18q-8 7 -18 16.5t-19 22.5t-15 28.5t-6 33.5q0 22 12 44.5t35 40.5t58 29t80 11q58 0 103 -16t67 -33zM272 413q-43 -26 -74.5 -69.5t-31.5 -109.5q0 -33 9.5 -61t25 -48t37 -31t45.5 -11q46 0 77.5 38.5t31.5 107.5q0 85 -73 144z" />
    <glyph glyph-name="epsilon" unicode="&#x3b5;" horiz-adv-x="450" 
d="M144 262q-42 12 -64 39t-22 63q0 25 12 49t37 43t63 30.5t90 11.5q100 0 155 -37l-22 -82q-18 11 -50 20t-66 9q-42 0 -66 -15.5t-24 -40.5q0 -28 32 -40.5t86 -12.5h49v-86h-49q-57 0 -95 -13.5t-38 -47.5q0 -17 9 -29.5t23.5 -21t33.5 -12.5t40 -4q18 0 36.5 3
t36.5 7.5t33.5 10.5t26.5 12l19 -84q-34 -23 -84.5 -34t-98.5 -11q-39 0 -77 8t-68 25.5t-49 46t-19 70.5q0 45 31 77t79 42v4z" />
    <glyph glyph-name="zeta" unicode="&#x3b6;" horiz-adv-x="421" 
d="M265 -123q4 8 8.5 21.5t9 28t7.5 28.5t4 24q-24 4 -52.5 10.5t-57.5 17.5q-30 11 -57 28.5t-47.5 44t-32.5 63t-12 84.5q0 49 14.5 101t42.5 102t67.5 96t90.5 85v4h-55q-35 0 -63.5 2.5t-48.5 9.5l12 83q24 -2 58.5 -2.5t72.5 -0.5h176l18 -87q-52 -25 -98 -66
t-80.5 -90.5t-54.5 -104.5t-20 -107q0 -66 25 -101t70 -54q33 -14 70 -21.5t73 -12.5q10 -1 10 -13q0 -24 -6 -52t-15.5 -55.5t-21.5 -51.5t-25 -40z" />
    <glyph glyph-name="eta" unicode="&#x3b7;" horiz-adv-x="567" 
d="M180 416q8 13 21.5 27.5t32.5 26.5t43.5 20t54.5 8q33 0 64 -11t55 -36t38.5 -64.5t14.5 -96.5v-313v-46.5t1 -48t3 -44.5t6 -36h-124q-5 9 -8 28.5t-4.5 43.5t-2 51t-0.5 51v298q0 51 -20.5 85t-67.5 34q-34 0 -57 -21t-32 -48q-5 -14 -5 -39v-285h-129v340q0 45 -3 83
t-12 64h113q7 -13 11 -32t4 -39h3z" />
    <glyph glyph-name="theta" unicode="&#x3b8;" horiz-adv-x="547" 
d="M273 -11q-112 0 -175.5 93t-63.5 278q0 77 16 143t47 114.5t77 76t106 27.5t104 -26.5t73 -74t43 -114t14 -146.5q0 -84 -14.5 -152t-44.5 -117t-75 -75.5t-106 -26.5h-1zM386 410q0 46 -7 86t-21.5 70t-35.5 47t-48 17t-48.5 -17.5t-35.5 -47.5t-21.5 -70t-7.5 -85h225z
M162 316q0 -111 30.5 -173.5t84.5 -62.5q28 0 49 17.5t34.5 49t20 74.5t6.5 95h-225z" />
    <glyph glyph-name="iota" unicode="&#x3b9;" horiz-adv-x="260" 
d="M192 139q0 -29 10.5 -41t36.5 -10l-7 -91q-9 -4 -25 -6t-31 -2q-26 0 -47 6t-35.5 22t-22.5 42.5t-8 67.5v360h129v-348z" />
    <glyph glyph-name="kappa" unicode="&#x3ba;" horiz-adv-x="518" 
d="M305 262q35 -9 66 -46.5t62 -85.5l80 -130h-148l-60 100q-29 46 -54 74.5t-53 30.5h-5v-205h-129v370q0 16 -1 34t-2.5 34.5t-4 29.5t-5.5 19h127q15 -17 15 -85v-123h4q48 55 88.5 110t74.5 98h147v-4q-48 -51 -98 -105.5t-104 -112.5v-3z" />
    <glyph glyph-name="lambda" unicode="&#x3bb;" horiz-adv-x="491" 
d="M273 241q-8 23 -15 48.5t-15 56.5h-6q-5 -26 -11.5 -52l-12.5 -50l-75 -244h-134l169 449q3 9 4 14.5t1 10.5q0 10 -6 25q-18 51 -46 83.5t-63 32.5h-19l12 98q7 2 20 3.5t24 1.5q39 0 69 -17t54 -47t43 -71t37 -90l181 -493h-137z" />
    <glyph glyph-name="uni03BC" unicode="&#x3bc;" horiz-adv-x="563" 
d="M390 0l-6 73h-3q-44 -81 -129 -81q-53 0 -79 38h-3l9 -228h-117v686h129v-267q0 -125 86 -125q36 0 65 29q24 25 27 56v307h130v-340q0 -37 1 -73.5t3 -74.5h-113z" />
    <glyph glyph-name="nu" unicode="&#x3bd;" horiz-adv-x="485" 
d="M137 487l72 -243q10 -32 18 -61.5t17 -61.5h4q14 31 30.5 70.5t30.5 83t23.5 87.5t9.5 84v21t-1 20h121q3 -15 3 -37q0 -52 -15 -107.5t-39 -113t-55.5 -115.5t-64.5 -114h-122l-169 487h137z" />
    <glyph glyph-name="xi" unicode="&#x3be;" horiz-adv-x="448" 
d="M376 347h-25q-91 0 -136 -36t-45 -93q0 -51 32 -81.5t104 -49.5q31 -9 61.5 -14.5t65.5 -10.5q9 0 9 -12q0 -21 -5.5 -49t-15 -55.5t-21.5 -53t-24 -41.5l-82 26q4 8 8.5 21.5t8 28.5t6.5 29t4 23q-45 7 -95.5 19.5t-93 37t-70.5 65t-28 103.5q0 36 11.5 68t31.5 57
t47.5 43t60.5 27v6q-54 19 -79.5 56.5t-25.5 85.5q0 33 13.5 64.5t41 56t68.5 39t96 14.5q45 0 76 -7.5t55 -19.5l-22 -85q-17 8 -40 14t-49 6q-55 0 -82 -28.5t-27 -66.5q0 -48 36 -71t93 -27h37v-89z" />
    <glyph glyph-name="omicron" unicode="&#x3bf;" horiz-adv-x="557" 
d="M523 248q0 -114 -67 -187q-68 -72 -180 -72q-110 0 -176 70t-66 181q0 116 67 186q67 72 183 72q110 0 174 -70q65 -71 65 -180zM389 245q0 61 -24 105q-30 54 -86 54q-58 0 -88 -54q-25 -43 -25 -107q0 -63 25 -106q30 -54 88 -54q56 0 86 56q24 45 24 106z" />
    <glyph glyph-name="pi" unicode="&#x3c0;" horiz-adv-x="572" 
d="M480 389v-239q0 -54 3.5 -91t8.5 -59h-124q-8 13 -11.5 50.5t-3.5 88.5v250h-120q-1 -44 -6 -99.5t-12.5 -110.5t-17.5 -103t-22 -76h-123q12 36 22.5 85t18 102.5t12 106.5t4.5 95q-24 0 -47.5 -1.5t-42.5 -6.5l-13 76q16 14 54.5 22t104.5 8h388l-13 -98h-60z" />
    <glyph glyph-name="rho" unicode="&#x3c1;" horiz-adv-x="571" 
d="M187 45v-68v-46.5t0.5 -48t2 -44.5t4.5 -36h-123q-3 10 -5 28t-3.5 41.5t-2 50.5t-0.5 54v223q0 51 7 88.5t18.5 65.5t26.5 47.5t32 34.5q31 29 71 46t92 17t94.5 -18t72.5 -51t46.5 -79t16.5 -102q0 -65 -19 -113.5t-50 -80.5t-71 -48.5t-81 -16.5q-42 0 -75.5 15
t-51.5 41h-2zM189 194q0 -17 3 -32q8 -29 35.5 -51t63.5 -22q28 0 49.5 12t36.5 33t22.5 49.5t7.5 61.5q0 31 -7 58.5t-21 47t-34 31t-46 11.5q-22 0 -42 -10t-35 -30.5t-24 -50.5t-9 -70v-38z" />
    <glyph glyph-name="sigma1" unicode="&#x3c2;" horiz-adv-x="435" 
d="M398 383q-17 8 -37.5 13t-46.5 5q-33 0 -60.5 -12.5t-47 -34t-30 -51t-10.5 -63.5q0 -60 29 -94.5t83 -51.5q34 -11 66.5 -17.5t67.5 -12.5q9 -3 9 -15q0 -23 -6 -52t-15.5 -57t-21 -52t-23.5 -38l-83 26q4 9 9 22.5t8.5 28.5t6.5 28.5t4 22.5q-19 4 -39.5 8.5
t-41.5 10.5q-38 11 -71.5 29.5t-58.5 47t-40 67.5t-15 90q0 50 18 98t52.5 85.5t85.5 60.5t117 23q35 0 65.5 -6t51.5 -17z" />
    <glyph glyph-name="sigma" unicode="&#x3c3;" horiz-adv-x="568" 
d="M441 405q36 -29 54 -73t18 -89q0 -66 -20.5 -114t-54 -79t-76.5 -46t-88 -15q-51 0 -94.5 17t-76 49t-51 78t-18.5 105q0 60 18 108t52 82t81.5 52t106.5 18h91h67h28t31.5 0.5t28.5 0.5h21l-5 -95q-18 0 -44 1t-69 5v-5zM277 83q24 0 44 12t34.5 33.5t22.5 51.5t8 66
q0 28 -6 56.5t-19 51t-33 37t-48 14.5q-30 0 -52 -14t-35.5 -37t-20 -51.5t-6.5 -58.5q0 -35 8 -64t22.5 -51t35 -34t45.5 -12z" />
    <glyph glyph-name="tau" unicode="&#x3c4;" horiz-adv-x="428" 
d="M336 -1q-9 -5 -26 -7.5t-36 -2.5q-73 0 -102 40.5t-29 124.5v235h-43q-35 0 -56 -2.5t-37 -5.5l-16 76q7 5 18.5 10.5t29.5 10t44 7t63 2.5h274l-12 -98h-136v-228q0 -42 14 -57t37 -15h19z" />
    <glyph glyph-name="upsilon" unicode="&#x3c5;" horiz-adv-x="536" 
d="M460 487q13 -25 24.5 -74.5t11.5 -112.5q0 -56 -11.5 -111.5t-38.5 -100t-72.5 -72t-113.5 -27.5q-42 0 -79.5 12.5t-65 38t-43.5 64t-16 90.5v131q0 57 -1.5 98t-9.5 64h127q6 -8 9.5 -29.5t3.5 -63.5v-189q0 -58 22 -84.5t55 -26.5q29 0 49.5 15t33.5 41t19 62.5
t6 78.5q0 33 -3 64t-7.5 57t-9.5 45.5t-9 29.5h119z" />
    <glyph glyph-name="phi" unicode="&#x3c6;" horiz-adv-x="674" 
d="M253 431q-17 -11 -33 -28t-29 -39.5t-21 -51t-8 -62.5q0 -66 31 -112.5t89 -58.5v255q0 44 12 75.5t32.5 51t46 28.5t52.5 8q39 -1 77.5 -18t69 -48.5t49 -76t18.5 -99.5q0 -62 -21 -109.5t-55 -81t-77.5 -52.5t-88.5 -23v-187h-115v187q-46 4 -90.5 21t-79.5 48
t-56.5 78t-21.5 111q0 52 17 95t42.5 75.5t55.5 53.5t56 30zM397 78q54 10 87 54.5t33 119.5q0 33 -8 61.5t-20.5 49.5t-28.5 33t-32 12q-31 0 -31 -50v-280z" />
    <glyph glyph-name="chi" unicode="&#x3c7;" horiz-adv-x="477" 
d="M146 487l101 -235h6q8 21 17 44t22 49l59 142h123l-167 -330l169 -349l-121 -29l-121 270l-7 -1q-8 -19 -16.5 -43t-22.5 -53l-76 -173l-109 30l170 348l-164 330h137z" />
    <glyph glyph-name="psi" unicode="&#x3c8;" horiz-adv-x="688" 
d="M294 -11q-47 3 -89.5 17t-75 44t-51.5 79t-19 122v116q0 36 -1 67t-6 53h117q8 -9 10.5 -32.5t2.5 -60.5v-133q0 -50 9 -84t24.5 -55t35.5 -30.5t43 -11.5v535h114v-535q28 1 50 17.5t37 44.5t23 65t8 80q0 37 -3.5 70t-9 59t-11 44.5t-9.5 26.5h117q15 -26 27 -74
t12 -117q0 -55 -12.5 -108t-41 -96t-74.5 -71t-113 -32v-187h-114v187z" />
    <glyph glyph-name="omega" unicode="&#x3c9;" horiz-adv-x="707" 
d="M411 188q0 -39 16 -65t42 -26q30 0 54 41t24 126q0 65 -19 126t-51 99v2h117q14 -14 28 -36.5t25.5 -52.5t18.5 -66t7 -77q0 -66 -15.5 -116.5t-42 -84.5t-61.5 -51.5t-74 -17.5q-43 0 -77 21t-50 59h-4q-19 -35 -51 -57.5t-77 -22.5q-35 0 -68.5 15.5t-60 47.5t-42.5 81
t-16 115q0 85 25.5 147t55.5 96h116v-2q-31 -40 -51.5 -101t-20.5 -133q0 -42 7.5 -72t18.5 -49t25 -28t28 -9q24 0 40.5 26t15.5 64l-2 183h121z" />
    <glyph glyph-name="iotadieresis" unicode="&#x3ca;" horiz-adv-x="260" 
d="M288 612q0 -27 -17.5 -44.5t-43.5 -17.5t-43 18t-17 44t17.5 43.5t43.5 17.5t43 -17.5t17 -43.5zM93 612q0 -27 -17.5 -44.5t-43.5 -17.5q-25 0 -43 18t-18 44t18 43.5t45 17.5q25 0 42 -17.5t17 -43.5zM190 139q0 -29 10.5 -41t36.5 -10l-7 -91q-9 -4 -25 -6t-31 -2
q-26 0 -47 6t-35.5 22t-22.5 42.5t-8 67.5v360h129v-348z" />
    <glyph glyph-name="upsilondieresis" unicode="&#x3cb;" horiz-adv-x="536" 
d="M460 487q13 -25 24.5 -74.5t11.5 -112.5q0 -56 -11.5 -111.5t-38.5 -100t-72.5 -72t-113.5 -27.5q-42 0 -79.5 12.5t-65 38t-43.5 64t-16 90.5v131q0 57 -1.5 98t-9.5 64h127q6 -8 9.5 -29.5t3.5 -63.5v-189q0 -58 22 -84.5t55 -26.5q29 0 49.5 15t33.5 41t19 62.5
t6 78.5q0 33 -3 64t-7.5 57t-9.5 45.5t-9 29.5h119zM418 612q0 -27 -17.5 -44.5t-43.5 -17.5t-43 18t-17 44t17.5 43.5t43.5 17.5t43 -17.5t17 -43.5zM223 612q0 -27 -17.5 -44.5t-43.5 -17.5q-25 0 -43 18t-18 44t18 43.5t45 17.5q25 0 42 -17.5t17 -43.5z" />
    <glyph glyph-name="omicrontonos" unicode="&#x3cc;" horiz-adv-x="557" 
d="M397 695l-82 -149h-83l48 149h117zM523 248q0 -114 -67 -187q-68 -72 -180 -72q-110 0 -176 70t-66 181q0 116 67 186q67 72 183 72q110 0 174 -70q65 -71 65 -180zM389 245q0 61 -24 105q-30 54 -86 54q-58 0 -88 -54q-25 -43 -25 -107q0 -63 25 -106q30 -54 88 -54
q56 0 86 56q24 45 24 106z" />
    <glyph glyph-name="upsilontonos" unicode="&#x3cd;" horiz-adv-x="536" 
d="M371 696l-81 -149h-86l48 149h119zM460 487q13 -25 24.5 -74.5t11.5 -112.5q0 -56 -11.5 -111.5t-38.5 -100t-72.5 -72t-113.5 -27.5q-42 0 -79.5 12.5t-65 38t-43.5 64t-16 90.5v131q0 57 -1.5 98t-9.5 64h127q6 -8 9.5 -29.5t3.5 -63.5v-189q0 -58 22 -84.5t55 -26.5
q29 0 49.5 15t33.5 41t19 62.5t6 78.5q0 33 -3 64t-7.5 57t-9.5 45.5t-9 29.5h119z" />
    <glyph glyph-name="omegatonos" unicode="&#x3ce;" horiz-adv-x="707" 
d="M472 695l-82 -149h-85l49 149h118zM411 188q0 -39 16 -65t42 -26q30 0 54 41t24 126q0 65 -19 126t-51 99v2h117q14 -14 28 -36.5t25.5 -52.5t18.5 -66t7 -77q0 -66 -15.5 -116.5t-42 -84.5t-61.5 -51.5t-74 -17.5q-43 0 -77 21t-50 59h-4q-19 -35 -51 -57.5t-77 -22.5
q-35 0 -68.5 15.5t-60 47.5t-42.5 81t-16 115q0 85 25.5 147t55.5 96h116v-2q-31 -40 -51.5 -101t-20.5 -133q0 -42 7.5 -72t18.5 -49t25 -28t28 -9q24 0 40.5 26t15.5 64l-2 183h121z" />
    <glyph glyph-name="uni0400" unicode="&#x400;" horiz-adv-x="511" 
d="M474 0h-405v674h390v-107h-261v-165h247v-106h-247v-189h276v-107zM322 724h-88l-121 148h124z" />
    <glyph glyph-name="afii10023" unicode="&#x401;" horiz-adv-x="511" 
d="M422 777q0 -26 -17.5 -43.5t-43.5 -17.5q-25 0 -42 18t-17 43q0 26 17.5 43.5t42.5 17.5q26 0 43 -17.5t17 -43.5zM227 777q0 -26 -17 -43.5t-43 -17.5q-25 0 -42.5 18t-17.5 43q0 26 18 43.5t43 17.5q26 0 42.5 -17.5t16.5 -43.5zM474 0h-405v674h390v-107h-261v-165
h247v-106h-247v-189h276v-107z" />
    <glyph glyph-name="afii10051" unicode="&#x402;" horiz-adv-x="691" 
d="M548 674v-109h-237v-142h3q20 11 50 19.5t62 8.5q55 0 101 -22.5t72 -57.5q29 -38 42.5 -88.5t13.5 -110.5q0 -94 -36.5 -164.5t-99.5 -112.5q-32 -21 -61.5 -32t-54.5 -15l-21 105q23 6 50 20t44 34t29.5 58.5t12.5 98.5q0 31 -4 63.5t-17 58.5t-37 42.5t-64 16.5
q-22 0 -47 -7t-38 -17v-321h-129v565h-165v109h531z" />
    <glyph glyph-name="afii10052" unicode="&#x403;" horiz-adv-x="473" 
d="M455 674v-107h-257v-567h-129v674h386zM406 833l-126 -123h-102l90 123h138z" />
    <glyph glyph-name="afii10053" unicode="&#x404;" horiz-adv-x="567" 
d="M513 552q-23 11 -58.5 19t-80.5 8q-88 0 -138 -50t-63 -138h306v-101h-304q8 -97 63.5 -146t143.5 -49q13 0 30.5 2t35.5 5t35 7t31 9l19 -96q-21 -11 -64 -22t-100 -11q-78 0 -140 24t-105 69t-66 109t-23 144q0 67 21 130.5t63.5 112t107 78t150.5 29.5
q61 0 101.5 -11.5t60.5 -22.5z" />
    <glyph glyph-name="afii10054" unicode="&#x405;" horiz-adv-x="515" 
d="M477 194q0 -89 -64 -144q-69 -60 -193 -60q-109 0 -180 41l27 108q73 -42 161 -42q57 0 87 23.5t30 63.5q0 37 -26.5 61.5t-89.5 47.5q-179 66 -179 196q0 84 65 140q64 55 175 55q94 0 160 -33l-30 -104q-61 31 -133 31q-53 0 -81 -24q-25 -21 -25 -53q0 -35 30 -59
q26 -19 95 -48q171 -68 171 -200z" />
    <glyph glyph-name="afii10055" unicode="&#x406;" horiz-adv-x="267" 
d="M198 0h-129v674h129v-674z" />
    <glyph glyph-name="afii10056" unicode="&#x407;" horiz-adv-x="267" 
d="M291 777q0 -26 -17.5 -43.5t-43.5 -17.5q-25 0 -42 18t-17 43q0 26 17 43.5t43 17.5t43 -17.5t17 -43.5zM96 777q0 -26 -17 -43.5t-43 -17.5q-25 0 -42.5 18t-17.5 43q0 26 17.5 43.5t43.5 17.5t42.5 -17.5t16.5 -43.5zM198 0h-129v674h129v-674z" />
    <glyph glyph-name="afii10057" unicode="&#x408;" horiz-adv-x="390" 
d="M327 237q0 -248 -224 -248q-62 0 -103 16l15 104q39 -11 74 -11q54 0 80 29q29 35 29 113v434h129v-437z" />
    <glyph glyph-name="afii10058" unicode="&#x409;" horiz-adv-x="898" 
d="M536 434q15 2 32 3.5t38 1.5q56 0 103 -12.5t81 -39t53 -67.5t19 -97q0 -48 -13.5 -83t-37.5 -61q-23 -25 -52 -41.5t-62 -26.5t-69 -14t-73 -4q-54 0 -88 3t-58 7v564h-165v-178q0 -65 -4.5 -122t-17.5 -104t-36 -83t-59 -58q-24 -14 -55 -23t-57 -10l-17 105
q23 4 41.5 14t30.5 24q29 32 38 94.5t9 153.5v294h419v-240zM536 95q12 -3 28 -4t32 -1q25 0 48.5 7.5t41.5 23t28.5 39.5t10.5 57q0 69 -32 97t-95 28q-16 0 -32 -1.5t-30 -3.5v-242z" />
    <glyph glyph-name="afii10059" unicode="&#x40a;" horiz-adv-x="929" 
d="M552 431q15 2 34 3.5t40 1.5q58 0 107.5 -12.5t84.5 -38.5t55 -66.5t20 -96.5q0 -48 -13.5 -82.5t-37.5 -60.5q-23 -25 -53 -41.5t-64.5 -26.5t-72 -14t-75.5 -4q-54 0 -91 3t-61 7v311h-227v-314h-129v674h129v-251h227v251h127v-243zM554 95q12 -3 30.5 -4t34.5 -1
q26 0 51 7.5t44 22.5t30.5 39t11.5 57q0 68 -36 95.5t-99 27.5q-16 0 -34.5 -1.5t-32.5 -3.5v-239z" />
    <glyph glyph-name="afii10060" unicode="&#x40b;" horiz-adv-x="700" 
d="M544 674v-109h-233v-152h4q23 17 59.5 28.5t74.5 11.5q97 0 142.5 -57.5t45.5 -154.5v-241h-129v238q0 52 -21 80.5t-77 28.5q-24 0 -53 -8t-46 -22v-317h-129v565h-165v109h527z" />
    <glyph glyph-name="afii10061" unicode="&#x40c;" horiz-adv-x="573" 
d="M198 674v-289h21l186 289h161l-223 -299q63 -17 94.5 -59.5t51.5 -103.5q17 -54 34 -107.5t40 -104.5h-141q-17 35 -27 73t-23 83q-8 28 -18 52.5t-25 42.5t-35.5 28.5t-49.5 10.5h-46v-290h-129v674h129zM447 833l-126 -123h-102l90 123h138z" />
    <glyph glyph-name="uni040D" unicode="&#x40d;" horiz-adv-x="665" 
d="M188 674v-210q0 -41 -0.5 -84t-1 -85.5t-2 -82t-3.5 -73.5h3q13 30 30.5 66t36 72.5t36.5 71.5t32 62l136 263h141v-674h-119v209q0 78 2 158t8 146h-3q-14 -30 -30.5 -66t-34 -72t-34 -70.5t-30.5 -61.5l-128 -243h-158v674h119zM379 724h-88l-121 148h124z" />
    <glyph glyph-name="afii10062" unicode="&#x40e;" horiz-adv-x="564" 
d="M155 675l106 -262q13 -36 23.5 -65t21.5 -64h4q6 26 15 57t21 74l82 260h138l-120 -332q-29 -79 -59.5 -150t-66.5 -119q-32 -42 -72.5 -65.5t-97.5 -23.5q-25 0 -41 3t-30 8l9 105q20 -5 49 -5q33 0 59.5 20t34.5 43q5 8 3.5 15.5t-4.5 15.5l-224 485h149zM239 818
q1 -55 44 -55t47 55h94q-4 -57 -42 -83.5t-101 -26.5q-61 0 -96.5 26.5t-40.5 83.5h95z" />
    <glyph glyph-name="afii10145" unicode="&#x40f;" horiz-adv-x="652" 
d="M198 674v-567h256v567h129v-674h-191l-7 -184h-117l-7 184h-192v674h129z" />
    <glyph glyph-name="afii10017" unicode="&#x410;" horiz-adv-x="629" 
d="M606 0h-139l-57 185h-204l-53 -185h-134l210 674h165zM390 283l-49 159l-33 129h-3q-5 -22 -12.5 -54t-18.5 -75l-47 -159h163z" />
    <glyph glyph-name="afii10018" unicode="&#x411;" horiz-adv-x="580" 
d="M197 95q12 -3 32.5 -4t36.5 -1q26 0 51.5 7.5t45.5 23t32.5 39.5t12.5 57q0 68 -38.5 96.5t-101.5 28.5q-16 0 -36.5 -1.5t-34.5 -3.5v-242zM197 434q15 2 36.5 3.5t42.5 1.5q57 0 106 -12.5t85.5 -39t57 -67.5t20.5 -97q0 -48 -13.5 -83t-37.5 -61q-23 -25 -54 -41.5
t-66 -26.5t-73.5 -14t-75.5 -4q-54 0 -93 3t-63 7v671h437v-107h-309v-133z" />
    <glyph glyph-name="afii10019" unicode="&#x412;" horiz-adv-x="575" 
d="M537 195q0 -83 -65 -139q-74 -63 -251 -63q-88 0 -152 9v663q37 7 82 10.5t99 3.5q126 0 192 -42q71 -45 71 -128q0 -105 -111 -145v-2q58 -15 95 -57q40 -43 40 -110zM383 495q0 89 -119 89q-43 0 -67 -6v-178h58q60 0 94 26t34 69zM401 200q0 53 -43 81q-41 26 -104 26
h-57v-213q18 -3 62 -3q61 0 99 24q43 28 43 85z" />
    <glyph glyph-name="afii10020" unicode="&#x413;" horiz-adv-x="473" 
d="M455 674v-107h-257v-567h-129v674h386z" />
    <glyph glyph-name="afii10021" unicode="&#x414;" horiz-adv-x="658" 
d="M571 674v-571l64 -4l-7 -270h-110l-7 171h-374l-7 -171h-110l-6 270l53 4q20 36 35 73t26 77q14 51 19.5 110t5.5 122v189h418zM271 451q0 -60 -7 -119t-21 -110q-9 -32 -20.5 -61.5t-24.5 -53.5h244v460h-171v-116z" />
    <glyph glyph-name="afii10022" unicode="&#x415;" horiz-adv-x="511" 
d="M474 0h-405v674h390v-107h-261v-165h247v-106h-247v-189h276v-107z" />
    <glyph glyph-name="afii10024" unicode="&#x416;" horiz-adv-x="821" 
d="M167 674l163 -289h18v289h123v-289h18l164 289h160l-219 -301q33 -4 57.5 -18t43 -35.5t31.5 -49.5t24 -61q17 -54 31 -106t34 -103h-138q-15 34 -24.5 74.5t-20.5 82.5q-7 27 -17 51t-25 42.5t-36 29t-51 10.5h-32v-290h-123v290h-33q-29 0 -50 -10.5t-36 -29t-25 -42.5
t-17 -51q-11 -42 -20.5 -82.5t-24.5 -74.5h-138q21 51 36 102.5t31 102.5q9 33 22 61t31.5 49.5t43 36.5t57.5 21l-219 301h161z" />
    <glyph glyph-name="afii10025" unicode="&#x417;" horiz-adv-x="520" 
d="M41 631q33 21 83 37.5t116 16.5q52 0 93.5 -13t70.5 -36.5t44 -55t15 -68.5q0 -63 -35.5 -104t-92.5 -55v-2q30 -4 57 -17t47.5 -33t33 -48t12.5 -62q0 -56 -24.5 -94.5t-63 -62.5t-85 -34.5t-91.5 -10.5q-51 0 -100.5 11.5t-91.5 35.5l29 105q11 -7 29.5 -15t41 -15
t47 -11.5t48.5 -4.5q57 0 91 26t34 74q0 31 -13.5 51.5t-34.5 32t-47 16t-50 4.5h-65v96h64q54 0 89 26t35 72q0 37 -26.5 61.5t-75.5 24.5q-40 0 -81 -14.5t-70 -30.5z" />
    <glyph glyph-name="afii10026" unicode="&#x418;" horiz-adv-x="665" 
d="M188 674v-210q0 -41 -0.5 -84t-1 -85.5t-2 -82t-3.5 -73.5h3q13 30 30.5 66t36 72.5t36.5 71.5t32 62l136 263h141v-674h-119v209q0 78 2 158t8 146h-3q-14 -30 -30.5 -66t-34 -72t-34 -70.5t-30.5 -61.5l-128 -243h-158v674h119z" />
    <glyph glyph-name="afii10027" unicode="&#x419;" horiz-adv-x="665" 
d="M288 818q1 -55 44 -55t47 55h94q-4 -57 -42 -83.5t-101 -26.5q-61 0 -96.5 26.5t-40.5 83.5h95zM188 674v-210q0 -41 -0.5 -84t-1 -85.5t-2 -82t-3.5 -73.5h3q13 30 30.5 66t36 72.5t36.5 71.5t32 62l136 263h141v-674h-119v209q0 78 2 158t8 146h-3q-13 -30 -29.5 -66
t-34 -72.5t-34.5 -70.5t-31 -61l-128 -243h-158v674h119z" />
    <glyph glyph-name="afii10028" unicode="&#x41a;" horiz-adv-x="573" 
d="M198 674v-289h21l186 289h161l-223 -299q63 -17 94.5 -59.5t51.5 -103.5q17 -54 34 -107.5t40 -104.5h-141q-17 35 -27 73t-23 83q-8 28 -18 52.5t-25 42.5t-35.5 28.5t-49.5 10.5h-46v-290h-129v674h129z" />
    <glyph glyph-name="afii10029" unicode="&#x41b;" horiz-adv-x="617" 
d="M548 674v-674h-129v567h-173v-178q0 -65 -4.5 -122t-17.5 -104t-36 -83t-60 -58q-24 -14 -54.5 -23.5t-59.5 -9.5l-16 105q23 3 41 13t30 23q29 32 38.5 92.5t9.5 138.5v313h431z" />
    <glyph glyph-name="afii10030" unicode="&#x41c;" horiz-adv-x="818" 
d="M766 0h-126l-13 269q-4 76 -5.5 138t-1.5 113v28h-3q-14 -58 -33.5 -121t-42.5 -135l-93 -283h-99l-84 279q-19 66 -35 130t-30 130h-2q-2 -82 -5.5 -152l-6.5 -130l-14 -266h-120l45 674h169l80 -259q17 -54 32.5 -112.5t28.5 -124.5h2q34 142 66 237l86 259h166z" />
    <glyph glyph-name="afii10031" unicode="&#x41d;" horiz-adv-x="665" 
d="M596 0h-130v293h-268v-293h-129v674h129v-268h268v268h130v-674z" />
    <glyph glyph-name="afii10032" unicode="&#x41e;" horiz-adv-x="692" 
d="M657 344q0 -154 -80 -252q-85 -103 -237 -103q-143 0 -227 102q-78 94 -78 241q0 151 82 248q87 105 233 105q144 0 228 -101q79 -94 79 -240zM519 339q0 93 -39 161q-47 81 -134 81q-90 0 -136 -82q-40 -67 -40 -164q0 -94 40 -161q48 -81 136 -81t135 83q38 68 38 163z
" />
    <glyph glyph-name="afii10033" unicode="&#x41f;" horiz-adv-x="677" 
d="M586 674v-674h-129v567h-259v-567h-129v674h517z" />
    <glyph glyph-name="afii10034" unicode="&#x420;" horiz-adv-x="556" 
d="M523 474q0 -98 -58 -155q-74 -72 -211 -72q-29 0 -57 5v-252h-128v665q42 7 88.5 10.5t100.5 3.5q133 0 199 -54.5t66 -150.5zM394 469q0 54 -33.5 82.5t-96.5 28.5q-42 0 -67 -6v-221q11 -2 25 -3.5t31 -1.5q66 0 103.5 32t37.5 89z" />
    <glyph glyph-name="afii10035" unicode="&#x421;" horiz-adv-x="577" 
d="M522 552q-53 25 -126 25q-100 0 -161 -61q-64 -64 -64 -181q0 -112 59 -174.5t165 -62.5q73 0 128 23l21 -102q-61 -29 -169 -29q-158 0 -250 92q-90 93 -90 247q0 165 103 262q97 93 253 93q103 0 159 -29z" />
    <glyph glyph-name="afii10036" unicode="&#x422;" horiz-adv-x="521" 
d="M511 565h-187v-565h-129v565h-185v109h501v-109z" />
    <glyph glyph-name="afii10037" unicode="&#x423;" horiz-adv-x="564" 
d="M155 675l106 -262q13 -36 23.5 -65t21.5 -64h4q6 26 15 57t21 74l82 260h138l-120 -332q-29 -79 -59.5 -150t-66.5 -119q-32 -42 -72.5 -65.5t-97.5 -23.5q-25 0 -41 3t-30 8l9 105q20 -5 49 -5q33 0 59.5 20t34.5 43q5 8 3.5 15.5t-4.5 15.5l-224 485h149z" />
    <glyph glyph-name="afii10038" unicode="&#x424;" horiz-adv-x="759" 
d="M439 702v-59q56 -4 107.5 -22.5t91 -54.5t63 -92t23.5 -135q0 -78 -23 -133.5t-62 -92.5t-91 -56t-109 -24v-61h-120v61q-57 4 -108.5 22.5t-90.5 54.5t-62 91t-23 133q0 79 25.5 136t66 94t91.5 56t101 23v59h120zM319 555q-26 -3 -53 -16t-49.5 -39t-37 -66t-14.5 -97
q0 -53 14.5 -92t37 -65t49.5 -40t53 -17v432zM439 123q25 3 52.5 15.5t50 38t37.5 65t15 97.5q0 57 -14 96.5t-36.5 65t-50 38.5t-54.5 16v-432z" />
    <glyph glyph-name="afii10039" unicode="&#x425;" horiz-adv-x="586" 
d="M568 0h-149l-68 131l-64 125h-2q-6 -12 -19.5 -43t-37.5 -82l-63 -131h-147l194 342l-187 332h148l68 -135q27 -53 53 -112h2q13 31 25 58.5t25 53.5l67 135h147l-191 -329z" />
    <glyph glyph-name="afii10040" unicode="&#x426;" horiz-adv-x="706" 
d="M69 674h129v-567h255v567h129v-572l64 -4l-7 -269h-101l-7 171h-462v674z" />
    <glyph glyph-name="afii10041" unicode="&#x427;" horiz-adv-x="619" 
d="M191 674v-208q0 -60 29 -87.5t92 -27.5q12 0 26.5 2t29.5 5.5t28.5 8t23.5 10.5v297h130v-683h-130v292h-2q-35 -17 -68 -25.5t-75 -8.5q-97 0 -155.5 50.5t-58.5 158.5v216h130z" />
    <glyph glyph-name="afii10042" unicode="&#x428;" horiz-adv-x="879" 
d="M198 674v-567h179v567h125v-567h178v567h130v-674h-741v674h129z" />
    <glyph glyph-name="afii10043" unicode="&#x429;" horiz-adv-x="934" 
d="M198 674v-567h178v567h126v-567h178v567h130v-572l64 -4l-7 -269h-101l-7 171h-690v674h129z" />
    <glyph glyph-name="afii10044" unicode="&#x42a;" horiz-adv-x="675" 
d="M305 674v-234q15 2 33 3.5t39 1.5q57 0 105 -13t83 -40t54.5 -68.5t19.5 -97.5q0 -48 -13.5 -84.5t-37.5 -62.5q-23 -25 -52.5 -41.5t-63.5 -26.5t-71.5 -14t-74.5 -4q-54 0 -89.5 3t-59.5 7v564h-164v107h292zM305 95q12 -3 29 -4t33 -1q26 0 50.5 8t43 24t30 40.5
t11.5 57.5q0 69 -35 98.5t-98 29.5q-16 0 -33 -1.5t-31 -3.5v-248z" />
    <glyph glyph-name="afii10045" unicode="&#x42b;" horiz-adv-x="819" 
d="M197 674v-234q15 2 34.5 3.5t40.5 1.5q57 0 105.5 -13t84 -40t55.5 -68.5t20 -97.5q0 -48 -13.5 -84.5t-37.5 -62.5q-23 -25 -53 -41.5t-64.5 -26.5t-72 -14t-75.5 -4q-54 0 -91 3t-61 7v671h128zM197 95q12 -3 30.5 -4t34.5 -1q26 0 51 8t44.5 24t31 40.5t11.5 57.5
q0 69 -36.5 98.5t-99.5 29.5q-16 0 -34.5 -1.5t-32.5 -3.5v-248zM740 0h-129v674h129v-674z" />
    <glyph glyph-name="afii10046" unicode="&#x42c;" horiz-adv-x="581" 
d="M197 674v-234q15 2 36.5 3.5t42.5 1.5q57 0 106 -13t85.5 -40t57 -68.5t20.5 -97.5q0 -48 -13.5 -84.5t-37.5 -62.5q-23 -25 -54 -41.5t-66 -26.5t-73.5 -14t-75.5 -4q-54 0 -93 3t-63 7v671h128zM197 95q12 -3 32.5 -4t36.5 -1q26 0 51.5 8t45.5 24t32.5 40.5t12.5 57.5
q0 69 -38.5 98.5t-101.5 29.5q-16 0 -36.5 -1.5t-34.5 -3.5v-248z" />
    <glyph glyph-name="afii10047" unicode="&#x42d;" horiz-adv-x="588" 
d="M100 391h311q-8 88 -57 138t-142 50q-42 0 -82.5 -8.5t-68.5 -19.5l-25 96q31 14 78 26t101 12q89 0 153 -28t105 -76t60.5 -111.5t19.5 -133.5q0 -85 -27 -150t-74.5 -108.5t-112 -66t-138.5 -22.5q-54 0 -100.5 10t-72.5 22l22 98q28 -11 68.5 -17.5t78.5 -6.5
q94 0 148.5 50.5t64.5 144.5h-310v101z" />
    <glyph glyph-name="afii10048" unicode="&#x42e;" horiz-adv-x="884" 
d="M198 674v-272h92q10 64 34 116.5t59.5 89.5t82.5 57t104 20q67 0 119.5 -27t87.5 -73.5t53.5 -108.5t18.5 -132q0 -83 -21 -149t-59.5 -112t-91.5 -70t-117 -24q-59 0 -107 22t-83 62t-56.5 96t-27.5 124h-88v-293h-129v674h129zM566 93q35 0 62.5 18.5t46 51.5t28.5 78
t10 98q0 49 -9.5 93t-28.5 77t-46 52.5t-63 19.5t-63.5 -19.5t-46.5 -53t-28.5 -78t-9.5 -94.5q0 -51 10 -95.5t28.5 -77t46 -51.5t62.5 -19h1z" />
    <glyph glyph-name="afii10049" unicode="&#x42f;" horiz-adv-x="577" 
d="M10 0q10 17 17.5 36t14.5 40q10 28 18 57t18 56t22.5 50.5t30.5 41.5q11 11 24.5 19.5t28.5 15.5v3q-27 5 -51 17.5t-43 33t-30 49t-11 64.5q0 48 18.5 83.5t48.5 59.5q37 30 92 41.5t116 11.5q54 0 101.5 -4t82.5 -10v-665h-130v273h-61q-42 0 -68 -26
q-15 -15 -26.5 -37.5t-20.5 -48t-16 -51t-13 -45.5l-10 -35t-13 -30h-140zM378 575q-8 2 -28.5 4.5t-43.5 2.5t-45.5 -6t-40 -19.5t-28.5 -34t-11 -49.5q0 -26 11.5 -46t30 -33.5t42.5 -20.5t48 -7q14 0 34.5 1t30.5 3v205z" />
    <glyph glyph-name="afii10065" unicode="&#x430;" horiz-adv-x="506" 
d="M335 0l-9 53h-3q-49 -64 -140 -64q-70 0 -113 45q-39 40 -39 101q0 91 74 138t209 47v8q0 79 -95 79q-70 0 -129 -35l-25 83q70 43 177 43q202 0 202 -206v-175q0 -38 1.5 -67t5.5 -50h-116zM318 237h-5q-155 0 -155 -88q0 -68 67 -68q32 0 56.5 18.5t33.5 45.5
q3 10 3 27v65z" />
    <glyph glyph-name="afii10066" unicode="&#x431;" horiz-adv-x="553" 
d="M463 617q-21 -6 -53.5 -10.5t-58.5 -6.5q-51 -6 -87 -21.5t-60 -43.5q-10 -12 -18.5 -29.5t-15 -37t-11 -38.5t-5.5 -33h4q22 42 62 67t91 25q48 0 86.5 -17.5t65.5 -49.5t41.5 -76.5t14.5 -99.5q0 -60 -18 -107.5t-49.5 -81t-75.5 -51.5t-95 -18q-61 0 -106.5 24.5
t-76 67.5t-45.5 102.5t-15 129.5q0 97 24 171.5t76 125.5q66 75 193 90q16 2 35.5 4.5t38 5t36 5.5t29.5 6zM385 241q0 27 -6 55t-18.5 50.5t-33 37t-50.5 14.5q-26 0 -46 -12t-32 -32q-14 -20 -21 -45.5t-7 -60.5q0 -27 6 -56t19.5 -53t33.5 -40t49 -16q28 0 48.5 14t33 36
t18.5 50t6 57v1z" />
    <glyph glyph-name="afii10067" unicode="&#x432;" horiz-adv-x="534" 
d="M63 482q13 2 34 4t46 4t52.5 3t54.5 1q19 0 44 -1t50 -5.5t49.5 -12.5t43.5 -22t30.5 -34.5t11.5 -49.5q0 -24 -8 -42t-21.5 -30.5t-30.5 -20.5t-35 -12v-2q54 -9 84.5 -37.5t30.5 -79.5q0 -52 -29.5 -82t-72 -45.5t-89.5 -19.5t-83 -4q-24 0 -48 0.5t-46 2t-40 3
t-28 3.5v479zM190 294h52q22 0 42 3t35 10t24 18.5t9 28.5q0 26 -26.5 40t-71.5 14q-14 0 -33 -1t-31 -3v-110zM189 81q11 -2 29 -2h35q18 0 38 3.5t36.5 11t27.5 20.5t11 33q0 19 -9.5 32t-25.5 21t-38 12t-47 4h-57v-135z" />
    <glyph glyph-name="afii10068" unicode="&#x433;" horiz-adv-x="403" 
d="M387 488v-102h-195v-386h-129v488h324z" />
    <glyph glyph-name="afii10069" unicode="&#x434;" horiz-adv-x="566" 
d="M492 488v-392l51 -3l-6 -251h-108l-5 158h-293l-6 -158h-109l-3 250l42 4q31 48 47 101q10 38 15.5 76.5t5.5 93.5v121h369zM233 319q0 -31 -4.5 -68t-12.5 -69q-5 -21 -13.5 -42.5t-19.5 -40.5h184v288h-134v-68z" />
    <glyph glyph-name="afii10070" unicode="&#x435;" horiz-adv-x="511" 
d="M479 262q0 -17 -1 -31t-3 -24h-317q3 -59 45 -90q41 -29 100 -29q74 0 131 22l19 -89q-72 -30 -169 -30q-59 0 -105 17t-78.5 49.5t-49.5 78t-17 102.5q0 107 60 181q66 80 177 80q106 0 162 -77q46 -64 46 -160zM358 297q0 43 -19 74q-25 40 -76 40q-49 0 -77 -39
q-24 -33 -28 -75h200z" />
    <glyph glyph-name="afii10072" unicode="&#x436;" horiz-adv-x="694" 
d="M149 488l111 -201h25v201h125v-201h24l112 201h146l-161 -211q39 -8 66 -43.5t42 -80.5q14 -42 26.5 -80.5t28.5 -72.5h-131q-11 18 -19.5 47t-20.5 71t-34.5 62.5t-50.5 20.5h-28v-201h-125v201h-28q-61 0 -87 -83q-14 -43 -22 -71t-19 -47h-129q17 35 30 72.5t27 79.5
q16 48 42 82.5t65 42.5l-161 211h146z" />
    <glyph glyph-name="afii10073" unicode="&#x437;" horiz-adv-x="469" 
d="M108 295h85q45 0 66 16t21 42q0 23 -20 38.5t-65 15.5q-36 0 -68 -10.5t-63 -24.5l-27 82q42 24 90.5 34t100.5 10q32 0 65.5 -6.5t60.5 -21.5t44.5 -40.5t17.5 -62.5q0 -24 -9.5 -42.5t-24 -31.5t-32.5 -21.5t-35 -12.5v-4q21 -3 43 -11t39 -21.5t28 -34.5t11 -49
q0 -45 -22.5 -74t-57 -46t-75 -23.5t-76.5 -6.5q-48 0 -96 9.5t-86 32.5l30 88q23 -15 63 -25t83 -11q54 0 76 17.5t22 40.5q0 35 -26 50.5t-74 15.5h-89v88z" />
    <glyph glyph-name="afii10074" unicode="&#x438;" horiz-adv-x="579" 
d="M181 488v-165v-52.5t-0.5 -45.5t-1.5 -43.5t-2 -46.5h5q19 39 40 79.5t35 69.5l101 204h158v-488h-118v153v50.5t0.5 45t1.5 50t3 66.5h-4q-20 -42 -37 -79.5t-34 -71.5l-108 -214h-157v488h118z" />
    <glyph glyph-name="afii10075" unicode="&#x439;" horiz-adv-x="579" 
d="M247 670q1 -37 13.5 -52.5t32.5 -15.5q21 0 34 16t15 52h82q-4 -63 -38.5 -93.5t-94.5 -30.5q-64 0 -94 33.5t-33 90.5h83zM185 488v-165q0 -59 -0.5 -103.5t-3.5 -94.5h4q17 42 34 80.5t31 73.5l92 209h174v-488h-122v163v50.5t0.5 45t1.5 50t3 66.5h-3
q-14 -42 -30.5 -76.5t-30.5 -69.5q-22 -52 -48.5 -112t-50.5 -117h-173v488h122z" />
    <glyph glyph-name="afii10076" unicode="&#x43a;" horiz-adv-x="501" 
d="M192 488v-201h24l128 201h154l-171 -211q42 -8 69.5 -44.5t47.5 -90.5q12 -32 25.5 -69.5t30.5 -72.5h-136q-9 16 -18 43l-24 72q-16 42 -40 64t-71 22h-19v-201h-129v488h129z" />
    <glyph glyph-name="afii10077" unicode="&#x43b;" horiz-adv-x="523" 
d="M460 488v-488h-129v387h-130v-104q0 -90 -14.5 -150t-51.5 -96q-47 -47 -118 -47l-14 102q14 3 27.5 10t21.5 17q19 22 24.5 58t5.5 99v212h378z" />
    <glyph glyph-name="afii10078" unicode="&#x43c;" horiz-adv-x="683" 
d="M77 488h172l53 -184q3 -11 7.5 -27t9.5 -34t10 -37t9 -35h4q3 13 8.5 30.5t11.5 37l12 39t11 37.5l54 173h170l30 -488h-121l-8 196q0 16 -1 38t-2.5 46.5t-2.5 49.5t-1 47h-4l-51 -170l-65 -199h-99l-58 194q-5 18 -11 41t-12 47t-12 47t-10 40h-4q-1 -23 -2 -49
t-2.5 -51t-2.5 -47t-2 -37l-11 -193h-114z" />
    <glyph glyph-name="afii10079" unicode="&#x43d;" horiz-adv-x="561" 
d="M192 488v-186h177v186h129v-488h-129v201h-177v-201h-129v488h129z" />
    <glyph glyph-name="afii10080" unicode="&#x43e;" horiz-adv-x="557" 
d="M523 248q0 -114 -67 -187q-68 -72 -180 -72q-110 0 -176 70t-66 181q0 116 67 186q67 72 183 72q110 0 174 -70q65 -71 65 -180zM389 245q0 61 -24 105q-30 54 -86 54q-57 0 -88 -54q-25 -43 -25 -107q0 -63 25 -106q30 -54 88 -54q56 0 86 56q24 45 24 106z" />
    <glyph glyph-name="afii10081" unicode="&#x43f;" horiz-adv-x="557" 
d="M494 488v-488h-130v387h-172v-387h-129v488h431z" />
    <glyph glyph-name="afii10082" unicode="&#x440;" horiz-adv-x="578" 
d="M543 250q0 -123 -68 -197q-60 -64 -149 -64q-92 0 -131 62h-2v-249h-129v524q0 38 -1 78.5t-3 83.5h113l6 -73h2q56 83 162 83q85 0 142 -68q58 -67 58 -180zM412 244q0 67 -29.5 109.5t-83.5 42.5q-44 0 -76 -35q-30 -35 -30 -81v-77q0 -48 27 -79q30 -35 76 -35
q54 0 85 42.5t31 112.5z" />
    <glyph glyph-name="afii10083" unicode="&#x441;" horiz-adv-x="441" 
d="M397 380q-40 17 -89 17q-33 0 -59.5 -11.5t-44.5 -31.5t-28 -48.5t-10 -61.5q0 -69 42 -112q39 -40 101 -40q49 0 91 18l17 -96q-51 -24 -134 -24q-114 0 -181 67q-68 68 -68 182q0 111 72 185q74 74 197 74q65 0 115 -21z" />
    <glyph glyph-name="afii10084" unicode="&#x442;" horiz-adv-x="443" 
d="M429 488v-101h-143v-387h-129v387h-143v101h415z" />
    <glyph glyph-name="afii10085" unicode="&#x443;" horiz-adv-x="497" 
d="M492 488l-117 -332q-86 -240 -167 -312q-61 -55 -131 -64l-30 109q33 8 71.5 34t62.5 71q8 18 8 22q0 7 -6 24l-176 448h143l82 -257q5 -16 11.5 -39t14.5 -54h3q4 16 10 39.5t14 54.5l70 256h137z" />
    <glyph glyph-name="afii10086" unicode="&#x444;" horiz-adv-x="700" 
d="M409 705v-207q53 -5 100 -23.5t82 -50.5t55 -77.5t20 -104.5q0 -60 -21 -105.5t-56 -77t-81.5 -49t-98.5 -21.5v-187h-117v187q-52 4 -99 22t-82 49.5t-56 76.5t-21 104q0 60 20.5 105.5t55.5 77.5t82 50.5t100 23.5v207h117zM293 413q-69 -14 -101 -61.5t-32 -108.5
q0 -64 32 -110t101 -60v340zM408 73q69 14 100.5 60.5t31.5 109.5q0 31 -7.5 58.5t-24 50t-41.5 38.5t-59 23v-340z" />
    <glyph glyph-name="afii10087" unicode="&#x445;" horiz-adv-x="492" 
d="M485 0h-146l-55 95q-20 34 -42 78h-2q-8 -16 -18 -35.5t-23 -42.5l-53 -95h-141l164 248l-159 240h144l54 -90l42 -75h2q12 24 22.5 43.5t18.5 33.5l50 88h140l-159 -234z" />
    <glyph glyph-name="afii10088" unicode="&#x446;" horiz-adv-x="567" 
d="M192 488v-389h174v389h129v-397l51 -3l-7 -246h-108l-5 158h-363v488h129z" />
    <glyph glyph-name="afii10089" unicode="&#x447;" horiz-adv-x="540" 
d="M187 488v-160q0 -40 23.5 -60.5t60.5 -20.5q19 0 42.5 6.5t34.5 14.5v220h129v-495h-129v192h-2q-21 -14 -52.5 -22.5t-63.5 -8.5q-75 0 -123.5 44t-48.5 131v159h129z" />
    <glyph glyph-name="afii10090" unicode="&#x448;" horiz-adv-x="783" 
d="M192 488v-389h135v389h129v-389h135v389h129v-488h-657v488h129z" />
    <glyph glyph-name="afii10091" unicode="&#x449;" horiz-adv-x="793" 
d="M63 488h129v-389h135v389h129v-389h136v389h129v-397l51 -3l-7 -246h-108l-5 158h-589v488z" />
    <glyph glyph-name="afii10092" unicode="&#x44a;" horiz-adv-x="638" 
d="M296 86q14 -2 28.5 -2.5t34.5 -0.5q18 0 38.5 4t38 14t29.5 27.5t12 43.5q0 28 -12.5 45.5t-31 27t-39.5 12.5t-37 3q-14 0 -32 -1.5t-29 -3.5v-169zM296 343q15 2 34.5 4t38.5 2q46 0 88.5 -8.5t75.5 -28t53 -52t20 -81.5q0 -48 -17.5 -79t-46.5 -51q-23 -17 -50 -27.5
t-55.5 -16.5t-58 -8.5t-56.5 -2.5q-40 0 -79.5 2t-75.5 7v383h-147v102h276v-145z" />
    <glyph glyph-name="afii10093" unicode="&#x44b;" horiz-adv-x="749" 
d="M192 488v-145q15 2 31.5 4t35.5 2q46 0 88 -8.5t74 -28t51 -52t19 -81.5q0 -48 -17.5 -79t-46.5 -51q-45 -33 -103 -44t-112 -11q-77 0 -149 9v485h129zM192 86q14 -2 25.5 -2.5t31.5 -0.5q18 0 37.5 4t36.5 14t28 27.5t11 43.5q0 28 -12 45.5t-29 27t-37.5 12.5t-36.5 3
q-30 0 -55 -5v-169zM686 0h-129v488h129v-488z" />
    <glyph glyph-name="afii10094" unicode="&#x44c;" horiz-adv-x="534" 
d="M192 488v-145q15 2 34.5 4t38.5 2q46 0 88.5 -8.5t75.5 -28t53 -52t20 -81.5q0 -48 -17.5 -79t-46.5 -51q-23 -17 -50 -27.5t-55.5 -16.5t-58 -8.5t-56.5 -2.5q-40 0 -79.5 2t-75.5 7v485h129zM192 86q14 -2 28.5 -2.5t34.5 -0.5q18 0 38.5 4t38 14t29.5 27.5t12 43.5
q0 28 -12.5 45.5t-31 27t-39.5 12.5t-37 3q-14 0 -32 -1.5t-29 -3.5v-169z" />
    <glyph glyph-name="afii10095" unicode="&#x44d;" horiz-adv-x="464" 
d="M80 289h217q-4 60 -37 87t-87 27q-36 0 -63 -6.5t-58 -17.5l-24 87q32 18 74.5 25t81.5 7q48 0 92 -14t77 -45q35 -32 56 -80.5t21 -114.5q0 -58 -18.5 -105t-53 -80.5t-84 -51.5t-110.5 -18q-39 0 -76.5 5.5t-66.5 21.5l18 89q22 -8 49.5 -14.5t65.5 -6.5q28 0 52 6.5
t42.5 21t30.5 38t15 57.5h-214v82z" />
    <glyph glyph-name="afii10096" unicode="&#x44e;" horiz-adv-x="739" 
d="M192 488v-190h73q17 96 74.5 148t145.5 52q49 0 89.5 -18t69.5 -51t45 -79t16 -101q0 -65 -18.5 -113.5t-50 -81t-72.5 -49t-85 -16.5q-42 0 -79 14t-65.5 41t-47 67t-24.5 92h-71v-203h-129v488h129zM482 83q24 0 41.5 12.5t29 34.5t17 51.5t5.5 63.5q0 30 -5.5 59
t-16.5 51t-29 35.5t-42 13.5q-26 0 -44 -13.5t-30 -36t-17.5 -51.5t-5.5 -60q0 -33 6 -62t18 -50.5t30 -34.5t42 -13h1z" />
    <glyph glyph-name="afii10097" unicode="&#x44f;" horiz-adv-x="532" 
d="M469 0h-129v190h-45q-29 0 -47 -10.5t-30 -24.5q-17 -20 -29.5 -50t-20.5 -59q-5 -15 -8.5 -24.5t-9.5 -21.5h-140q8 11 15 25t13 29t12.5 33t14.5 36.5t17.5 36t20.5 29.5q24 26 59 36v3q-20 2 -41 10t-38 23t-28.5 36.5t-11.5 50.5q0 46 21.5 74t56.5 45q32 17 77.5 23
t93.5 6q54 0 100.5 -3t76.5 -8v-485zM340 409q-9 2 -27 3.5t-35 1.5q-18 0 -35.5 -4t-31.5 -12.5t-23 -22.5t-9 -33q0 -20 9.5 -34t24.5 -22.5t32.5 -12t34.5 -3.5t34 0.5t26 0.5v138z" />
    <glyph glyph-name="uni0450" unicode="&#x450;" horiz-adv-x="511" 
d="M479 262q0 -17 -1 -31t-3 -24h-317q3 -59 45 -90q41 -29 100 -29q74 0 131 22l19 -89q-72 -30 -169 -30q-59 0 -105 17t-78.5 49.5t-49.5 78t-17 102.5q0 107 60 181q66 80 177 80q106 0 162 -77q46 -64 46 -160zM358 297q0 43 -19 74q-25 40 -76 40q-49 0 -77 -39
q-24 -33 -28 -75h200zM322 549h-88l-121 148h124z" />
    <glyph glyph-name="afii10071" unicode="&#x451;" horiz-adv-x="511" 
d="M431 612q0 -27 -17.5 -44.5t-43.5 -17.5t-43 18t-17 44t17.5 43.5t43.5 17.5t43 -17.5t17 -43.5zM236 612q0 -27 -17.5 -44.5t-43.5 -17.5q-25 0 -43 18t-18 44t18 43.5t45 17.5q25 0 42 -17.5t17 -43.5zM479 262q0 -17 -1 -31t-3 -24h-317q3 -59 45 -90q41 -29 100 -29
q74 0 131 22l19 -89q-72 -30 -169 -30q-59 0 -105 17t-78.5 49.5t-49.5 78t-17 102.5q0 107 60 181q66 80 177 80q106 0 162 -77q46 -64 46 -160zM358 297q0 43 -19 74q-25 40 -76 40q-49 0 -77 -39q-24 -33 -28 -75h200z" />
    <glyph glyph-name="afii10099" unicode="&#x452;" horiz-adv-x="554" 
d="M197 0h-129v550h-67v85h67v74h129v-74h216v-85h-216v-118h1q22 22 55 37.5t71 15.5q52 0 86.5 -23.5t57.5 -65.5q45 -80 45 -198q0 -112 -30 -190t-90 -116q-29 -19 -58 -29t-52 -12l-23 106q46 7 79 45q20 22 32 70t12 117q0 21 -2 53t-11.5 63t-29.5 53t-56 22
q-28 0 -47 -14.5t-29 -28.5q-6 -8 -8.5 -21.5t-2.5 -19.5v-296z" />
    <glyph glyph-name="afii10100" unicode="&#x453;" horiz-adv-x="403" 
d="M387 488v-102h-195v-386h-129v488h324zM352 694l-121 -148h-89l86 148h124z" />
    <glyph glyph-name="afii10101" unicode="&#x454;" horiz-adv-x="452" 
d="M407 379q-15 8 -42 16t-65 8q-54 0 -88.5 -30t-42.5 -84h207v-82h-206q8 -68 46 -95.5t89 -27.5q35 0 62.5 7.5t44.5 14.5l18 -90q-20 -11 -57 -19t-82 -8q-60 0 -107.5 17.5t-80.5 50t-51 79t-18 103.5q0 63 21.5 111.5t58.5 81.5t86.5 49.5t106.5 16.5q35 0 67.5 -6.5
t55.5 -17.5z" />
    <glyph glyph-name="afii10102" unicode="&#x455;" horiz-adv-x="414" 
d="M381 144q0 -71 -51 -111q-52 -43 -148 -43q-90 0 -148 34l25 93q59 -35 123 -35q74 0 74 51q0 24 -16.5 38.5t-59.5 29.5q-134 48 -134 143q0 66 51 110q53 44 135 44q77 0 129 -28l-25 -91q-49 28 -101 28q-65 0 -65 -49q0 -21 18 -34.5t64 -30.5q128 -47 129 -149z" />
    <glyph glyph-name="afii10103" unicode="&#x456;" horiz-adv-x="257" 
d="M204 633q0 -33 -21.5 -53t-55.5 -20q-32 0 -53 20.5t-21 52.5t21.5 52.5t54.5 20.5q32 0 54 -20.5t21 -52.5zM193 0h-129v488h129v-488z" />
    <glyph glyph-name="afii10104" unicode="&#x457;" horiz-adv-x="257" 
d="M287 612q0 -27 -17.5 -44.5t-43.5 -17.5t-43 18t-17 44t17.5 43.5t43.5 17.5t43 -17.5t17 -43.5zM92 612q0 -27 -17.5 -44.5t-43.5 -17.5q-25 0 -43 18t-18 44t18 43.5t45 17.5q25 0 42 -17.5t17 -43.5zM193 0h-129v488h129v-488z" />
    <glyph glyph-name="afii10105" unicode="&#x458;" horiz-adv-x="271" 
d="M220 633q0 -33 -22 -53t-55 -20q-32 0 -53 20.5t-21 52.5t21.5 52.5t54.5 20.5q32 0 54 -20.5t21 -52.5zM209 52q0 -147 -64 -208q-60 -57 -173 -57l-13 102q63 4 90 33q31 31 31 165v401h129v-436z" />
    <glyph glyph-name="afii10106" unicode="&#x459;" horiz-adv-x="789" 
d="M330 387h-128v-104q0 -91 -15 -150t-52 -95q-23 -23 -52.5 -35.5t-67.5 -12.5l-12 102q13 3 26 10t22 16q21 20 26.5 60t5.5 98v212h376v-149q15 2 31.5 4t35.5 2q46 0 87.5 -8t73.5 -27.5t51 -51.5t19 -81q0 -48 -17.5 -78t-46.5 -50q-45 -33 -102.5 -44t-111.5 -11
q-77 0 -149 9v384zM459 86q14 -2 25.5 -2.5t31.5 -0.5q18 0 37.5 3.5t36 13.5t27.5 27t11 43q0 28 -11.5 45t-29 26t-37.5 12t-36 3q-30 0 -55 -5v-165z" />
    <glyph glyph-name="afii10107" unicode="&#x45a;" horiz-adv-x="803" 
d="M473 488v-149q15 2 31.5 4t35.5 2q46 0 87.5 -8t73.5 -27.5t51 -51.5t19 -81q0 -48 -17.5 -78t-46.5 -50q-45 -33 -102.5 -44t-111.5 -11q-77 0 -149 9v215h-152v-218h-129v488h129v-173h152v173h129zM473 86q14 -2 25.5 -2.5t31.5 -0.5q18 0 37.5 3.5t36 13.5t27.5 27
t11 43q0 28 -11.5 45t-29 26t-37.5 12t-36 3q-30 0 -55 -5v-165z" />
    <glyph glyph-name="afii10108" unicode="&#x45b;" horiz-adv-x="570" 
d="M68 635v74h129v-74h210v-85h-210v-139h2q51 74 142 74q71 0 116 -48q51 -56 51 -162v-275h-130v261q0 119 -87 119q-42 0 -68 -29.5t-26 -71.5v-279h-129v550h-67v85h67z" />
    <glyph glyph-name="afii10109" unicode="&#x45c;" horiz-adv-x="501" 
d="M192 488v-201h24l128 201h154l-171 -211q42 -8 69.5 -44.5t47.5 -90.5q12 -32 25.5 -69.5t30.5 -72.5h-136q-9 16 -18 43l-24 72q-16 42 -40 64t-71 22h-19v-201h-129v488h129zM395 694l-121 -148h-89l86 148h124z" />
    <glyph glyph-name="uni045D" unicode="&#x45d;" horiz-adv-x="579" 
d="M181 488v-165v-52.5t-0.5 -45.5t-1.5 -43.5t-2 -46.5h5q19 39 40 79.5t35 69.5l101 204h158v-488h-118v153v50.5t0.5 45t1.5 50t3 66.5h-4q-20 -42 -37 -79.5t-34 -71.5l-108 -214h-157v488h118zM354 538h-88l-121 148h124z" />
    <glyph glyph-name="afii10110" unicode="&#x45e;" horiz-adv-x="497" 
d="M492 488l-117 -332q-86 -240 -167 -312q-61 -55 -131 -64l-30 109q33 8 71.5 34t62.5 71q8 18 8 22q0 7 -6 24l-176 448h143l82 -257q5 -16 11.5 -39t14.5 -54h3q4 16 10 39.5t14 54.5l70 256h137zM200 670q1 -37 13.5 -52.5t32.5 -15.5q21 0 34 16t15 52h82
q-4 -63 -38.5 -93.5t-94.5 -30.5q-64 0 -94 33.5t-33 90.5h83z" />
    <glyph glyph-name="afii10193" unicode="&#x45f;" horiz-adv-x="558" 
d="M192 488v-389h174v389h129v-488h-151l-8 -165h-115l-8 165h-150v488h129z" />
    <glyph glyph-name="afii10050" unicode="&#x490;" horiz-adv-x="476" 
d="M347 674l17 130h102l-13 -237h-255v-567h-129v674h278z" />
    <glyph glyph-name="afii10098" unicode="&#x491;" horiz-adv-x="417" 
d="M285 488l13 119h101l-9 -221h-198v-386h-129v488h222z" />
    </font>
</defs>
</svg>
